SplineFontDB: 3.2
FontName: Inconsolata-SemiCondensedBold
FullName: Inconsolata Semi Condensed Bold
FamilyName: Inconsolata Semi Condensed Bold
Weight: Bold
Copyright: Copyright 2006 The Inconsolata Project Authors (https://github.com/cyrealtype/Inconsolata)
Version: 3.000; ttfautohint (v1.8.3)
ItalicAngle: -9
UnderlinePosition: -297
UnderlineWidth: 102
Ascent: 1802
Descent: 246
InvalidEm: 0
sfntRevision: 0x00030000
LayerCount: 2
Layer: 0 1 "Back" 1
Layer: 1 1 "Fore" 0
XUID: [1021 203 1601712395 28007]
StyleMap: 0x0040
FSType: 0
OS2Version: 4
OS2_WeightWidthSlopeOnly: 0
OS2_UseTypoMetrics: 1
CreationTime: 1576097233
ModificationTime: 1732402469
PfmFamily: 81
TTFWeight: 700
TTFWidth: 4
LineGap: 0
VLineGap: 0
Panose: 0 0 0 0 0 0 0 0 0 0
OS2TypoAscent: 1759
OS2TypoAOffset: 0
OS2TypoDescent: -389
OS2TypoDOffset: 0
OS2TypoLinegap: 0
OS2WinAscent: 2056
OS2WinAOffset: 0
OS2WinDescent: 930
OS2WinDOffset: 0
HheadAscent: 1759
HheadAOffset: 0
HheadDescent: -389
HheadDOffset: 0
OS2SubXSize: 1331
OS2SubYSize: 1229
OS2SubXOff: 0
OS2SubYOff: 154
OS2SupXSize: 1331
OS2SupYSize: 1229
OS2SupXOff: 0
OS2SupYOff: 717
OS2StrikeYSize: 102
OS2StrikeYPos: 571
OS2CapHeight: 1276
OS2XHeight: 952
OS2Vendor: 'CYRE'
OS2CodePages: 60000193.cdd40000
OS2UnicodeRanges: a00000ff.0000f9eb.00000020.00000000
Lookup: 1 0 0 "'aalt' Access All Alternates in Latin lookup 0" { "'aalt' Access All Alternates in Latin lookup 0 subtable"  } ['aalt' ('DFLT' <'dflt' > 'latn' <'AZE ' 'CAT ' 'CRT ' 'KAZ ' 'MOL ' 'ROM ' 'TAT ' 'TRK ' 'dflt' > ) ]
Lookup: 3 0 0 "'aalt' Access All Alternates in Latin lookup 1" { "'aalt' Access All Alternates in Latin lookup 1 subtable"  } ['aalt' ('DFLT' <'dflt' > 'latn' <'AZE ' 'CAT ' 'CRT ' 'KAZ ' 'MOL ' 'ROM ' 'TAT ' 'TRK ' 'dflt' > ) ]

StartChar: A
Encoding: 65 65 1
Width: 889
VWidth: 2424
GlyphClass: 2
Flags: HW
AnchorPoint: "Anchor-3" 580 0 basechar 0
AnchorPoint: "Anchor-2" 346 0 basechar 0
AnchorPoint: "Anchor-0" 585.319 1511 basechar 0
LayerCount: 2
Fore
SplineSet
505.809570312 1009 m 1,0,-1
 329.002929688 543 l 1,1,-1
 532.002929688 543 l 1,2,-1
 505.809570312 1009 l 1,0,-1
562 0 m 1,3,-1
 542.384765625 356 l 1,4,-1
 259.384765625 356 l 1,5,-1
 126 0 l 1,6,-1
 -83 0 l 1,7,-1
 535.536132812 1525 l 1,8,-1
 641.536132812 1525 l 1,9,-1
 775 0 l 1,10,-1
 562 0 l 1,3,-1
EndSplineSet
Substitution2: "Single Substitution lookup 29 subtable" ordfeminine
Substitution2: "'aalt' Access All Alternates in Latin lookup 0 subtable" ordfeminine
EndChar

StartChar: AE
Encoding: 198 198 26
Width: 834
VWidth: 2424
GlyphClass: 1
Flags: HW
LayerCount: 2
Fore
SplineSet
277.189453125 601 m 1,0,-1
 386.189453125 601 l 1,1,-1
 499.1796875 1226 l 1,2,-1
 495.1796875 1226 l 1,3,-1
 277.189453125 601 l 1,0,-1
-120 0 m 1,4,-1
 451.319335938 1511 l 1,5,-1
 977.319335938 1511 l 1,6,-1
 943.424804688 1297 l 1,7,-1
 679.424804688 1297 l 1,8,-1
 615.75390625 895 l 1,9,-1
 836.75390625 895 l 1,10,-1
 802.384765625 678 l 1,11,-1
 581.384765625 678 l 1,12,-1
 507.736328125 213 l 1,13,-1
 766.736328125 213 l 1,14,-1
 733 0 l 1,15,-1
 291 0 l 1,16,-1
 352.13671875 386 l 1,17,-1
 207.13671875 386 l 1,18,-1
 69 0 l 1,19,-1
 -120 0 l 1,4,-1
EndSplineSet
EndChar

StartChar: B
Encoding: 66 66 28
Width: 922
VWidth: 2424
GlyphClass: 2
Flags: HW
AnchorPoint: "Anchor-2" 358 0 basechar 0
AnchorPoint: "Anchor-0" 597.319 1511 basechar 0
LayerCount: 2
Fore
SplineSet
201.52734375 218 m 1,0,-1
 368.52734375 218 l 2,1,2
 471.52734375 218 471.52734375 218 539.897460938 274 c 128,-1,3
 608.266601562 330 608.266601562 330 626.005859375 442 c 0,4,5
 644.061523438 556 644.061523438 556 597.990234375 625 c 128,-1,6
 551.918945312 694 551.918945312 694 413.918945312 694 c 2,7,-1
 276.918945312 694 l 1,8,-1
 201.52734375 218 l 1,0,-1
310.654296875 907 m 1,9,-1
 439.654296875 907 l 2,10,11
 567.654296875 907 567.654296875 907 622.4453125 962.5 c 128,-1,12
 677.235351562 1018 677.235351562 1018 691.490234375 1108 c 0,13,14
 704.953125 1193 704.953125 1193 666.030273438 1244 c 128,-1,15
 627.107421875 1295 627.107421875 1295 521.107421875 1295 c 2,16,-1
 372.107421875 1295 l 1,17,-1
 310.654296875 907 l 1,9,-1
-62 0 m 1,18,-1
 177.319335938 1511 l 1,19,-1
 553.319335938 1511 l 2,20,21
 767.319335938 1511 767.319335938 1511 861.322265625 1410 c 128,-1,22
 955.325195312 1309 955.325195312 1309 927.291015625 1132 c 0,23,24
 910.02734375 1023 910.02734375 1023 850.193359375 932.5 c 128,-1,25
 790.359375 842 790.359375 842 698.499023438 805 c 1,26,27
 791.73828125 756 791.73828125 756 838.05859375 657 c 128,-1,28
 884.37890625 558 884.37890625 558 864.739257812 434 c 0,29,30
 832.903320312 233 832.903320312 233 693.452148438 116.5 c 128,-1,31
 554 0 554 0 312 0 c 2,32,-1
 -62 0 l 1,18,-1
EndSplineSet
EndChar

StartChar: C
Encoding: 67 67 29
Width: 922
VWidth: 2424
GlyphClass: 2
Flags: HW
AnchorPoint: "Anchor-2" 403 0 basechar 0
AnchorPoint: "Anchor-0" 634.319 1511 basechar 0
LayerCount: 2
Fore
SplineSet
409.723632812 -27 m 0,0,1
 279.723632812 -27 279.723632812 -27 184.236328125 52 c 128,-1,2
 88.748046875 131 88.748046875 131 50.7529296875 301.5 c 128,-1,3
 12.7578125 472 12.7578125 472 56.3134765625 747 c 0,4,5
 92.4248046875 975 92.4248046875 975 159.840820312 1126 c 128,-1,6
 227.256835938 1277 227.256835938 1277 313.853515625 1366 c 128,-1,7
 400.44921875 1455 400.44921875 1455 490.809570312 1492 c 128,-1,8
 581.169921875 1529 581.169921875 1529 664.169921875 1529 c 0,9,10
 800.169921875 1529 800.169921875 1529 882.345703125 1457.5 c 128,-1,11
 964.520507812 1386 964.520507812 1386 995.248046875 1258 c 1,12,-1
 841.07421875 1118 l 1,13,-1
 823.698242188 1103 l 1,14,-1
 813.390625 1120 l 1,15,16
 818.083007812 1137 818.083007812 1137 818.330078125 1157.5 c 128,-1,17
 818.577148438 1178 818.577148438 1178 805.961914062 1212 c 1,18,19
 775.1484375 1270 775.1484375 1270 733.6328125 1292 c 128,-1,20
 692.1171875 1314 692.1171875 1314 643.1171875 1314 c 0,21,22
 570.1171875 1314 570.1171875 1314 497.03515625 1253.5 c 128,-1,23
 423.953125 1193 423.953125 1193 366.55078125 1070.5 c 128,-1,24
 309.1484375 948 309.1484375 948 279.213867188 759 c 0,25,26
 235.5 483 235.5 483 288.11328125 338.5 c 128,-1,27
 340.7265625 194 340.7265625 194 454.7265625 194 c 0,28,29
 590.7265625 194 590.7265625 194 694.384765625 356 c 1,30,-1
 812.944335938 208 l 1,31,32
 727.512695312 79 727.512695312 79 629.118164062 26 c 128,-1,33
 530.723632812 -27 530.723632812 -27 409.723632812 -27 c 0,0,1
EndSplineSet
EndChar

StartChar: D
Encoding: 68 68 36
Width: 922
VWidth: 2424
GlyphClass: 2
Flags: HW
AnchorPoint: "Anchor-4" 472.738 756 basechar 0
AnchorPoint: "Anchor-2" 344 0 basechar 0
AnchorPoint: "Anchor-0" 533.319 1511 basechar 0
LayerCount: 2
Fore
SplineSet
197.944335938 208 m 1,0,-1
 265.944335938 208 l 2,1,2
 448.944335938 208 448.944335938 208 548.671875 351.5 c 128,-1,3
 648.400390625 495 648.400390625 495 687.204101562 740 c 0,4,5
 714.446289062 912 714.446289062 912 704.665039062 1036.5 c 128,-1,6
 694.884765625 1161 694.884765625 1161 637.891601562 1230.5 c 128,-1,7
 580.899414062 1300 580.899414062 1300 461.899414062 1300 c 2,8,-1
 370.899414062 1300 l 1,9,-1
 197.944335938 208 l 1,0,-1
-62.31640625 -2 m 1,10,-1
 177.319335938 1511 l 1,11,-1
 497.319335938 1511 l 2,12,13
 661.319335938 1511 661.319335938 1511 744.241210938 1460 c 128,-1,14
 827.1640625 1409 827.1640625 1409 874.008789062 1307 c 0,15,16
 918.853515625 1205 918.853515625 1205 930.916992188 1066.5 c 128,-1,17
 942.98046875 928 942.98046875 928 914.313476562 747 c 0,18,19
 854.561523438 395 854.561523438 395 692.122070312 196.5 c 128,-1,20
 529.68359375 -2 529.68359375 -2 232.68359375 -2 c 2,21,-1
 -62.31640625 -2 l 1,10,-1
EndSplineSet
EndChar

StartChar: Eth
Encoding: 208 208 37
Width: 919
VWidth: 2424
GlyphClass: 1
Flags: HW
LayerCount: 2
Fore
SplineSet
244.052734375 215 m 1,0,-1
 310.052734375 215 l 2,1,2
 470.052734375 215 470.052734375 215 566.618164062 348 c 128,-1,3
 663.182617188 481 663.182617188 481 704.204101562 740 c 0,4,5
 745.701171875 1002 745.701171875 1002 699.533203125 1143 c 128,-1,6
 653.365234375 1284 653.365234375 1284 495.365234375 1284 c 2,7,-1
 413.365234375 1284 l 1,8,-1
 353.1796875 904 l 1,9,-1
 519.1796875 904 l 1,10,-1
 485.918945312 694 l 1,11,-1
 319.918945312 694 l 1,12,-1
 244.052734375 215 l 1,0,-1
5 0 m 1,13,-1
 114.918945312 694 l 1,14,-1
 45.9189453125 694 l 1,15,-1
 79.1796875 904 l 1,16,-1
 148.1796875 904 l 1,17,-1
 244.319335938 1511 l 1,18,-1
 537.319335938 1511 l 2,19,20
 650.319335938 1511 650.319335938 1511 725.299804688 1473 c 128,-1,21
 800.28125 1435 800.28125 1435 843.857421875 1375.5 c 128,-1,22
 887.43359375 1316 887.43359375 1316 908.138671875 1251 c 0,23,24
 935.259765625 1176 935.259765625 1176 937.169921875 1046 c 128,-1,25
 939.080078125 916 939.080078125 916 912.313476562 747 c 0,26,27
 854.819335938 384 854.819335938 384 702.41015625 192 c 128,-1,28
 550 0 550 0 278 0 c 2,29,-1
 5 0 l 1,13,-1
EndSplineSet
EndChar

StartChar: E
Encoding: 69 69 42
Width: 922
VWidth: 2424
GlyphClass: 2
Flags: HW
AnchorPoint: "Anchor-3" 711.218 14 basechar 0
AnchorPoint: "Anchor-2" 360 0 basechar 0
AnchorPoint: "Anchor-0" 631.319 1511 basechar 0
LayerCount: 2
Fore
SplineSet
-62 0 m 1,0,-1
 177.635742188 1513 l 1,1,-1
 1035.63574219 1513 l 1,2,-1
 1001.10742188 1295 l 1,3,-1
 383.107421875 1295 l 1,4,-1
 320.071289062 897 l 1,5,-1
 826.071289062 897 l 1,6,-1
 791.384765625 678 l 1,7,-1
 285.384765625 678 l 1,8,-1
 212.052734375 215 l 1,9,-1
 825.052734375 215 l 1,10,-1
 791 0 l 1,11,-1
 -62 0 l 1,0,-1
EndSplineSet
EndChar

StartChar: uni01B8
Encoding: 440 440 65
Width: 922
VWidth: 2424
GlyphClass: 1
Flags: HW
LayerCount: 2
Fore
SplineSet
396.505859375 -41 m 0,0,1
 256.505859375 -41 256.505859375 -41 160.088867188 19.5 c 128,-1,2
 63.6708984375 80 63.6708984375 80 23.7216796875 184.5 c 128,-1,3
 -16.2265625 289 -16.2265625 289 4.36328125 419 c 0,4,5
 35.564453125 616 35.564453125 616 157.837890625 744 c 128,-1,6
 280.111328125 872 280.111328125 872 456.080078125 916 c 1,7,-1
 188.80078125 1312 l 1,8,-1
 220.319335938 1511 l 1,9,-1
 955.319335938 1511 l 1,10,-1
 919.048828125 1282 l 1,11,-1
 476.048828125 1282 l 1,12,-1
 696.772460938 933 l 1,13,-1
 663.353515625 722 l 1,14,15
 642.041015625 722.915039062 642.041015625 722.915039062 621.958984375 722.915039062 c 0,16,17
 444.56640625 722.915039062 444.56640625 722.915039062 363.1875 651.5 c 0,18,19
 272.595703125 572 272.595703125 572 250.421875 432 c 0,20,21
 230.624023438 307 230.624023438 307 290.962890625 246 c 128,-1,22
 351.30078125 185 351.30078125 185 451.30078125 185 c 0,23,24
 591.30078125 185 591.30078125 185 678.021484375 259 c 1,25,26
 704.08984375 291 704.08984375 291 713.044921875 306.5 c 128,-1,27
 722 322 722 322 723.166992188 342 c 1,28,-1
 739.860351562 359 l 1,29,-1
 754.484375 344 l 1,30,-1
 818.33203125 141 l 1,31,32
 724.286132812 46 724.286132812 46 623.395507812 2.5 c 128,-1,33
 522.505859375 -41 522.505859375 -41 396.505859375 -41 c 0,0,1
EndSplineSet
EndChar

StartChar: F
Encoding: 70 70 66
Width: 910
VWidth: 2424
GlyphClass: 2
Flags: HW
AnchorPoint: "Anchor-2" 340 0 basechar 0
AnchorPoint: "Anchor-0" 579.319 1511 basechar 0
LayerCount: 2
Fore
SplineSet
-62 0 m 1,0,-1
 177.635742188 1513 l 1,1,-1
 1023.63574219 1513 l 1,2,-1
 989.107421875 1295 l 1,3,-1
 375.107421875 1295 l 1,4,-1
 315.872070312 921 l 1,5,-1
 812.872070312 921 l 1,6,-1
 778.819335938 706 l 1,7,-1
 281.819335938 706 l 1,8,-1
 170 0 l 1,9,-1
 -62 0 l 1,0,-1
EndSplineSet
EndChar

StartChar: G
Encoding: 71 71 67
Width: 922
VWidth: 2424
GlyphClass: 2
Flags: HW
AnchorPoint: "Anchor-2" 397 0 basechar 0
AnchorPoint: "Anchor-0" 647.319 1511 basechar 0
LayerCount: 2
Fore
SplineSet
416.723632812 -27 m 0,0,1
 188.723632812 -27 188.723632812 -27 94.0888671875 180.5 c 128,-1,2
 -0.546875 388 -0.546875 388 56.3134765625 747 c 0,3,4
 94.3251953125 987 94.3251953125 987 166.716796875 1141 c 128,-1,5
 239.107421875 1295 239.107421875 1295 327.728515625 1381 c 128,-1,6
 416.349609375 1467 416.349609375 1467 504.65625 1500.5 c 0,7,8
 587.986328125 1532.11230469 587.986328125 1532.11230469 653.84375 1532.11230469 c 0,9,10
 657.775390625 1532.11230469 657.775390625 1532.11230469 661.64453125 1532 c 0,11,12
 781.64453125 1532 781.64453125 1532 871.349609375 1467 c 128,-1,13
 961.0546875 1402 961.0546875 1402 995.365234375 1284 c 1,14,-1
 847.81640625 1129 l 1,15,-1
 828.806640625 1110 l 1,16,-1
 817.499023438 1127 l 1,17,18
 820.508789062 1146 820.508789062 1146 818.938476562 1164.5 c 128,-1,19
 817.369140625 1183 817.369140625 1183 800.75390625 1217 c 0,20,21
 775.72265625 1261 775.72265625 1261 737.919921875 1287.5 c 128,-1,22
 700.1171875 1314 700.1171875 1314 633.1171875 1314 c 0,23,24
 562.1171875 1314 562.1171875 1314 493.380859375 1262 c 128,-1,25
 424.645507812 1210 424.645507812 1210 369.456054688 1092 c 128,-1,26
 314.266601562 974 314.266601562 974 282.431640625 773 c 0,27,28
 235.549804688 477 235.549804688 477 284.2421875 333 c 128,-1,29
 332.934570312 189 332.934570312 189 448.934570312 189 c 0,30,31
 495.934570312 189 495.934570312 189 542.889648438 204.5 c 128,-1,32
 589.844726562 220 589.844726562 220 635.021484375 259 c 1,33,-1
 681.903320312 555 l 1,34,-1
 491.903320312 555 l 1,35,-1
 526.431640625 773 l 1,36,-1
 918.431640625 773 l 1,37,-1
 816.431640625 129 l 1,38,39
 714.96875 44 714.96875 44 614.846679688 8.5 c 128,-1,40
 514.723632812 -27 514.723632812 -27 416.723632812 -27 c 0,0,1
EndSplineSet
EndChar

StartChar: H
Encoding: 72 72 74
Width: 922
VWidth: 2424
GlyphClass: 2
Flags: HW
AnchorPoint: "Anchor-4" 537.738 756 basechar 0
AnchorPoint: "Anchor-2" 418 0 basechar 0
AnchorPoint: "Anchor-0" 623.319 1511 basechar 0
LayerCount: 2
Fore
SplineSet
177.319335938 1511 m 1,0,-1
 430.319335938 1511 l 1,1,-1
 426.67578125 1488 l 1,2,3
 413.458984375 1474 413.458984375 1474 407.845703125 1457.5 c 128,-1,4
 402.232421875 1441 402.232421875 1441 395.580078125 1399 c 2,5,-1
 316.071289062 897 l 1,6,-1
 685.071289062 897 l 1,7,-1
 782.319335938 1511 l 1,8,-1
 1035.31933594 1511 l 1,9,-1
 1031.67578125 1488 l 1,10,11
 1018.45898438 1474 1018.45898438 1474 1012.84570312 1457.5 c 128,-1,12
 1007.23242188 1441 1007.23242188 1441 1000.58007812 1399 c 2,13,-1
 779 0 l 1,14,-1
 543 0 l 1,15,-1
 651.334960938 684 l 1,16,-1
 282.334960938 684 l 1,17,-1
 174 0 l 1,18,-1
 -62 0 l 1,19,-1
 177.319335938 1511 l 1,0,-1
EndSplineSet
EndChar

StartChar: Hbar
Encoding: 294 294 75
Width: 856
VWidth: 2424
GlyphClass: 2
Flags: HW
AnchorPoint: "Anchor-4" 492.738 756 basechar 0
AnchorPoint: "Anchor-2" 373 0 basechar 0
AnchorPoint: "Anchor-0" 583.319 1511 basechar 0
LayerCount: 2
Fore
SplineSet
300.071289062 897 m 1,0,-1
 625.071289062 897 l 1,1,-1
 668.467773438 1171 l 1,2,-1
 343.467773438 1171 l 1,3,-1
 300.071289062 897 l 1,0,-1
79.4677734375 1171 m 1,4,-1
 112.412109375 1379 l 1,5,-1
 169.412109375 1379 l 1,6,-1
 190.319335938 1511 l 1,7,-1
 413.319335938 1511 l 1,8,-1
 409.67578125 1488 l 1,9,10
 397.458984375 1474 397.458984375 1474 391.845703125 1457.5 c 128,-1,11
 386.232421875 1441 386.232421875 1441 379.580078125 1399 c 2,12,-1
 376.412109375 1379 l 1,13,-1
 701.412109375 1379 l 1,14,-1
 722.319335938 1511 l 1,15,-1
 944.319335938 1511 l 1,16,-1
 940.67578125 1488 l 1,17,18
 928.458984375 1474 928.458984375 1474 923.345703125 1457.5 c 128,-1,19
 918.232421875 1441 918.232421875 1441 911.580078125 1399 c 2,20,-1
 908.412109375 1379 l 1,21,-1
 970.412109375 1379 l 1,22,-1
 937.467773438 1171 l 1,23,-1
 875.467773438 1171 l 1,24,-1
 690 0 l 1,25,-1
 483 0 l 1,26,-1
 591.334960938 684 l 1,27,-1
 266.334960938 684 l 1,28,-1
 158 0 l 1,29,-1
 -49 0 l 1,30,-1
 136.467773438 1171 l 1,31,-1
 79.4677734375 1171 l 1,4,-1
EndSplineSet
EndChar

StartChar: I
Encoding: 73 73 79
Width: 842
VWidth: 2424
GlyphClass: 2
Flags: HW
AnchorPoint: "Anchor-3" 561 0 basechar 0
AnchorPoint: "Anchor-2" 333 0 basechar 0
AnchorPoint: "Anchor-0" 561.319 1511 basechar 0
LayerCount: 2
Fore
SplineSet
-62 0 m 1,0,-1
 -27.947265625 215 l 1,1,-1
 236.052734375 215 l 1,2,-1
 407.107421875 1295 l 1,3,-1
 157.107421875 1295 l 1,4,-1
 191.319335938 1511 l 1,5,-1
 945.319335938 1511 l 1,6,-1
 911.107421875 1295 l 1,7,-1
 650.107421875 1295 l 1,8,-1
 478.736328125 213 l 1,9,-1
 749.736328125 213 l 1,10,-1
 716 0 l 1,11,-1
 -62 0 l 1,0,-1
EndSplineSet
EndChar

StartChar: J
Encoding: 74 74 94
Width: 922
VWidth: 2424
GlyphClass: 2
Flags: HW
AnchorPoint: "Anchor-2" 308 0 basechar 0
AnchorPoint: "Anchor-0" 742.319 1511 basechar 0
LayerCount: 2
Fore
SplineSet
249.615234375 -34 m 0,0,1
 157.615234375 -34 157.615234375 -34 80.2919921875 5 c 128,-1,2
 2.96875 44 2.96875 44 -42.2021484375 125 c 1,3,-1
 99.3759765625 337 l 1,4,-1
 113.384765625 356 l 1,5,-1
 126.958984375 347 l 1,6,7
 129.950195312 328 129.950195312 328 132.624023438 307 c 128,-1,8
 135.297851562 286 135.297851562 286 153.705078125 257 c 1,9,10
 202.626953125 206 202.626953125 206 270.626953125 206 c 0,11,12
 345.626953125 206 345.626953125 206 395.90234375 283.5 c 128,-1,13
 446.176757812 361 446.176757812 361 473.260742188 532 c 2,14,-1
 594.107421875 1295 l 1,15,-1
 368.107421875 1295 l 1,16,-1
 402.319335938 1511 l 1,17,-1
 1035.31933594 1511 l 1,18,-1
 1001.10742188 1295 l 1,19,-1
 824.107421875 1295 l 1,20,-1
 700.409179688 514 l 2,21,22
 699.34765625 506.822265625 699.34765625 506.822265625 698.2265625 499.744140625 c 0,23,24
 669.358398438 317.4765625 669.358398438 317.4765625 601.334960938 201 c 0,25,26
 530.670898438 80 530.670898438 80 438.142578125 23 c 128,-1,27
 345.615234375 -34 345.615234375 -34 249.615234375 -34 c 0,0,1
EndSplineSet
EndChar

StartChar: K
Encoding: 75 75 96
Width: 960
VWidth: 2424
GlyphClass: 1
Flags: HW
LayerCount: 2
Fore
SplineSet
333.750976562 674 m 1,0,-1
 241.903320312 555 l 1,1,-1
 156 0 l 1,2,-1
 -62 0 l 1,3,-1
 177.319335938 1511 l 1,4,-1
 412.319335938 1511 l 1,5,-1
 408.67578125 1488 l 1,6,7
 394.458984375 1474 394.458984375 1474 389.345703125 1457.5 c 128,-1,8
 384.232421875 1441 384.232421875 1441 377.580078125 1399 c 2,9,-1
 298.545898438 900 l 1,10,-1
 775.061523438 1522 l 1,11,12
 804.26953125 1517 804.26953125 1517 849.793945312 1514 c 128,-1,13
 895.319335938 1511 895.319335938 1511 920.319335938 1511 c 2,14,-1
 1012.31933594 1511 l 1,15,-1
 518.477539062 868 l 1,16,-1
 796 0 l 1,17,-1
 547.57421875 -9 l 1,18,-1
 333.750976562 674 l 1,0,-1
EndSplineSet
EndChar

StartChar: uni0198
Encoding: 408 408 98
Width: 922
VWidth: 2424
GlyphClass: 1
Flags: HW
LayerCount: 2
Fore
SplineSet
177.319335938 1511 m 1,0,-1
 424.319335938 1511 l 1,1,-1
 420.67578125 1488 l 1,2,3
 407.458984375 1474 407.458984375 1474 401.845703125 1457.5 c 128,-1,4
 396.232421875 1441 396.232421875 1441 389.580078125 1399 c 2,5,-1
 317.040039062 941 l 1,6,7
 461.092773438 1156 461.092773438 1156 566.786132812 1283.5 c 128,-1,8
 672.48046875 1411 672.48046875 1411 756.770507812 1466.5 c 128,-1,9
 841.061523438 1522 841.061523438 1522 926.061523438 1522 c 0,10,11
 957.061523438 1522 957.061523438 1522 984.190429688 1516.5 c 128,-1,12
 1011.31933594 1511 1011.31933594 1511 1024.94335938 1496 c 1,13,-1
 987.505859375 1247 l 1,14,-1
 983.862304688 1224 l 1,15,-1
 963.862304688 1224 l 1,16,17
 955.080078125 1238 955.080078125 1238 945.217773438 1251.5 c 128,-1,18
 935.356445312 1265 935.356445312 1265 906.940429688 1275 c 0,19,20
 901.256835938 1277 901.256835938 1277 883.256835938 1277 c 0,21,22
 842.256835938 1277 842.256835938 1277 790.713867188 1242 c 128,-1,23
 739.169921875 1207 739.169921875 1207 667.182617188 1125 c 128,-1,24
 595.1953125 1043 595.1953125 1043 492.071289062 897 c 1,25,-1
 796.31640625 2 l 1,26,-1
 544.099609375 -12 l 1,27,-1
 323.05859375 657 l 1,28,29
 289.297851562 608 289.297851562 608 255.586914062 553 c 1,30,-1
 168 0 l 1,31,-1
 -62 0 l 1,32,-1
 177.319335938 1511 l 1,0,-1
EndSplineSet
EndChar

StartChar: L
Encoding: 76 76 99
Width: 922
VWidth: 2424
GlyphClass: 2
Flags: HW
AnchorPoint: "Anchor-4" 191.738 756 basechar 0
AnchorPoint: "Anchor-2" 353 0 basechar 0
AnchorPoint: "Anchor-1" 418.391 1120 basechar 0
AnchorPoint: "Anchor-0" 542.319 1511 basechar 0
LayerCount: 2
Fore
SplineSet
177.319335938 1511 m 1,0,-1
 449.319335938 1511 l 1,1,-1
 445.67578125 1488 l 1,2,3
 429.458984375 1474 429.458984375 1474 424.345703125 1457.5 c 128,-1,4
 419.232421875 1441 419.232421875 1441 412.580078125 1399 c 2,5,-1
 225.52734375 218 l 1,6,-1
 830.52734375 218 l 1,7,-1
 796 0 l 1,8,-1
 -62 0 l 1,9,-1
 177.319335938 1511 l 1,0,-1
EndSplineSet
EndChar

StartChar: uni01C7
Encoding: 455 455 100
Width: 886
VWidth: 2338
GlyphClass: 1
Flags: HW
LayerCount: 2
Fore
SplineSet
-39.66796875 141 m 1,0,-1
 177.319335938 1511 l 1,1,-1
 425.319335938 1511 l 1,2,3
 422.943359375 1496 422.943359375 1496 417.809570312 1492 c 128,-1,4
 412.67578125 1488 412.67578125 1488 407.171875 1478.5 c 128,-1,5
 401.666992188 1469 401.666992188 1469 395.96484375 1433 c 2,6,-1
 221.900390625 334 l 1,7,-1
 458.900390625 334 l 1,8,-1
 428.33203125 141 l 1,9,-1
 -39.66796875 141 l 1,0,-1
367.037109375 -246 m 0,10,11
 197.037109375 -246 197.037109375 -246 111.578125 -110 c 1,12,-1
 274.344726562 59 l 1,13,14
 292.334960938 40 292.334960938 40 287.171875 29.5 c 128,-1,15
 282.009765625 19 282.009765625 19 296.68359375 -2 c 0,16,17
 306.990234375 -19 306.990234375 -19 330.139648438 -37 c 128,-1,18
 353.2890625 -55 353.2890625 -55 395.2890625 -55 c 0,19,20
 460.2890625 -55 460.2890625 -55 503.4296875 18.5 c 128,-1,21
 546.571289062 92 546.571289062 92 573.497070312 262 c 2,22,-1
 740.909179688 1319 l 1,23,-1
 549.909179688 1319 l 1,24,-1
 580.319335938 1511 l 1,25,-1
 999.319335938 1511 l 1,26,-1
 797.853515625 239 l 2,27,28
 770.294921875 65 770.294921875 65 706.505859375 -41 c 128,-1,29
 642.717773438 -147 642.717773438 -147 554.377929688 -196.5 c 128,-1,30
 466.037109375 -246 466.037109375 -246 367.037109375 -246 c 0,10,11
EndSplineSet
EndChar

StartChar: Lcaron
Encoding: 317 317 102
Width: 922
VWidth: 2424
GlyphClass: 2
Flags: HW
AnchorPoint: "Anchor-4" 191.738 756 basechar 0
AnchorPoint: "Anchor-2" 353 0 basechar 0
AnchorPoint: "Anchor-1" 418.391 1120 basechar 0
AnchorPoint: "Anchor-0" 542.319 1511 basechar 0
LayerCount: 2
Fore
SplineSet
177.319335938 1511 m 1,0,-1
 449.319335938 1511 l 1,1,-1
 445.67578125 1488 l 1,2,3
 429.458984375 1474 429.458984375 1474 424.345703125 1457.5 c 128,-1,4
 419.232421875 1441 419.232421875 1441 412.580078125 1399 c 2,5,-1
 225.52734375 218 l 1,6,-1
 830.52734375 218 l 1,7,-1
 796 0 l 1,8,-1
 -62 0 l 1,9,-1
 177.319335938 1511 l 1,0,-1
708.6328125 970 m 1,10,-1
 611.887695312 1060 l 1,11,12
 669.96484375 1111 669.96484375 1111 703.963867188 1161.5 c 128,-1,13
 737.961914062 1212 737.961914062 1212 743.505859375 1247 c 0,14,15
 748.256835938 1277 748.256835938 1277 731.478515625 1300.5 c 128,-1,16
 714.701171875 1324 714.701171875 1324 700.056640625 1351.5 c 128,-1,17
 685.412109375 1379 685.412109375 1379 692.380859375 1423 c 0,18,19
 701.883789062 1483 701.883789062 1483 747.848632812 1517.5 c 128,-1,20
 793.8125 1552 793.8125 1552 848.8125 1552 c 0,21,22
 912.8125 1552 912.8125 1552 946.97265625 1502.5 c 128,-1,23
 981.1328125 1453 981.1328125 1453 967.986328125 1370 c 0,24,25
 937.685546875 1185 937.685546875 1185 708.6328125 970 c 1,10,-1
EndSplineSet
EndChar

StartChar: uni01C8
Encoding: 456 456 106
Width: 870
VWidth: 2352
GlyphClass: 1
Flags: HW
LayerCount: 2
Fore
SplineSet
300.037109375 -246 m 0,0,1
 229.037109375 -246 229.037109375 -246 169.892578125 -218.5 c 128,-1,2
 110.749023438 -191 110.749023438 -191 72.142578125 -138 c 1,3,-1
 237.869140625 56 l 1,4,5
 248.734375 43.0908203125 248.734375 43.0908203125 245.1171875 20.251953125 c 0,0,0
 242.17578125 1.681640625 242.17578125 1.681640625 277.881835938 -26 c 0,7,8
 289.931640625 -32 289.931640625 -32 303.71875 -36.5 c 128,-1,9
 317.505859375 -41 317.505859375 -41 337.505859375 -41 c 0,10,11
 398.505859375 -41 398.505859375 -41 450.7421875 11 c 128,-1,12
 502.978515625 63 502.978515625 63 522.618164062 187 c 2,13,-1
 648.216796875 980 l 1,14,-1
 444.216796875 980 l 1,15,-1
 475.259765625 1176 l 1,16,-1
 904.259765625 1176 l 1,17,-1
 748.884765625 195 l 2,18,19
 724.176757812 39 724.176757812 39 658.734375 -58.5 c 128,-1,20
 593.291992188 -156 593.291992188 -156 500.665039062 -201 c 128,-1,21
 408.037109375 -246 408.037109375 -246 300.037109375 -246 c 0,0,1
-39.0341796875 145 m 1,22,-1
 178.90234375 1521 l 1,23,-1
 423.90234375 1521 l 1,24,25
 420.41796875 1499 420.41796875 1499 411.859375 1486 c 128,-1,26
 403.299804688 1473 403.299804688 1473 398.70703125 1444 c 2,27,-1
 224.642578125 345 l 1,28,-1
 427.642578125 345 l 1,29,-1
 395.965820312 145 l 1,30,-1
 -39.0341796875 145 l 1,22,-1
809.185546875 1346 m 128,-1,32
 750.185546875 1346 750.185546875 1346 713.416992188 1388.5 c 128,-1,33
 676.6484375 1431 676.6484375 1431 685.67578125 1488 c 0,34,35
 695.337890625 1549 695.337890625 1549 744.331054688 1590 c 128,-1,36
 793.325195312 1631 793.325195312 1631 854.325195312 1631 c 0,37,38
 913.325195312 1631 913.325195312 1631 951.172851562 1589 c 128,-1,39
 989.020507812 1547 989.020507812 1547 979.67578125 1488 c 0,40,41
 970.6484375 1431 970.6484375 1431 919.416992188 1388.5 c 128,-1,31
 868.185546875 1346 868.185546875 1346 809.185546875 1346 c 128,-1,32
EndSplineSet
EndChar

StartChar: Lslash
Encoding: 321 321 108
Width: 931
VWidth: 2424
GlyphClass: 1
Flags: HW
LayerCount: 2
Fore
SplineSet
30 0 m 1,0,-1
 114.89453125 536 l 1,1,-1
 5.400390625 495 l 1,2,-1
 41.353515625 722 l 1,3,-1
 151.322265625 766 l 1,4,-1
 269.319335938 1511 l 1,5,-1
 507.319335938 1511 l 1,6,7
 510.52734375 1506 510.52734375 1506 509.735351562 1501 c 0,8,9
 508.309570312 1492 508.309570312 1492 499.48828125 1480.5 c 128,-1,10
 490.666992188 1469 490.666992188 1469 479.698242188 1425 c 1,11,-1
 390.369140625 861 l 1,12,-1
 666.6328125 970 l 2,13,14
 688.741210938 977 688.741210938 977 705.587890625 985.5 c 128,-1,15
 722.434570312 994 722.434570312 994 739.809570312 1009 c 1,16,-1
 699.73828125 756 l 1,17,-1
 354.673828125 623 l 1,18,-1
 290.52734375 218 l 1,19,-1
 819.52734375 218 l 1,20,-1
 785 0 l 1,21,-1
 30 0 l 1,0,-1
EndSplineSet
EndChar

StartChar: M
Encoding: 77 77 109
Width: 922
VWidth: 2424
GlyphClass: 2
Flags: HW
AnchorPoint: "Anchor-2" 363 0 basechar 0
AnchorPoint: "Anchor-0" 602.319 1511 basechar 0
LayerCount: 2
Fore
SplineSet
-62 0 m 1,0,-1
 177.319335938 1511 l 1,1,-1
 373.319335938 1511 l 1,2,-1
 501.993164062 846 l 1,3,-1
 840.635742188 1513 l 1,4,-1
 1035.63574219 1513 l 1,5,-1
 796 0 l 1,6,-1
 601 0 l 1,7,-1
 767.303710938 1050 l 1,8,-1
 491.934570312 511 l 1,9,-1
 389.934570312 511 l 1,10,-1
 297.51171875 1045 l 1,11,-1
 132 0 l 1,12,-1
 -62 0 l 1,0,-1
EndSplineSet
EndChar

StartChar: N
Encoding: 78 78 111
Width: 922
VWidth: 2424
GlyphClass: 2
Flags: HW
AnchorPoint: "Anchor-2" 359 0 basechar 0
AnchorPoint: "Anchor-0" 598.319 1511 basechar 0
LayerCount: 2
Fore
SplineSet
177.319335938 1511 m 1,0,-1
 412.319335938 1511 l 1,1,-1
 668.89453125 536 l 1,2,-1
 811.319335938 1511 l 1,3,-1
 1035.31933594 1511 l 1,4,-1
 1031.67578125 1488 l 1,5,6
 1016.45898438 1474 1016.45898438 1474 1011.84570312 1457.5 c 128,-1,7
 1007.23242188 1441 1007.23242188 1441 1000.58007812 1399 c 2,8,-1
 779 0 l 1,9,-1
 570 0 l 1,10,-1
 308.403320312 1038 l 1,11,-1
 144 0 l 1,12,-1
 -62 0 l 1,13,-1
 177.319335938 1511 l 1,0,-1
EndSplineSet
EndChar

StartChar: Eng
Encoding: 330 330 117
Width: 906
VWidth: 2317
GlyphClass: 2
Flags: HW
AnchorPoint: "Anchor-2" 379.559 174 basechar 0
AnchorPoint: "Anchor-0" 601.319 1511 basechar 0
LayerCount: 2
Fore
SplineSet
814.319335938 1511 m 1,0,-1
 1019.31933594 1511 l 1,1,2
 1015.20117188 1485 1015.20117188 1485 1006.66699219 1469 c 128,-1,3
 998.1328125 1453 998.1328125 1453 993.698242188 1425 c 2,4,-1
 795.55859375 174 l 2,5,6
 762.931640625 -32 762.931640625 -32 655.484375 -139 c 128,-1,7
 548.037109375 -246 548.037109375 -246 420.037109375 -246 c 0,8,9
 309.037109375 -246 309.037109375 -246 211.866210938 -165 c 1,10,-1
 339.80078125 24 l 1,11,12
 360.484375 22 360.484375 22 367.108398438 7 c 128,-1,13
 373.733398438 -8 373.733398438 -8 387.278320312 -23.5 c 128,-1,14
 400.823242188 -39 400.823242188 -39 439.823242188 -39 c 0,15,16
 559.823242188 -39 559.823242188 -39 595.142578125 184 c 1,17,-1
 312.114257812 1093 l 1,18,-1
 166.55859375 174 l 1,19,-1
 -34.44140625 174 l 1,20,-1
 177.319335938 1511 l 1,21,-1
 400.319335938 1511 l 1,22,-1
 677.791015625 649 l 1,23,-1
 814.319335938 1511 l 1,0,-1
EndSplineSet
EndChar

StartChar: O
Encoding: 79 79 120
Width: 918
VWidth: 2424
GlyphClass: 2
Flags: HW
AnchorPoint: "Anchor-4" 484.738 756 basechar 0
AnchorPoint: "Anchor-3" 427.068 32 basechar 0
AnchorPoint: "Anchor-2" 367 0 basechar 0
AnchorPoint: "Anchor-1" 870.688 1406 basechar 0
AnchorPoint: "Anchor-0" 606.952 1515 basechar 0
LayerCount: 2
Fore
SplineSet
396.618164062 187 m 128,-1,1
 498.618164062 187 498.618164062 187 576.920898438 321.5 c 128,-1,2
 655.223632812 456 655.223632812 456 702.421875 754 c 0,3,4
 747.0859375 1036 747.0859375 1036 712.1015625 1175 c 128,-1,5
 677.1171875 1314 677.1171875 1314 575.1171875 1314 c 128,-1,6
 473.1171875 1314 473.1171875 1314 394.022460938 1174.5 c 128,-1,7
 314.927734375 1035 314.927734375 1035 270.421875 754 c 0,8,9
 223.223632812 456 223.223632812 456 258.920898438 321.5 c 128,-1,0
 294.618164062 187 294.618164062 187 396.618164062 187 c 128,-1,1
362.723632812 -27 m 0,10,11
 -66.2763671875 -27 -66.2763671875 -27 57.10546875 752 c 0,12,13
 117.924804688 1136 117.924804688 1136 258.046875 1332.5 c 128,-1,14
 398.169921875 1529 398.169921875 1529 609.169921875 1529 c 128,-1,15
 820.169921875 1529 820.169921875 1529 897.888671875 1331.5 c 128,-1,16
 975.608398438 1134 975.608398438 1134 915.10546875 752 c 0,17,18
 853.176757812 361 853.176757812 361 713.291992188 166 c 0,19,20
 574.827148438 -27.0205078125 574.827148438 -27.0205078125 366.994140625 -27.0205078125 c 0,21,22
 364.862304688 -27.0205078125 364.862304688 -27.0205078125 362.723632812 -27 c 0,10,11
EndSplineSet
Substitution2: "Single Substitution lookup 29 subtable" ordmasculine
Substitution2: "'aalt' Access All Alternates in Latin lookup 0 subtable" ordmasculine
EndChar

StartChar: Oslash
Encoding: 216 216 148
Width: 918
VWidth: 2424
GlyphClass: 2
Flags: HW
AnchorPoint: "Anchor-4" 484.738 756 basechar 0
AnchorPoint: "Anchor-3" 427.068 32 basechar 0
AnchorPoint: "Anchor-2" 367 0 basechar 0
AnchorPoint: "Anchor-1" 870.688 1406 basechar 0
AnchorPoint: "Anchor-0" 606.952 1515 basechar 0
LayerCount: 2
Fore
SplineSet
396.618164062 187 m 0,0,1
 498.618164062 187 498.618164062 187 576.920898438 321.5 c 128,-1,2
 655.223632812 456 655.223632812 456 702.421875 754 c 0,3,4
 733.624023438 951 733.624023438 951 723.73828125 1078 c 1,5,-1
 274.921875 271 l 1,6,7
 312.618164062 187 312.618164062 187 396.618164062 187 c 0,0,1
270.421875 754 m 0,8,9
 242.86328125 580 242.86328125 580 244.540039062 458 c 1,10,-1
 685.505859375 1247 l 1,11,12
 647.1171875 1314 647.1171875 1314 575.1171875 1314 c 0,13,14
 473.1171875 1314 473.1171875 1314 394.1015625 1175 c 128,-1,15
 315.0859375 1036 315.0859375 1036 270.421875 754 c 0,8,9
50.568359375 -129 m 1,16,-1
 -48.294921875 -65 l 1,17,-1
 77.8662109375 157 l 1,18,19
 -5.931640625 354 -5.931640625 354 57.10546875 752 c 0,20,21
 117.924804688 1136 117.924804688 1136 258.046875 1332.5 c 128,-1,22
 398.169921875 1529 398.169921875 1529 609.169921875 1529 c 0,23,24
 730.169921875 1529 730.169921875 1529 805.875 1464 c 1,25,-1
 911.967773438 1654 l 1,26,-1
 1008.35644531 1587 l 1,27,-1
 885.194335938 1365 l 1,28,29
 980.993164062 1168 980.993164062 1168 915.10546875 752 c 0,30,31
 853.176757812 361 853.176757812 361 713.212890625 165.5 c 0,32,33
 575.364257812 -27.044921875 575.364257812 -27.044921875 369.071289062 -27.044921875 c 0,34,35
 365.905273438 -27.044921875 365.905273438 -27.044921875 362.723632812 -27 c 0,36,37
 231.723632812 -27 231.723632812 -27 150.760742188 49 c 1,38,-1
 50.568359375 -129 l 1,16,-1
EndSplineSet
EndChar

StartChar: OE
Encoding: 338 338 154
Width: 856
VWidth: 2424
GlyphClass: 1
Flags: HW
LayerCount: 2
Fore
SplineSet
250.626953125 206 m 0,0,1
 283.626953125 206 283.626953125 206 308.908203125 242.5 c 128,-1,2
 334.189453125 279 334.189453125 279 350.484375 344 c 1,3,-1
 479.567382812 1159 l 1,4,5
 480.654296875 1229 480.654296875 1229 466.043945312 1272.5 c 128,-1,6
 451.43359375 1316 451.43359375 1316 412.43359375 1316 c 0,7,8
 379.43359375 1316 379.43359375 1316 344.751953125 1267.5 c 128,-1,9
 310.0703125 1219 310.0703125 1219 275.90625 1098 c 128,-1,10
 241.741210938 977 241.741210938 977 207.213867188 759 c 0,11,12
 164.291992188 488 164.291992188 488 172.458984375 347 c 128,-1,13
 180.626953125 206 180.626953125 206 250.626953125 206 c 0,0,1
190.307617188 -17 m 0,14,15
 56.3076171875 -17 56.3076171875 -17 1.3955078125 163.5 c 128,-1,16
 -53.515625 344 -53.515625 344 11.73828125 756 c 0,17,18
 74.775390625 1154 74.775390625 1154 184.709960938 1343 c 128,-1,19
 294.64453125 1532 294.64453125 1532 441.64453125 1532 c 0,20,21
 467.64453125 1532 467.64453125 1532 493.690429688 1516.5 c 128,-1,22
 519.735351562 1501 519.735351562 1501 537.983398438 1471 c 1,23,-1
 544.635742188 1513 l 1,24,-1
 989.635742188 1513 l 1,25,-1
 955.899414062 1300 l 1,26,-1
 690.899414062 1300 l 1,27,-1
 626.75390625 895 l 1,28,-1
 850.75390625 895 l 1,29,-1
 816.384765625 678 l 1,30,-1
 592.384765625 678 l 1,31,-1
 518.736328125 213 l 1,32,-1
 779.736328125 213 l 1,33,-1
 746 0 l 1,34,-1
 303 0 l 1,35,-1
 309.494140625 41 l 1,36,37
 253.307617188 -17 253.307617188 -17 190.307617188 -17 c 0,14,15
EndSplineSet
EndChar

StartChar: P
Encoding: 80 80 155
Width: 922
VWidth: 2424
GlyphClass: 2
Flags: HW
AnchorPoint: "Anchor-2" 204 0 basechar 0
AnchorPoint: "Anchor-0" 587.319 1511 basechar 0
LayerCount: 2
Fore
SplineSet
312.260742188 854 m 1,0,-1
 494.260742188 854 l 2,1,2
 589.260742188 854 589.260742188 854 649.10546875 913 c 128,-1,3
 708.94921875 972 708.94921875 972 723.99609375 1067 c 0,4,5
 739.67578125 1166 739.67578125 1166 698.362304688 1224 c 128,-1,6
 657.048828125 1282 657.048828125 1282 565.048828125 1282 c 2,7,-1
 380.048828125 1282 l 1,8,-1
 312.260742188 854 l 1,0,-1
-62 0 m 1,9,-1
 177.319335938 1511 l 1,10,-1
 605.319335938 1511 l 2,11,12
 824.319335938 1511 824.319335938 1511 909.783203125 1384.5 c 128,-1,13
 995.248046875 1258 995.248046875 1258 965.3125 1069 c 0,14,15
 935.6953125 882 935.6953125 882 811.4765625 757.5 c 128,-1,16
 687.2578125 633 687.2578125 633 475.2578125 633 c 2,17,-1
 277.2578125 633 l 1,18,-1
 177 0 l 1,19,-1
 -62 0 l 1,9,-1
EndSplineSet
EndChar

StartChar: Thorn
Encoding: 222 222 156
Width: 922
VWidth: 2424
GlyphClass: 1
Flags: HW
LayerCount: 2
Fore
SplineSet
267.595703125 572 m 1,0,1
 268.595703125 572 268.595703125 572 452.595703125 572 c 0,2,3
 555.595703125 572 555.595703125 572 612.57421875 635 c 0,4,5
 669.552734375 698 669.552734375 698 684.598632812 793 c 0,6,7
 698.853515625 883 698.853515625 883 662.098632812 954 c 0,8,9
 625.34375 1025 625.34375 1025 521.34375 1025 c 2,10,-1
 341.34375 1025 l 1,11,-1
 267.595703125 572 l 1,0,1
-62 0 m 1,12,-1
 177.319335938 1511 l 1,13,-1
 432.319335938 1511 l 1,14,15
 435.52734375 1506 435.52734375 1506 435.735351562 1501 c 0,16,17
 434.309570312 1492 434.309570312 1492 424.409179688 1480 c 0,18,19
 414.508789062 1468 414.508789062 1468 405.806640625 1432 c 2,20,-1
 376.030273438 1244 l 1,21,-1
 565.030273438 1244 l 2,22,23
 715.030273438 1244 715.030273438 1244 799.52734375 1184 c 0,24,25
 884.024414062 1124 884.024414062 1124 913.185546875 1024 c 0,26,27
 942.188476562 923 942.188476562 923 922.390625 798 c 0,28,29
 892.456054688 609 892.456054688 609 771.658203125 484 c 0,30,31
 650.860351562 359 650.860351562 359 431.860351562 359 c 2,32,-1
 233.860351562 359 l 1,33,-1
 177 0 l 1,34,-1
 -62 0 l 1,12,-1
EndSplineSet
EndChar

StartChar: Q
Encoding: 81 81 157
Width: 927
VWidth: 2372
GlyphClass: 2
Flags: HW
AnchorPoint: "Anchor-2" 378.621 86 basechar 0
AnchorPoint: "Anchor-0" 604.478 1512 basechar 0
LayerCount: 2
Fore
SplineSet
413.2890625 267 m 0,0,1
 500.2890625 267 500.2890625 267 583.13671875 386 c 128,-1,2
 665.984375 505 665.984375 505 709.540039062 780 c 0,3,4
 742.166992188 986 742.166992188 986 729.83203125 1107 c 128,-1,5
 717.49609375 1228 717.49609375 1228 675.994140625 1278.5 c 128,-1,6
 634.493164062 1329 634.493164062 1329 579.493164062 1329 c 0,7,8
 476.493164062 1329 476.493164062 1329 397.665039062 1197.5 c 128,-1,9
 318.837890625 1066 318.837890625 1066 279.875 820 c 0,10,11
 235.685546875 541 235.685546875 541 273.987304688 404 c 128,-1,12
 312.2890625 267 312.2890625 267 413.2890625 267 c 0,0,1
569.037109375 -246 m 1,13,14
 559.237304688 -246.220703125 559.237304688 -246.220703125 549.774414062 -246.220703125 c 0,15,16
 387.7265625 -246.220703125 387.7265625 -246.220703125 324.752929688 -181.5 c 0,17,18
 258.102539062 -113 258.102539062 -113 283.5625 73 c 1,19,20
 139.055664062 114 139.055664062 114 76.14453125 294.5 c 128,-1,21
 13.232421875 475 13.232421875 475 64.07421875 796 c 0,22,23
 107.629882812 1071 107.629882812 1071 193.05078125 1231.5 c 128,-1,24
 278.470703125 1392 278.470703125 1392 387.057617188 1462 c 128,-1,25
 495.64453125 1532 495.64453125 1532 609.64453125 1532 c 0,26,27
 731.64453125 1532 731.64453125 1532 817.50390625 1458.5 c 128,-1,28
 903.362304688 1385 903.362304688 1385 933.862304688 1224 c 128,-1,29
 964.362304688 1063 964.362304688 1063 922.390625 798 c 0,30,31
 868.064453125 455 868.064453125 455 753.71875 285.5 c 128,-1,32
 639.373046875 116 639.373046875 116 485.87890625 75 c 1,33,34
 478.534179688 16 478.534179688 16 495.728515625 -17.5 c 0,35,36
 511.954101562 -49.1123046875 511.954101562 -49.1123046875 563.017578125 -49.1123046875 c 0,37,38
 566.06640625 -49.1123046875 566.06640625 -49.1123046875 569.239257812 -49 c 2,39,-1
 719.665039062 -40 l 1,40,-1
 680.037109375 -246 l 1,41,-1
 569.037109375 -246 l 1,13,14
EndSplineSet
EndChar

StartChar: R
Encoding: 82 82 158
Width: 922
VWidth: 2424
GlyphClass: 2
Flags: HW
AnchorPoint: "Anchor-2" 344 0 basechar 0
AnchorPoint: "Anchor-0" 583.319 1511 basechar 0
LayerCount: 2
Fore
SplineSet
306.46875 849 m 1,0,-1
 476.46875 849 l 2,1,2
 661.46875 849 661.46875 849 695.521484375 1064 c 0,3,4
 710.884765625 1161 710.884765625 1161 672.966796875 1221.5 c 128,-1,5
 635.048828125 1282 635.048828125 1282 545.048828125 1282 c 2,6,-1
 375.048828125 1282 l 1,7,-1
 306.46875 849 l 1,0,-1
-62 0 m 1,8,-1
 177.319335938 1511 l 1,9,-1
 565.319335938 1511 l 2,10,11
 790.319335938 1511 790.319335938 1511 877.470703125 1392 c 128,-1,12
 964.623046875 1273 964.623046875 1273 932.3125 1069 c 0,13,14
 910.297851562 930 910.297851562 930 829.321289062 816.5 c 128,-1,15
 748.344726562 703 748.344726562 703 635.05859375 657 c 1,16,-1
 796 0 l 1,17,-1
 557 0 l 1,18,-1
 407.782226562 630 l 1,19,-1
 271.782226562 630 l 1,20,-1
 172 0 l 1,21,-1
 -62 0 l 1,8,-1
EndSplineSet
EndChar

StartChar: S
Encoding: 83 83 166
Width: 922
VWidth: 2424
GlyphClass: 2
Flags: HW
AnchorPoint: "Anchor-2" 374 0 basechar 0
AnchorPoint: "Anchor-0" 620.319 1511 basechar 0
LayerCount: 2
Fore
SplineSet
348.723632812 -27 m 0,0,1
 221.723632812 -27 221.723632812 -27 121.455078125 15.5 c 128,-1,2
 21.1865234375 58 21.1865234375 58 -38.8759765625 146 c 1,3,-1
 106.760742188 371 l 1,4,-1
 117.928710938 391 l 1,5,-1
 136.344726562 381 l 1,6,7
 140.334960938 362 140.334960938 362 142.508789062 341 c 128,-1,8
 144.682617188 320 144.682617188 320 164.08984375 291 c 1,9,10
 206.12109375 247 206.12109375 247 261.923828125 220.5 c 128,-1,11
 317.7265625 194 317.7265625 194 387.7265625 194 c 0,12,13
 480.7265625 194 480.7265625 194 546.462890625 246 c 128,-1,14
 612.198242188 298 612.198242188 298 628.037109375 398 c 0,15,16
 636.114257812 449 636.114257812 449 626.00390625 492.5 c 128,-1,17
 615.89453125 536 615.89453125 536 571.942382812 580.5 c 128,-1,18
 527.990234375 625 527.990234375 625 434.859375 681 c 0,19,20
 259.540039062 780 259.540039062 780 202.487304688 887 c 128,-1,21
 145.434570312 994 145.434570312 994 169.666992188 1147 c 0,22,23
 187.72265625 1261 187.72265625 1261 252.501953125 1348 c 128,-1,24
 317.28125 1435 317.28125 1435 415.122070312 1484.5 c 128,-1,25
 512.961914062 1534 512.961914062 1534 625.961914062 1534 c 0,26,27
 860.961914062 1534 860.961914062 1534 975.977539062 1351 c 1,28,-1
 821.359375 1164 l 1,29,-1
 806.350585938 1145 l 1,30,-1
 790.567382812 1159 l 1,31,32
 789.259765625 1176 789.259765625 1176 789.165039062 1197.5 c 128,-1,33
 789.0703125 1219 789.0703125 1219 768.822265625 1249 c 0,34,35
 737.31640625 1290 737.31640625 1290 696.375 1303 c 128,-1,36
 655.43359375 1316 655.43359375 1316 597.43359375 1316 c 0,37,38
 517.43359375 1316 517.43359375 1316 463.806640625 1271 c 128,-1,39
 410.1796875 1226 410.1796875 1226 399.250976562 1157 c 0,40,41
 391.172851562 1106 391.172851562 1106 402.100585938 1064.5 c 128,-1,42
 413.02734375 1023 413.02734375 1023 461.137695312 979.5 c 128,-1,43
 509.248046875 936 509.248046875 936 610.5859375 875 c 0,44,45
 724.974609375 808 724.974609375 808 784.021484375 742 c 128,-1,46
 843.068359375 676 843.068359375 676 860.634765625 597.5 c 128,-1,47
 878.201171875 519 878.201171875 519 862.045898438 417 c 0,48,49
 843.673828125 301 843.673828125 301 780.018554688 199 c 128,-1,50
 716.36328125 97 716.36328125 97 607.04296875 35 c 128,-1,51
 497.723632812 -27 497.723632812 -27 348.723632812 -27 c 0,0,1
EndSplineSet
EndChar

StartChar: uni1E9E
Encoding: 7838 7838 177
Width: 922
VWidth: 2424
GlyphClass: 1
Flags: HW
LayerCount: 2
Fore
SplineSet
439.248046875 -30 m 0,0,1
 375.248046875 -30 375.248046875 -30 325.178710938 -11.5 c 128,-1,2
 275.108398438 7 275.108398438 7 240.494140625 41 c 1,3,-1
 342.012695312 240 l 1,4,5
 380.466796875 191.98046875 380.466796875 191.98046875 440.932617188 191.98046875 c 0,0,0
 442.166992188 191.98046875 442.166992188 191.98046875 443.41015625 192 c 0,6,7
 507.41015625 192 507.41015625 192 564.234375 263.5 c 128,-1,8
 621.05859375 335 621.05859375 335 639.748046875 453 c 0,9,10
 651.626953125 528 651.626953125 528 640.842773438 592.5 c 128,-1,11
 630.05859375 657 630.05859375 657 585.235351562 696 c 128,-1,12
 540.412109375 735 540.412109375 735 450.412109375 735 c 2,13,-1
 393.412109375 735 l 1,14,-1
 426.83203125 946 l 1,15,-1
 685.853515625 1205 l 1,16,17
 698.424804688 1297 698.424804688 1297 671.848632812 1356.5 c 128,-1,18
 645.272460938 1416 645.272460938 1416 570.272460938 1416 c 0,19,20
 501.272460938 1416 501.272460938 1416 436.606445312 1345.5 c 128,-1,21
 371.940429688 1275 371.940429688 1275 348.499023438 1127 c 2,22,-1
 170 0 l 1,23,-1
 -62 0 l 1,24,-1
 110.797851562 1091 l 2,25,26
 141.524414062 1285 141.524414062 1285 215.79296875 1403.5 c 128,-1,27
 290.061523438 1522 290.061523438 1522 390.03515625 1575.5 c 128,-1,28
 490.0078125 1629 490.0078125 1629 599.0078125 1629 c 0,29,30
 780.0078125 1629 780.0078125 1629 853.997070312 1499.5 c 128,-1,31
 927.986328125 1370 927.986328125 1370 896.78515625 1173 c 1,32,-1
 639.188476562 923 l 1,33,34
 783.219726562 879 783.219726562 879 838.708984375 749.5 c 128,-1,35
 894.198242188 620 894.198242188 620 865.53125 439 c 0,36,37
 831.002929688 221 831.002929688 221 715.125976562 95.5 c 128,-1,38
 599.248046875 -30 599.248046875 -30 439.248046875 -30 c 0,0,1
EndSplineSet
EndChar

StartChar: T
Encoding: 84 84 179
Width: 922
VWidth: 2424
GlyphClass: 2
Flags: HW
AnchorPoint: "Anchor-4" 477.738 756 basechar 0
AnchorPoint: "Anchor-2" 368 0 basechar 0
AnchorPoint: "Anchor-0" 607.319 1511 basechar 0
LayerCount: 2
Fore
SplineSet
252 0 m 1,0,-1
 455.840820312 1287 l 1,1,-1
 141.840820312 1287 l 1,2,-1
 177.635742188 1513 l 1,3,-1
 1035.63574219 1513 l 1,4,-1
 999.840820312 1287 l 1,5,-1
 668.840820312 1287 l 1,6,-1
 465 0 l 1,7,-1
 252 0 l 1,0,-1
EndSplineSet
EndChar

StartChar: Tbar
Encoding: 358 358 180
Width: 922
VWidth: 2424
GlyphClass: 2
Flags: HW
AnchorPoint: "Anchor-4" 477.738 756 basechar 0
AnchorPoint: "Anchor-2" 368 0 basechar 0
AnchorPoint: "Anchor-0" 607.319 1511 basechar 0
LayerCount: 2
Fore
SplineSet
252 0 m 1,0,-1
 358.750976562 674 l 1,1,-1
 135.750976562 674 l 1,2,-1
 163.78515625 851 l 1,3,-1
 386.78515625 851 l 1,4,-1
 455.840820312 1287 l 1,5,-1
 141.840820312 1287 l 1,6,-1
 177.635742188 1513 l 1,7,-1
 1035.63574219 1513 l 1,8,-1
 999.840820312 1287 l 1,9,-1
 668.840820312 1287 l 1,10,-1
 599.78515625 851 l 1,11,-1
 818.78515625 851 l 1,12,-1
 790.750976562 674 l 1,13,-1
 571.750976562 674 l 1,14,-1
 465 0 l 1,15,-1
 252 0 l 1,0,-1
EndSplineSet
EndChar

StartChar: U
Encoding: 85 85 186
Width: 922
VWidth: 2424
GlyphClass: 2
Flags: HW
AnchorPoint: "Anchor-3" 438.801 24 basechar 0
AnchorPoint: "Anchor-2" 366 0 basechar 0
AnchorPoint: "Anchor-1" 1024.32 1511 basechar 0
AnchorPoint: "Anchor-0" 605.319 1511 basechar 0
LayerCount: 2
Fore
SplineSet
361.248046875 -30 m 0,0,1
 358.349609375 -30.02734375 358.349609375 -30.02734375 355.475585938 -30.02734375 c 0,2,3
 147.76953125 -30.02734375 147.76953125 -30.02734375 63.818359375 112.5 c 0,4,5
 -21.294921875 257 -21.294921875 257 19.7265625 516 c 2,6,-1
 177.319335938 1511 l 1,7,-1
 429.319335938 1511 l 1,8,-1
 425.67578125 1488 l 1,9,10
 412.458984375 1474 412.458984375 1474 406.345703125 1457.5 c 128,-1,11
 400.232421875 1441 400.232421875 1441 393.580078125 1399 c 2,12,-1
 253.409179688 514 l 2,13,14
 228.860351562 359 228.860351562 359 257.081054688 272 c 128,-1,15
 285.30078125 185 285.30078125 185 397.30078125 185 c 0,16,17
 510.30078125 185 510.30078125 185 566.897460938 274 c 128,-1,18
 623.493164062 363 623.493164062 363 648.518554688 521 c 2,19,-1
 805.319335938 1511 l 1,20,-1
 1035.31933594 1511 l 1,21,-1
 878.834960938 523 l 2,22,23
 833.061523438 234 833.061523438 234 695.155273438 102 c 128,-1,24
 557.248046875 -30 557.248046875 -30 361.248046875 -30 c 0,0,1
EndSplineSet
EndChar

StartChar: V
Encoding: 86 86 209
Width: 895
VWidth: 2424
GlyphClass: 2
Flags: HW
AnchorPoint: "Anchor-2" 348 0 basechar 0
AnchorPoint: "Anchor-0" 587.319 1511 basechar 0
LayerCount: 2
Fore
SplineSet
282.208007812 -5 m 1,0,-1
 163.635742188 1513 l 1,1,-1
 373.635742188 1513 l 1,2,-1
 437.33203125 463 l 1,3,-1
 819.319335938 1511 l 1,4,-1
 1021.31933594 1511 l 1,5,-1
 428.208007812 -5 l 1,6,-1
 282.208007812 -5 l 1,0,-1
EndSplineSet
EndChar

StartChar: W
Encoding: 87 87 210
Width: 862
VWidth: 2424
GlyphClass: 2
Flags: HW
AnchorPoint: "Anchor-2" 331 0 basechar 0
AnchorPoint: "Anchor-0" 579.319 1511 basechar 0
LayerCount: 2
Fore
SplineSet
48 0 m 1,0,-1
 141.319335938 1511 l 1,1,-1
 317.319335938 1511 l 1,2,-1
 245.655273438 585 l 1,3,-1
 508.620117188 1374 l 1,4,-1
 615.620117188 1374 l 1,5,-1
 630.971679688 587 l 1,6,-1
 831.319335938 1511 l 1,7,-1
 999.319335938 1511 l 1,8,-1
 617 0 l 1,9,-1
 490 0 l 1,10,-1
 478.545898438 900 l 1,11,-1
 178 0 l 1,12,-1
 48 0 l 1,0,-1
EndSplineSet
EndChar

StartChar: X
Encoding: 88 88 215
Width: 922
VWidth: 2424
GlyphClass: 2
Flags: HW
AnchorPoint: "Anchor-2" 356 0 basechar 0
AnchorPoint: "Anchor-0" 595.319 1511 basechar 0
LayerCount: 2
Fore
SplineSet
-62 0 m 1,0,-1
 363.114257812 771 l 1,1,-1
 181.635742188 1513 l 1,2,-1
 402.635742188 1513 l 1,3,-1
 520.918945312 1016 l 1,4,-1
 788.635742188 1513 l 1,5,-1
 999.635742188 1513 l 1,6,-1
 602.431640625 773 l 1,7,-1
 796 0 l 1,8,-1
 569 0 l 1,9,-1
 442.518554688 521 l 1,10,-1
 159 0 l 1,11,-1
 -62 0 l 1,0,-1
EndSplineSet
EndChar

StartChar: Y
Encoding: 89 89 216
Width: 905
VWidth: 2424
GlyphClass: 2
Flags: HW
AnchorPoint: "Anchor-2" 373 0 basechar 0
AnchorPoint: "Anchor-0" 594.319 1511 basechar 0
LayerCount: 2
Fore
SplineSet
266 0 m 1,0,-1
 358.971679688 587 l 1,1,-1
 169.319335938 1511 l 1,2,-1
 386.319335938 1511 l 1,3,-1
 513.903320312 877 l 1,4,-1
 817.319335938 1511 l 1,5,-1
 1027.31933594 1511 l 1,6,-1
 569.655273438 585 l 1,7,-1
 477 0 l 1,8,-1
 266 0 l 1,0,-1
EndSplineSet
EndChar

StartChar: Z
Encoding: 90 90 226
Width: 922
VWidth: 2424
GlyphClass: 2
Flags: HW
AnchorPoint: "Anchor-2" 387 0 basechar 0
AnchorPoint: "Anchor-0" 610.319 1511 basechar 0
LayerCount: 2
Fore
SplineSet
-36.341796875 162 m 1,0,-1
 700.840820312 1287 l 1,1,-1
 162.840820312 1287 l 1,2,-1
 198.319335938 1511 l 1,3,-1
 1004.31933594 1511 l 1,4,-1
 978.501953125 1348 l 1,5,-1
 251.844726562 220 l 1,6,-1
 729.844726562 220 l 2,7,8
 764.844726562 220 764.844726562 220 782.215820312 225.5 c 128,-1,9
 799.586914062 231 799.586914062 231 814.803710938 245 c 1,10,-1
 834.803710938 245 l 1,11,-1
 796 0 l 1,12,-1
 -62 0 l 1,13,-1
 -36.341796875 162 l 1,0,-1
EndSplineSet
EndChar

StartChar: a
Encoding: 97 97 232
Width: 922
VWidth: 2424
GlyphClass: 2
Flags: HW
AnchorPoint: "Anchor-3" 645 0 basechar 0
AnchorPoint: "Anchor-2" 374 0 basechar 0
AnchorPoint: "Anchor-0" 548.599 1115 basechar 0
LayerCount: 2
Fore
SplineSet
228.31640625 324 m 0,0,1
 215.962890625 246 215.962890625 246 251.577148438 212 c 128,-1,2
 287.192382812 178 287.192382812 178 350.192382812 178 c 0,3,4
 460.192382812 178 460.192382812 178 531.784179688 257.5 c 128,-1,5
 603.375976562 337 603.375976562 337 644.409179688 514 c 1,6,7
 618.409179688 514 618.409179688 514 594.409179688 514 c 128,-1,8
 570.409179688 514 570.409179688 514 550.409179688 514 c 0,9,10
 392.409179688 514 392.409179688 514 317.33203125 463 c 128,-1,11
 242.25390625 412 242.25390625 412 228.31640625 324 c 0,0,1
268.723632812 -27 m 0,12,13
 108.723632812 -27 108.723632812 -27 35.240234375 61.5 c 128,-1,14
 -38.2421875 150 -38.2421875 150 -15.91015625 291 c 0,15,16
 14.0244140625 480 14.0244140625 480 169.421875 593 c 128,-1,17
 324.819335938 706 324.819335938 706 582.819335938 706 c 0,18,19
 621.819335938 706 621.819335938 706 671.02734375 701 c 1,20,21
 681.46875 849 681.46875 849 637.30859375 898.5 c 128,-1,22
 593.1484375 948 593.1484375 948 501.1484375 948 c 0,23,24
 435.1484375 948 435.1484375 948 373.34765625 924 c 128,-1,25
 311.545898438 900 311.545898438 900 244.567382812 837 c 1,26,-1
 140.1171875 992 l 1,27,28
 234.580078125 1077 234.580078125 1077 338.177734375 1115.5 c 128,-1,29
 441.775390625 1154 441.775390625 1154 546.775390625 1154 c 0,30,31
 670.775390625 1154 670.775390625 1154 761.6484375 1109 c 128,-1,32
 852.521484375 1064 852.521484375 1064 890.940429688 953 c 128,-1,33
 929.359375 842 929.359375 842 897.048828125 638 c 2,34,-1
 796 0 l 1,35,-1
 550 0 l 1,36,-1
 568.689453125 118 l 1,37,38
 502.54296875 35 502.54296875 35 429.133789062 4 c 128,-1,39
 355.723632812 -27 355.723632812 -27 268.723632812 -27 c 0,12,13
EndSplineSet
Substitution2: "Single Substitution lookup 29 subtable" ordfeminine
Substitution2: "'aalt' Access All Alternates in Latin lookup 0 subtable" ordfeminine
EndChar

StartChar: ae
Encoding: 230 230 257
Width: 832
VWidth: 2424
GlyphClass: 1
Flags: HW
LayerCount: 2
Fore
SplineSet
162.450195312 167 m 0,0,1
 217.450195312 167 217.450195312 167 250.095703125 250 c 128,-1,2
 282.7421875 333 282.7421875 333 311.409179688 514 c 1,3,4
 210.618164062 509 210.618164062 509 162.08984375 452 c 128,-1,5
 113.561523438 395 113.561523438 395 100.099609375 310 c 0,6,7
 78.4501953125 167 78.4501953125 167 162.450195312 167 c 0,0,1
500.453125 710 m 1,8,-1
 697.561523438 717 l 1,9,10
 716.7265625 838 716.7265625 838 699.729492188 898 c 128,-1,11
 682.732421875 958 682.732421875 958 638.732421875 958 c 0,12,13
 596.732421875 958 596.732421875 958 557.779296875 892 c 128,-1,14
 518.825195312 826 518.825195312 826 500.453125 710 c 1,8,-1
121.248046875 -30 m 0,15,16
 17.248046875 -30 17.248046875 -30 -39.6552734375 59 c 128,-1,17
 -96.5595703125 148 -96.5595703125 148 -70.900390625 310 c 0,18,19
 -42.7080078125 488 -42.7080078125 488 64.8671875 589.5 c 128,-1,20
 172.443359375 691 172.443359375 691 337.02734375 701 c 1,21,22
 356.825195312 826 356.825195312 826 336.279296875 892 c 128,-1,23
 315.732421875 958 315.732421875 958 268.732421875 958 c 0,24,25
 200.732421875 958 200.732421875 958 130.260742188 854 c 1,26,-1
 66.017578125 1004 l 1,27,28
 172.413085938 1149.00683594 172.413085938 1149.00683594 316.014648438 1149.00683594 c 0,29,30
 316.998046875 1149.00683594 316.998046875 1149.00683594 317.983398438 1149 c 0,31,32
 374.983398438 1149 374.983398438 1149 421.990234375 1108 c 128,-1,33
 468.99609375 1067 468.99609375 1067 482.443359375 1013 c 1,34,35
 516.629882812 1071 516.629882812 1071 568.306640625 1110 c 128,-1,36
 619.983398438 1149 619.983398438 1149 668.983398438 1149 c 0,37,38
 793.983398438 1149 793.983398438 1149 831.077148438 1017 c 128,-1,39
 868.169921875 885 868.169921875 885 831.266601562 652 c 2,40,-1
 814.477539062 546 l 1,41,-1
 471.310546875 526 l 1,42,-1
 455.947265625 429 l 2,43,44
 437.2578125 311 437.2578125 311 461.958007812 236.5 c 128,-1,45
 486.658203125 162 486.658203125 162 551.658203125 162 c 0,46,47
 626.658203125 162 626.658203125 162 692.497070312 262 c 1,48,-1
 756.055664062 114 l 1,49,50
 643.407226562 -29 643.407226562 -29 511.248046875 -30 c 0,51,52
 452.248046875 -30 452.248046875 -30 405.266601562 8 c 128,-1,53
 358.286132812 46 358.286132812 46 335.055664062 114 c 1,54,55
 293.760742188 49 293.760742188 49 235.004882812 9.5 c 128,-1,56
 176.248046875 -30 176.248046875 -30 121.248046875 -30 c 0,15,16
EndSplineSet
EndChar

StartChar: b
Encoding: 98 98 259
Width: 922
VWidth: 2424
GlyphClass: 2
Flags: HW
AnchorPoint: "Anchor-2" 423 0 basechar 0
AnchorPoint: "Anchor-0" 600.391 1120 basechar 0
LayerCount: 2
Fore
SplineSet
388.508789062 180 m 0,0,1
 444.508789062 180 444.508789062 180 495.815429688 213.5 c 128,-1,2
 547.12109375 247 547.12109375 247 587.6875 329.5 c 128,-1,3
 628.25390625 412 628.25390625 412 650.903320312 555 c 0,4,5
 682.73828125 756 682.73828125 756 646.33984375 854.5 c 128,-1,6
 609.940429688 953 609.940429688 953 515.940429688 953 c 0,7,8
 428.940429688 953 428.940429688 953 361.680664062 853.5 c 128,-1,9
 294.421875 754 294.421875 754 264.803710938 567 c 0,10,11
 263.793945312 560.921875 263.793945312 560.921875 262.846679688 554.938476562 c 0,12,13
 203.461914062 180 203.461914062 180 388.508789062 180 c 0,0,1
402.723632812 -27 m 0,14,15
 326.723632812 -27 326.723632812 -27 267.2421875 11 c 128,-1,16
 207.760742188 49 207.760742188 49 174.797851562 125 c 1,17,-1
 119 0 l 1,18,-1
 -62 0 l 1,19,-1
 195.216796875 1624 l 1,20,-1
 449.216796875 1624 l 1,21,-1
 445.890625 1603 l 1,22,23
 430.672851562 1589 430.672851562 1589 424.743164062 1570.5 c 128,-1,24
 418.8125 1552 418.8125 1552 412.635742188 1513 c 2,25,-1
 330.909179688 997 l 1,26,27
 382.788085938 1072 382.788085938 1072 456.51953125 1114.5 c 0,28,29
 525.389648438 1154.19824219 525.389648438 1154.19824219 593.20703125 1154.19824219 c 0,30,31
 597.994140625 1154.19824219 597.994140625 1154.19824219 602.775390625 1154 c 0,32,33
 772.775390625 1154 772.775390625 1154 854.077148438 1017 c 128,-1,34
 935.377929688 880 935.377929688 880 887.705078125 579 c 0,35,36
 853.65234375 364 853.65234375 364 778.849609375 229.5 c 128,-1,37
 704.046875 95 704.046875 95 604.884765625 34 c 128,-1,38
 505.723632812 -27 505.723632812 -27 402.723632812 -27 c 0,14,15
EndSplineSet
EndChar

StartChar: c
Encoding: 99 99 261
Width: 922
VWidth: 2424
GlyphClass: 2
Flags: HW
AnchorPoint: "Anchor-2" 416 0 basechar 0
AnchorPoint: "Anchor-0" 594.183 1125 basechar 0
LayerCount: 2
Fore
SplineSet
415.723632812 -27 m 0,0,1
 276.723632812 -27 276.723632812 -27 178.547851562 44.5 c 128,-1,2
 80.373046875 116 80.373046875 116 39.12109375 247 c 128,-1,3
 -2.130859375 378 -2.130859375 378 25.9033203125 555 c 0,4,5
 54.412109375 735 54.412109375 735 139.21484375 869.5 c 128,-1,6
 224.017578125 1004 224.017578125 1004 344.396484375 1079 c 128,-1,7
 464.775390625 1154 464.775390625 1154 600.775390625 1154 c 0,8,9
 730.775390625 1154 730.775390625 1154 818.143554688 1099.5 c 128,-1,10
 905.51171875 1045 905.51171875 1045 946.1484375 948 c 1,11,-1
 798.173828125 784 l 1,12,-1
 781.322265625 766 l 1,13,-1
 767.22265625 778 l 1,14,15
 768.232421875 797 768.232421875 797 768.55859375 818 c 128,-1,16
 768.884765625 839 768.884765625 839 747.477539062 868 c 0,17,18
 717.654296875 907 717.654296875 907 674.688476562 923 c 128,-1,19
 631.72265625 939 631.72265625 939 573.72265625 939 c 0,20,21
 475.72265625 939 475.72265625 939 384.9140625 845.5 c 128,-1,22
 294.10546875 752 294.10546875 752 263.37890625 558 c 0,23,24
 234.869140625 378 234.869140625 378 296.743164062 282.5 c 128,-1,25
 358.618164062 187 358.618164062 187 460.618164062 187 c 0,26,27
 522.618164062 187 522.618164062 187 587.2109375 216 c 128,-1,28
 651.803710938 245 651.803710938 245 714.208007812 317 c 1,29,-1
 807.649414062 143 l 1,30,31
 721.39453125 53 721.39453125 53 618.55859375 13 c 128,-1,32
 515.723632812 -27 515.723632812 -27 415.723632812 -27 c 0,0,1
EndSplineSet
EndChar

StartChar: d
Encoding: 100 100 268
Width: 922
VWidth: 2424
GlyphClass: 2
Flags: HW
AnchorPoint: "Anchor-4" 807.502 1348 basechar 0
AnchorPoint: "Anchor-2" 372 0 basechar 0
AnchorPoint: "Anchor-1" 990.391 1120 basechar 0
AnchorPoint: "Anchor-0" 549.391 1120 basechar 0
LayerCount: 2
Fore
SplineSet
390.618164062 187 m 0,0,1
 571.623046875 187 571.623046875 187 630.83984375 560.879882812 c 0,2,3
 692.62890625 951 692.62890625 951 506.624023438 951 c 0,4,5
 413.624023438 951 413.624023438 951 349.418945312 855 c 128,-1,6
 285.213867188 759 285.213867188 759 256.387695312 577 c 0,7,8
 225.661132812 383 225.661132812 383 267.139648438 285 c 128,-1,9
 308.618164062 187 308.618164062 187 390.618164062 187 c 0,0,1
314.723632812 -27 m 0,10,11
 212.723632812 -27 212.723632812 -27 135.54296875 35 c 128,-1,12
 58.36328125 97 58.36328125 97 26.611328125 228 c 128,-1,13
 -5.1396484375 359 -5.1396484375 359 27.8037109375 567 c 0,14,15
 60.431640625 773 60.431640625 773 131.442382812 902.5 c 128,-1,16
 202.453125 1032 202.453125 1032 298.3515625 1094.5 c 128,-1,17
 394.250976562 1157 394.250976562 1157 504.250976562 1157 c 0,18,19
 578.250976562 1157 578.250976562 1157 632.524414062 1124 c 128,-1,20
 686.797851562 1091 686.797851562 1091 705.918945312 1016 c 1,21,-1
 802.216796875 1624 l 1,22,-1
 1051.21679688 1624 l 1,23,-1
 1047.890625 1603 l 1,24,25
 1034.67285156 1589 1034.67285156 1589 1028.24316406 1570.5 c 128,-1,26
 1021.8125 1552 1021.8125 1552 1015.63574219 1513 c 2,27,-1
 797.549804688 155 l 2,28,29
 791.373046875 116 791.373046875 116 789.274414062 77.5 c 128,-1,30
 787.176757812 39 787.176757812 39 796 0 c 1,31,-1
 567 0 l 1,32,33
 559.860351562 37 559.860351562 37 560.661132812 61 c 128,-1,34
 561.462890625 85 561.462890625 85 567.481445312 123 c 1,35,36
 517.602539062 48 517.602539062 48 452.163085938 10.5 c 128,-1,37
 386.723632812 -27 386.723632812 -27 314.723632812 -27 c 0,10,11
EndSplineSet
EndChar

StartChar: eth
Encoding: 240 240 269
Width: 922
VWidth: 2424
GlyphClass: 1
Flags: HW
LayerCount: 2
Fore
SplineSet
405.508789062 180 m 0,0,1
 484.508789062 180 484.508789062 180 555.842773438 270.5 c 128,-1,2
 627.176757812 361 627.176757812 361 658.37890625 558 c 0,3,4
 688.313476562 747 688.313476562 747 641.250976562 835 c 128,-1,5
 594.188476562 923 594.188476562 923 519.188476562 923 c 128,-1,6
 444.188476562 923 444.188476562 923 367.85546875 832.5 c 128,-1,7
 291.521484375 742 291.521484375 742 262.37890625 558 c 0,8,9
 234.186523438 380 234.186523438 380 277.84765625 280 c 128,-1,10
 321.508789062 180 321.508789062 180 405.508789062 180 c 0,0,1
369.615234375 -34 m 0,11,12
 244.615234375 -34 244.615234375 -34 156.489257812 31.5 c 128,-1,13
 68.36328125 97 68.36328125 97 31.0576171875 224.5 c 128,-1,14
 -6.2490234375 352 -6.2490234375 352 22.89453125 536 c 0,15,16
 51.4033203125 716 51.4033203125 716 125.864257812 851.5 c 128,-1,17
 200.325195312 987 200.325195312 987 300.283203125 1062.5 c 128,-1,18
 400.241210938 1138 400.241210938 1138 505.241210938 1138 c 0,19,20
 632.241210938 1138 632.241210938 1138 688.620117188 1052 c 1,21,22
 673.915039062 1117 673.915039062 1117 650.709960938 1182 c 128,-1,23
 627.505859375 1247 627.505859375 1247 593.107421875 1295 c 1,24,-1
 369.545898438 1222 l 1,25,-1
 338.470703125 1392 l 1,26,-1
 498.232421875 1441 l 1,27,28
 462.725585938 1482 462.725585938 1482 428.927734375 1518 c 128,-1,29
 395.129882812 1554 395.129882812 1554 342.247070312 1580 c 1,30,-1
 583.383789062 1644 l 1,31,32
 620.315429688 1612 620.315429688 1612 651.22265625 1583 c 128,-1,33
 682.129882812 1554 682.129882812 1554 713.635742188 1513 c 1,34,-1
 944.0390625 1585 l 1,35,-1
 972.588867188 1418 l 1,36,-1
 817.194335938 1365 l 1,37,38
 886.862304688 1224 886.862304688 1224 908.427734375 1035 c 128,-1,39
 929.993164062 846 929.993164062 846 892.772460938 611 c 0,40,41
 843.673828125 301 843.673828125 301 708.64453125 133.5 c 128,-1,42
 573.615234375 -34 573.615234375 -34 369.615234375 -34 c 0,11,12
EndSplineSet
EndChar

StartChar: dcaron
Encoding: 271 271 270
Width: 903
VWidth: 2424
GlyphClass: 1
Flags: HW
LayerCount: 2
Fore
SplineSet
273.826171875 182 m 0,0,1
 400.826171875 182 400.826171875 182 461.01171875 562 c 0,2,3
 493.639648438 768 493.639648438 768 478.185546875 863 c 128,-1,4
 462.732421875 958 462.732421875 958 398.732421875 958 c 0,5,6
 339.732421875 958 339.732421875 958 291.111328125 872 c 128,-1,7
 242.490234375 786 242.490234375 786 210.655273438 585 c 0,8,9
 176.126953125 367 176.126953125 367 199.4765625 274.5 c 128,-1,10
 222.826171875 182 222.826171875 182 273.826171875 182 c 0,0,1
946.424804688 1619 m 0,11,12
 993.424804688 1619 993.424804688 1619 1015.90625 1581 c 128,-1,13
 1038.38671875 1543 1038.38671875 1543 1026.98339844 1471 c 0,14,15
 1013.52050781 1386 1013.52050781 1386 967.6875 1295.5 c 128,-1,16
 921.853515625 1205 921.853515625 1205 851.380859375 1101 c 1,17,-1
 766.78515625 1173 l 1,18,19
 805.862304688 1224 805.862304688 1224 832.490234375 1269 c 128,-1,20
 859.1171875 1314 859.1171875 1314 865.611328125 1355 c 0,21,22
 869.412109375 1379 869.412109375 1379 857.841796875 1397.5 c 128,-1,23
 846.272460938 1416 846.272460938 1416 836.073242188 1440 c 128,-1,24
 825.875 1464 825.875 1464 833.319335938 1511 c 0,25,26
 840.604492188 1557 840.604492188 1557 873.014648438 1588 c 128,-1,27
 905.424804688 1619 905.424804688 1619 946.424804688 1619 c 0,11,12
202.19921875 -24 m 0,28,29
 128.19921875 -24 128.19921875 -24 75.671875 29.5 c 128,-1,30
 23.1455078125 83 23.1455078125 83 6.498046875 211.5 c 128,-1,31
 -10.1494140625 340 -10.1494140625 340 25.8037109375 567 c 0,32,33
 60.33203125 785 60.33203125 785 115.921875 915 c 128,-1,34
 171.51171875 1045 171.51171875 1045 241.880859375 1101 c 128,-1,35
 312.250976562 1157 312.250976562 1157 391.250976562 1157 c 0,36,37
 450.250976562 1157 450.250976562 1157 488.366210938 1123 c 128,-1,38
 526.48046875 1089 526.48046875 1089 534.126953125 1011 c 1,39,-1
 630.424804688 1619 l 1,40,-1
 835.424804688 1619 l 1,41,-1
 832.098632812 1598 l 1,42,43
 817.880859375 1584 817.880859375 1584 812.188476562 1567 c 128,-1,44
 806.49609375 1550 806.49609375 1550 801.84375 1508 c 2,45,-1
 586.658203125 162 l 2,46,47
 580.1640625 121 580.1640625 121 575.829101562 81 c 128,-1,48
 571.494140625 41 571.494140625 41 575 0 c 1,49,-1
 393 0 l 1,50,51
 388.384765625 34 388.384765625 34 387.765625 58.5 c 128,-1,52
 387.145507812 83 387.145507812 83 393.481445312 123 c 1,53,54
 355.077148438 51 355.077148438 51 303.138671875 13.5 c 128,-1,55
 251.19921875 -24 251.19921875 -24 202.19921875 -24 c 0,28,29
EndSplineSet
EndChar

StartChar: e
Encoding: 101 101 274
Width: 922
VWidth: 2424
GlyphClass: 2
Flags: HW
AnchorPoint: "Anchor-3" 498.801 24 basechar 0
AnchorPoint: "Anchor-2" 416 0 basechar 0
AnchorPoint: "Anchor-0" 565.391 1120 basechar 0
LayerCount: 2
Fore
SplineSet
284.443359375 691 m 1,0,-1
 675.443359375 691 l 1,1,2
 716.1484375 948 716.1484375 948 529.1484375 948 c 0,3,4
 449.1484375 948 449.1484375 948 383.06640625 887.5 c 128,-1,5
 316.984375 827 316.984375 827 284.443359375 691 c 1,0,-1
411.723632812 -27 m 0,6,7
 202.723632812 -27 202.723632812 -27 91.6640625 121 c 128,-1,8
 -19.39453125 269 -19.39453125 269 25.9033203125 555 c 0,9,10
 57.10546875 752 57.10546875 752 137.169921875 885 c 128,-1,11
 217.235351562 1018 217.235351562 1018 330.005859375 1086 c 128,-1,12
 442.775390625 1154 442.775390625 1154 570.775390625 1154 c 0,13,14
 683.775390625 1154 683.775390625 1154 767.8515625 1094.5 c 128,-1,15
 851.927734375 1035 851.927734375 1035 886.3671875 911.5 c 128,-1,16
 920.806640625 788 920.806640625 788 891.189453125 601 c 0,17,18
 886.913085938 574 886.913085938 574 882.161132812 544 c 128,-1,19
 877.409179688 514 877.409179688 514 871.608398438 490 c 1,20,-1
 247.608398438 490 l 1,21,22
 228.474609375 325 228.474609375 325 292.150390625 253.5 c 128,-1,23
 355.826171875 182 355.826171875 182 453.826171875 182 c 0,24,25
 519.826171875 182 519.826171875 182 579.706054688 206.5 c 128,-1,26
 639.586914062 231 639.586914062 231 693.297851562 286 c 1,27,-1
 793.7578125 150 l 1,28,29
 713.502929688 60 713.502929688 60 616.11328125 16.5 c 128,-1,30
 518.723632812 -27 518.723632812 -27 411.723632812 -27 c 0,6,7
EndSplineSet
EndChar

StartChar: uni029A
Encoding: 666 666 296
Width: 922
VWidth: 2424
GlyphClass: 1
Flags: HW
LayerCount: 2
Fore
SplineSet
364.192382812 178 m 0,0,1
 486.192382812 178 486.192382812 178 559.526367188 268.5 c 128,-1,2
 632.860351562 359 632.860351562 359 665.01171875 562 c 0,3,4
 694.629882812 749 694.629882812 749 659.572265625 846.5 c 128,-1,5
 624.514648438 944 624.514648438 944 502.514648438 944 c 0,6,7
 421.514648438 944 421.514648438 944 378.442382812 902.5 c 128,-1,8
 335.369140625 861 335.369140625 861 326.499023438 805 c 0,9,10
 318.421875 754 318.421875 754 342.245117188 715 c 128,-1,11
 366.068359375 676 366.068359375 676 445.068359375 676 c 0,12,13
 466.068359375 676 466.068359375 676 481.7265625 677 c 128,-1,14
 497.384765625 678 497.384765625 678 522.334960938 684 c 1,15,-1
 490.5 483 l 1,16,17
 453.81640625 485 453.81640625 485 444.553710938 486.5 c 128,-1,18
 435.291992188 488 435.291992188 488 404.291992188 488 c 0,19,20
 315.291992188 488 315.291992188 488 268.481445312 445 c 128,-1,21
 221.670898438 402 221.670898438 402 211.850585938 340 c 0,22,23
 201.872070312 277 201.872070312 277 238.532226562 227.5 c 128,-1,24
 275.192382812 178 275.192382812 178 364.192382812 178 c 0,0,1
323.139648438 -37 m 0,25,26
 128.139648438 -37 128.139648438 -37 45.8994140625 62.5 c 128,-1,27
 -36.341796875 162 -36.341796875 162 -11.3173828125 320 c 0,28,29
 4.837890625 422 4.837890625 422 61.4248046875 492 c 128,-1,30
 118.01171875 562 118.01171875 562 201.189453125 601 c 1,31,32
 143.158203125 645 143.158203125 645 121.453125 710 c 128,-1,33
 99.748046875 775 99.748046875 775 112.577148438 856 c 0,34,35
 125.248046875 936 125.248046875 936 179.438476562 1003.5 c 128,-1,36
 233.629882812 1071 233.629882812 1071 319.940429688 1114 c 128,-1,37
 406.250976562 1157 406.250976562 1157 514.250976562 1157 c 0,38,39
 738.250976562 1157 738.250976562 1157 833.805664062 999.5 c 128,-1,40
 929.359375 842 929.359375 842 885.01171875 562 c 0,41,42
 839.713867188 276 839.713867188 276 693.426757812 119.5 c 128,-1,43
 547.139648438 -37 547.139648438 -37 323.139648438 -37 c 0,25,26
EndSplineSet
EndChar

StartChar: f
Encoding: 102 102 300
Width: 960
VWidth: 2424
GlyphClass: 1
Flags: HW
LayerCount: 2
Fore
SplineSet
273.872070312 921 m 1,0,-1
 83.8720703125 921 l 1,1,-1
 116.499023438 1127 l 1,2,-1
 306.499023438 1127 l 1,3,-1
 317.744140625 1198 l 2,4,5
 341.501953125 1348 341.501953125 1348 409.103515625 1446.5 c 128,-1,6
 476.704101562 1545 476.704101562 1545 568.306640625 1593 c 128,-1,7
 659.909179688 1641 659.909179688 1641 756.909179688 1641 c 0,8,9
 845.909179688 1641 845.909179688 1641 918.311523438 1602.5 c 128,-1,10
 990.712890625 1564 990.712890625 1564 1032.30957031 1492 c 1,11,-1
 922.325195312 1309 l 1,12,-1
 909.31640625 1290 l 1,13,-1
 895.899414062 1300 l 1,14,15
 892.592773438 1317 892.592773438 1317 889.1015625 1336 c 128,-1,16
 885.611328125 1355 885.611328125 1355 862.887695312 1382 c 0,17,18
 816.8671875 1432.01953125 816.8671875 1432.01953125 741.762695312 1432.01953125 c 0,0,0
 740.290039062 1432.01953125 740.290039062 1432.01953125 738.806640625 1432 c 0,19,20
 661.806640625 1432 661.806640625 1432 608.620117188 1374 c 128,-1,21
 555.43359375 1316 555.43359375 1316 536.744140625 1198 c 2,22,-1
 525.499023438 1127 l 1,23,-1
 790.499023438 1127 l 1,24,-1
 757.872070312 921 l 1,25,-1
 492.872070312 921 l 1,26,-1
 347 0 l 1,27,-1
 128 0 l 1,28,-1
 273.872070312 921 l 1,0,-1
EndSplineSet
EndChar

StartChar: g
Encoding: 103 103 301
Width: 942
VWidth: 2278
GlyphClass: 2
Flags: HW
AnchorPoint: "Anchor-2" 306.313 -219 basechar 0
AnchorPoint: "Anchor-0" 500.183 1125 basechar 0
LayerCount: 2
Fore
SplineSet
118.444335938 47 m 0,0,1
 109.2578125 -11 109.2578125 -11 172.90234375 -38.5 c 128,-1,2
 236.546875 -66 236.546875 -66 341.546875 -66 c 0,3,4
 445.546875 -66 445.546875 -66 506.2734375 -33 c 128,-1,5
 567 0 567 0 575.552734375 54 c 0,6,7
 583.947265625 107 583.947265625 107 550.510742188 129.5 c 128,-1,8
 517.07421875 152 517.07421875 152 417.07421875 152 c 0,9,10
 361.07421875 152 361.07421875 152 306.366210938 157 c 128,-1,11
 251.658203125 162 251.658203125 162 205.55859375 174 c 1,12,13
 171.124023438 146 171.124023438 146 148.189453125 118 c 128,-1,14
 125.254882812 90 125.254882812 90 118.444335938 47 c 0,0,1
419.208007812 639 m 0,15,16
 481.208007812 639 481.208007812 639 527.572265625 685.5 c 128,-1,17
 573.9375 732 573.9375 732 586.450195312 811 c 0,18,19
 599.120117188 891 599.120117188 891 567.40625 937 c 128,-1,20
 535.692382812 983 535.692382812 983 473.692382812 983 c 0,21,22
 417.692382812 983 417.692382812 983 369.748046875 936 c 128,-1,23
 321.803710938 889 321.803710938 889 309.450195312 811 c 0,24,25
 297.571289062 736 297.571289062 736 329.389648438 687.5 c 128,-1,26
 361.208007812 639 361.208007812 639 419.208007812 639 c 0,15,16
394.124023438 468 m 0,27,28
 330.124023438 468 330.124023438 468 276.608398438 490 c 1,29,30
 257.916015625 473 257.916015625 473 243.4609375 457.5 c 128,-1,31
 229.005859375 442 229.005859375 442 225.521484375 420 c 0,32,33
 219.661132812 383 219.661132812 383 282.731445312 364.5 c 128,-1,34
 345.80078125 346 345.80078125 346 506.80078125 346 c 0,35,36
 673.80078125 346 673.80078125 346 726.184570312 269.5 c 128,-1,37
 778.568359375 193 778.568359375 193 760.353515625 78 c 0,38,39
 747.049804688 -6 747.049804688 -6 692.829101562 -80 c 128,-1,40
 638.608398438 -154 638.608398438 -154 539.323242188 -200 c 128,-1,41
 440.037109375 -246 440.037109375 -246 297.037109375 -246 c 0,42,43
 110.037109375 -246 110.037109375 -246 15.544921875 -176.5 c 128,-1,44
 -78.947265625 -107 -78.947265625 -107 -59.6240234375 15 c 0,45,46
 -49.1708984375 81 -49.1708984375 81 -5.1181640625 135 c 128,-1,47
 38.9345703125 189 38.9345703125 189 98.3193359375 223 c 1,48,49
 68.12109375 247 68.12109375 247 54.0849609375 281.5 c 0,50,51
 41.35546875 312.791015625 41.35546875 312.791015625 48.2001953125 356.008789062 c 0,52,53
 48.90234375 360.44140625 48.90234375 360.44140625 49.810546875 365 c 0,54,55
 58.6796875 421 58.6796875 421 95.703125 468.5 c 128,-1,56
 132.7265625 516 132.7265625 516 180.745117188 554 c 1,57,58
 142.189453125 601 142.189453125 601 125.063476562 666.5 c 128,-1,59
 107.9375 732 107.9375 732 120.450195312 811 c 0,60,61
 136.763671875 914 136.763671875 914 191.196289062 992.5 c 128,-1,62
 245.629882812 1071 245.629882812 1071 326.756835938 1116 c 128,-1,63
 407.884765625 1161 407.884765625 1161 503.884765625 1161 c 0,64,65
 630.884765625 1161 630.884765625 1161 708.055664062 1080 c 1,66,67
 764.548828125 1121 764.548828125 1121 827.216796875 1141 c 0,68,69
 875.422851562 1156.38476562 875.422851562 1156.38476562 926.813476562 1156.38476562 c 0,70,71
 942.23046875 1156.38476562 942.23046875 1156.38476562 957.93359375 1155 c 1,72,-1
 953.1171875 992 l 1,73,74
 926.436523438 996.661132812 926.436523438 996.661132812 900.74609375 996.661132812 c 0,75,76
 832.743164062 996.661132812 832.743164062 996.661132812 771.682617188 964 c 1,77,78
 787.3203125 897.733398438 787.3203125 897.733398438 775.306640625 821.884765625 c 0,79,80
 774.44921875 816.466796875 774.44921875 816.466796875 773.450195312 811 c 0,81,82
 757.135742188 708 757.135742188 708 702.940429688 631 c 128,-1,83
 648.745117188 554 648.745117188 554 567.434570312 511 c 128,-1,84
 486.124023438 468 486.124023438 468 394.124023438 468 c 0,27,28
EndSplineSet
EndChar

StartChar: h
Encoding: 104 104 308
Width: 922
VWidth: 2424
GlyphClass: 2
Flags: HW
AnchorPoint: "Anchor-4" 322.443 1335 basechar 0
AnchorPoint: "Anchor-2" 359 0 basechar 0
AnchorPoint: "Anchor-0" 331.217 1624 basechar 0
LayerCount: 2
Fore
SplineSet
195.216796875 1624 m 1,0,-1
 465.216796875 1624 l 1,1,-1
 461.890625 1603 l 1,2,3
 447.672851562 1589 447.672851562 1589 441.243164062 1570.5 c 128,-1,4
 434.8125 1552 434.8125 1552 428.635742188 1513 c 2,5,-1
 343.741210938 977 l 1,6,7
 409.99609375 1067 409.99609375 1067 497.385742188 1110.5 c 128,-1,8
 584.775390625 1154 584.775390625 1154 664.775390625 1154 c 0,9,10
 810.775390625 1154 810.775390625 1154 877.749023438 1046.5 c 128,-1,11
 944.72265625 939 944.72265625 939 904.334960938 684 c 2,12,-1
 796 0 l 1,13,-1
 548 0 l 1,14,-1
 655.859375 681 l 2,15,16
 679.30078125 829 679.30078125 829 652.224609375 888.5 c 128,-1,17
 625.1484375 948 625.1484375 948 561.1484375 948 c 0,18,19
 470.1484375 948 470.1484375 948 392.21484375 869.5 c 128,-1,20
 314.282226562 791 314.282226562 791 291.158203125 645 c 2,21,-1
 189 0 l 1,22,-1
 -62 0 l 1,23,-1
 195.216796875 1624 l 1,0,-1
EndSplineSet
EndChar

StartChar: i
Encoding: 105 105 313
Width: 796
VWidth: 2424
GlyphClass: 2
Flags: HW
AnchorPoint: "Anchor-3" 505 0 basechar 0
AnchorPoint: "Anchor-2" 304 0 basechar 0
AnchorPoint: "Anchor-0" 539.676 1488 basechar 0
LayerCount: 2
Fore
SplineSet
-62 0 m 1,0,-1
 -29.0556640625 208 l 1,1,-1
 219.944335938 208 l 1,2,-1
 332.555664062 919 l 1,3,-1
 95.5556640625 919 l 1,4,-1
 128.499023438 1127 l 1,5,-1
 620.499023438 1127 l 1,6,-1
 474.944335938 208 l 1,7,-1
 702.944335938 208 l 1,8,-1
 670 0 l 1,9,-1
 -62 0 l 1,0,-1
514.017578125 1326 m 0,10,11
 447.017578125 1326 447.017578125 1326 407.803710938 1372 c 128,-1,12
 368.588867188 1418 368.588867188 1418 378.567382812 1481 c 0,13,14
 388.862304688 1546 388.862304688 1546 440.489257812 1591 c 128,-1,15
 492.1171875 1636 492.1171875 1636 563.1171875 1636 c 0,16,17
 626.1171875 1636 626.1171875 1636 667.41015625 1590.5 c 128,-1,18
 708.704101562 1545 708.704101562 1545 698.567382812 1481 c 0,19,20
 688.588867188 1418 688.588867188 1418 632.803710938 1372 c 128,-1,21
 577.017578125 1326 577.017578125 1326 514.017578125 1326 c 0,10,11
EndSplineSet
Substitution2: "'locl' Localized Forms in Latin lookup 18 subtable" i.loclTRK
Substitution2: "'locl' Localized Forms in Latin lookup 17 subtable" i.loclTRK
Substitution2: "'locl' Localized Forms in Latin lookup 16 subtable" i.loclTRK
Substitution2: "'locl' Localized Forms in Latin lookup 15 subtable" i.loclTRK
Substitution2: "'locl' Localized Forms in Latin lookup 14 subtable" i.loclTRK
Substitution2: "Single Substitution lookup 4 subtable" dotlessi
Substitution2: "Single Substitution lookup 3 subtable" dotlessi
AlternateSubs2: "'aalt' Access All Alternates in Latin lookup 1 subtable" dotlessi i.loclTRK
EndChar

StartChar: dotlessi
Encoding: 305 305 314
Width: 796
VWidth: 2424
GlyphClass: 2
Flags: HW
AnchorPoint: "Anchor-3" 505 0 basechar 0
AnchorPoint: "Anchor-2" 304 0 basechar 0
AnchorPoint: "Anchor-0" 481.707 1122 basechar 0
LayerCount: 2
Fore
SplineSet
-62 0 m 1,0,-1
 -29.0556640625 208 l 1,1,-1
 219.944335938 208 l 1,2,-1
 332.555664062 919 l 1,3,-1
 95.5556640625 919 l 1,4,-1
 128.499023438 1127 l 1,5,-1
 620.499023438 1127 l 1,6,-1
 474.944335938 208 l 1,7,-1
 702.944335938 208 l 1,8,-1
 670 0 l 1,9,-1
 -62 0 l 1,0,-1
EndSplineSet
EndChar

StartChar: j
Encoding: 106 106 329
Width: 778
VWidth: 2355
GlyphClass: 2
Flags: HW
AnchorPoint: "Anchor-2" 330.652 -280 basechar 0
AnchorPoint: "Anchor-0" 743.735 1501 basechar 0
LayerCount: 2
Fore
SplineSet
214.037109375 -246 m 0,0,1
 26.037109375 -246 26.037109375 -246 -78.4716796875 -104 c 1,2,-1
 71.5625 73 l 1,3,-1
 85.2548828125 90 l 1,4,-1
 101.670898438 80 l 1,5,6
 100.978515625 63 100.978515625 63 103.626953125 45 c 128,-1,7
 106.276367188 27 106.276367188 27 124 0 c 1,8,9
 145.515625 -22 145.515625 -22 174.536132812 -34.5 c 128,-1,10
 203.555664062 -47 203.555664062 -47 243.555664062 -47 c 0,11,12
 393.555664062 -47 393.555664062 -47 429.66796875 181 c 2,13,-1
 555.900390625 978 l 1,14,-1
 229.900390625 978 l 1,15,-1
 260.467773438 1171 l 1,16,-1
 822.467773438 1171 l 1,17,-1
 668.834960938 201 l 2,18,19
 643.176757812 39 643.176757812 39 572.655273438 -59 c 128,-1,20
 502.133789062 -157 502.133789062 -157 408.0859375 -201.5 c 128,-1,21
 314.037109375 -246 314.037109375 -246 214.037109375 -246 c 0,0,1
720.293945312 1353 m 0,22,23
 658.293945312 1353 658.293945312 1353 622.946289062 1395 c 128,-1,24
 587.598632812 1437 587.598632812 1437 596.625976562 1494 c 0,25,26
 605.970703125 1553 605.970703125 1553 653.043945312 1594.5 c 128,-1,27
 700.1171875 1636 700.1171875 1636 765.1171875 1636 c 0,28,29
 822.1171875 1636 822.1171875 1636 860.043945312 1594.5 c 128,-1,30
 897.970703125 1553 897.970703125 1553 888.625976562 1494 c 0,31,32
 879.598632812 1437 879.598632812 1437 828.446289062 1395 c 128,-1,33
 777.293945312 1353 777.293945312 1353 720.293945312 1353 c 0,22,23
EndSplineSet
Substitution2: "Single Substitution lookup 4 subtable" uni0237
Substitution2: "Single Substitution lookup 3 subtable" uni0237
Substitution2: "'aalt' Access All Alternates in Latin lookup 0 subtable" uni0237
EndChar

StartChar: uni0237
Encoding: 567 567 330
Width: 741
VWidth: 2274
GlyphClass: 2
Flags: HW
AnchorPoint: "Anchor-2" 316.969 -278 basechar 0
AnchorPoint: "Anchor-0" 665.866 1123 basechar 0
LayerCount: 2
Fore
SplineSet
204.037109375 -246 m 0,0,1
 22.037109375 -246 22.037109375 -246 -79.263671875 -109 c 1,2,-1
 65.978515625 63 l 1,3,-1
 79.6708984375 80 l 1,4,-1
 95.9287109375 69 l 1,5,6
 95.236328125 52 95.236328125 52 97.54296875 35 c 128,-1,7
 99.8505859375 18 99.8505859375 18 116.733398438 -8 c 1,8,9
 137.407226562 -29 137.407226562 -29 165.505859375 -41 c 128,-1,10
 193.60546875 -53 193.60546875 -53 232.60546875 -53 c 0,11,12
 378.60546875 -53 378.60546875 -53 413.608398438 168 c 2,13,-1
 535.881835938 940 l 1,14,-1
 219.881835938 940 l 1,15,-1
 249.499023438 1127 l 1,16,-1
 793.499023438 1127 l 1,17,-1
 644.618164062 187 l 2,18,19
 619.751953125 30 619.751953125 30 551.705078125 -65 c 128,-1,20
 483.658203125 -160 483.658203125 -160 391.84765625 -203 c 128,-1,21
 300.037109375 -246 300.037109375 -246 204.037109375 -246 c 0,0,1
EndSplineSet
EndChar

StartChar: k
Encoding: 107 107 332
Width: 989
VWidth: 2424
GlyphClass: 2
Flags: HW
AnchorPoint: "Anchor-2" 326 0 basechar 0
AnchorPoint: "Anchor-0" 306.217 1624 basechar 0
LayerCount: 2
Fore
SplineSet
316.508789062 502 m 1,0,-1
 230.25390625 412 l 1,1,-1
 165 0 l 1,2,-1
 -62 0 l 1,3,-1
 195.216796875 1624 l 1,4,-1
 443.216796875 1624 l 1,5,-1
 439.890625 1603 l 1,6,7
 424.672851562 1589 424.672851562 1589 417.743164062 1570.5 c 128,-1,8
 410.8125 1552 410.8125 1552 404.635742188 1513 c 2,9,-1
 276.344726562 703 l 1,10,-1
 692.241210938 1138 l 1,11,12
 720.1328125 1131 720.1328125 1131 758.76171875 1125.5 c 128,-1,13
 797.390625 1120 797.390625 1120 824.390625 1120 c 2,14,-1
 925.390625 1120 l 1,15,-1
 498.484375 666 l 1,16,-1
 796 0 l 1,17,-1
 541.57421875 -9 l 1,18,-1
 316.508789062 502 l 1,0,-1
EndSplineSet
EndChar

StartChar: kgreenlandic
Encoding: 312 312 334
Width: 989
VWidth: 2424
GlyphClass: 2
Flags: HW
AnchorPoint: "Anchor-2" 326 0 basechar 0
AnchorPoint: "Anchor-0" 235.391 1120 basechar 0
LayerCount: 2
Fore
SplineSet
316.508789062 502 m 1,0,-1
 230.25390625 412 l 1,1,-1
 165 0 l 1,2,-1
 -62 0 l 1,3,-1
 116.499023438 1127 l 1,4,-1
 364.499023438 1127 l 1,5,-1
 361.172851562 1106 l 1,6,7
 345.956054688 1092 345.956054688 1092 339.18359375 1074.5 c 128,-1,8
 332.412109375 1057 332.412109375 1057 325.918945312 1016 c 2,9,-1
 276.344726562 703 l 1,10,-1
 692.241210938 1138 l 1,11,12
 720.1328125 1131 720.1328125 1131 758.76171875 1125.5 c 128,-1,13
 797.390625 1120 797.390625 1120 824.390625 1120 c 2,14,-1
 925.390625 1120 l 1,15,-1
 498.484375 666 l 1,16,-1
 796 0 l 1,17,-1
 541.57421875 -9 l 1,18,-1
 316.508789062 502 l 1,0,-1
EndSplineSet
EndChar

StartChar: l
Encoding: 108 108 335
Width: 886
VWidth: 2424
GlyphClass: 2
Flags: HW
AnchorPoint: "Anchor-4" 436.695 560 basechar 0
AnchorPoint: "Anchor-2" 348 0 basechar 0
AnchorPoint: "Anchor-1" 1027.39 1120 basechar 0
AnchorPoint: "Anchor-0" 605.217 1624 basechar 0
LayerCount: 2
Fore
SplineSet
-62 0 m 1,0,-1
 -28.5810546875 211 l 1,1,-1
 254.418945312 211 l 1,2,-1
 444.796875 1413 l 1,3,-1
 173.796875 1413 l 1,4,-1
 207.216796875 1624 l 1,5,-1
 735.216796875 1624 l 1,6,-1
 511.418945312 211 l 1,7,-1
 793.418945312 211 l 1,8,-1
 760 0 l 1,9,-1
 -62 0 l 1,0,-1
EndSplineSet
EndChar

StartChar: ldot
Encoding: 320 320 339
Width: 922
VWidth: 2424
GlyphClass: 1
Flags: HW
LayerCount: 2
Fore
SplineSet
737.048828125 638 m 0,0,1
 669.048828125 638 669.048828125 638 629.96875 688 c 128,-1,2
 590.887695312 738 590.887695312 738 602.291015625 810 c 0,3,4
 613.377929688 880 613.377929688 880 668.21875 929.5 c 128,-1,5
 723.05859375 979 723.05859375 979 791.05859375 979 c 0,6,7
 855.05859375 979 855.05859375 979 895.21875 929.5 c 128,-1,8
 935.377929688 880 935.377929688 880 924.291015625 810 c 0,9,10
 912.887695312 738 912.887695312 738 857.96875 688 c 128,-1,11
 803.048828125 638 803.048828125 638 737.048828125 638 c 0,0,1
-62 0 m 1,12,-1
 -28.5810546875 211 l 1,13,-1
 189.418945312 211 l 1,14,-1
 381.064453125 1421 l 1,15,-1
 178.064453125 1421 l 1,16,-1
 211.325195312 1631 l 1,17,-1
 656.325195312 1631 l 1,18,-1
 431.418945312 211 l 1,19,-1
 728.418945312 211 l 1,20,-1
 695 0 l 1,21,-1
 -62 0 l 1,12,-1
EndSplineSet
EndChar

StartChar: uni01C9
Encoding: 457 457 341
Width: 922
VWidth: 2353
GlyphClass: 1
Flags: HW
LayerCount: 2
Fore
SplineSet
361.037109375 -246 m 0,0,1
 225.037109375 -246 225.037109375 -246 148.509765625 -142 c 1,2,-1
 285.918945312 50 l 1,3,4
 297.96875 44 297.96875 44 297.147460938 32.5 c 128,-1,5
 296.326171875 21 296.326171875 21 301.108398438 7 c 128,-1,6
 305.891601562 -7 305.891601562 -7 335.881835938 -26 c 0,7,8
 347.45703125 -35 347.45703125 -35 362.823242188 -39 c 128,-1,9
 378.189453125 -43 378.189453125 -43 397.189453125 -43 c 0,10,11
 459.189453125 -43 459.189453125 -43 510.42578125 9 c 128,-1,12
 561.661132812 61 561.661132812 61 581.30078125 185 c 2,13,-1
 707.05859375 979 l 1,14,-1
 508.05859375 979 l 1,15,-1
 538.467773438 1171 l 1,16,-1
 958.467773438 1171 l 1,17,-1
 803.7265625 194 l 2,18,19
 778.54296875 35 778.54296875 35 714.1796875 -62 c 128,-1,20
 649.81640625 -159 649.81640625 -159 558.426757812 -202.5 c 128,-1,21
 467.037109375 -246 467.037109375 -246 361.037109375 -246 c 0,0,1
-39.3505859375 143 m 1,22,-1
 -6.94140625 335 l 1,23,-1
 88.05859375 335 l 1,24,-1
 262.915039062 1439 l 1,25,-1
 178.915039062 1439 l 1,26,-1
 209.325195312 1631 l 1,27,-1
 514.325195312 1631 l 1,28,-1
 309.05859375 335 l 1,29,-1
 494.05859375 335 l 1,30,-1
 463.649414062 143 l 1,31,-1
 -39.3505859375 143 l 1,22,-1
867.501953125 1348 m 0,32,33
 807.501953125 1348 807.501953125 1348 772.733398438 1390.5 c 128,-1,34
 737.96484375 1433 737.96484375 1433 746.993164062 1490 c 0,35,36
 756.337890625 1549 756.337890625 1549 802.831054688 1590 c 128,-1,37
 849.325195312 1631 849.325195312 1631 912.325195312 1631 c 0,38,39
 968.325195312 1631 968.325195312 1631 1004.67285156 1589 c 128,-1,40
 1041.02050781 1547 1041.02050781 1547 1031.99316406 1490 c 128,-1,41
 1022.96484375 1433 1022.96484375 1433 973.233398438 1390.5 c 128,-1,42
 923.501953125 1348 923.501953125 1348 867.501953125 1348 c 0,32,33
EndSplineSet
EndChar

StartChar: lslash
Encoding: 322 322 343
Width: 867
VWidth: 2424
GlyphClass: 1
Flags: HW
LayerCount: 2
Fore
SplineSet
-62 0 m 1,0,-1
 -28.5810546875 211 l 1,1,-1
 244.418945312 211 l 1,2,-1
 308.08984375 613 l 1,3,-1
 143.586914062 553 l 1,4,-1
 183.182617188 803 l 1,5,-1
 347.685546875 863 l 1,6,-1
 434.796875 1413 l 1,7,-1
 175.796875 1413 l 1,8,-1
 209.216796875 1624 l 1,9,-1
 723.216796875 1624 l 1,10,-1
 617.732421875 958 l 1,11,-1
 808.34375 1025 l 1,12,-1
 768.431640625 773 l 1,13,-1
 577.344726562 703 l 1,14,-1
 499.418945312 211 l 1,15,-1
 774.418945312 211 l 1,16,-1
 741 0 l 1,17,-1
 -62 0 l 1,0,-1
EndSplineSet
EndChar

StartChar: m
Encoding: 109 109 344
Width: 922
VWidth: 2424
GlyphClass: 2
Flags: HW
AnchorPoint: "Anchor-2" 362 0 basechar 0
AnchorPoint: "Anchor-0" 590.391 1120 basechar 0
LayerCount: 2
Fore
SplineSet
-62 0 m 1,0,-1
 116.499023438 1127 l 1,1,-1
 299.499023438 1127 l 1,2,-1
 285.877929688 1041 l 1,3,4
 364.247070312 1154.00878906 364.247070312 1154.00878906 458.126953125 1154.00878906 c 0,5,6
 458.951171875 1154.00878906 458.951171875 1154.00878906 459.775390625 1154 c 0,7,8
 508.775390625 1154 508.775390625 1154 543.469726562 1120.5 c 128,-1,9
 578.1640625 1087 578.1640625 1087 585.443359375 1013 c 1,10,11
 664.775390625 1154 664.775390625 1154 795.775390625 1154 c 0,12,13
 891.775390625 1154 891.775390625 1154 922.8125 1069 c 0,14,15
 952.515625 987.65625 952.515625 987.65625 930.638671875 849.530273438 c 0,16,17
 929.655273438 843.322265625 929.655273438 843.322265625 928.567382812 837 c 2,18,-1
 796 0 l 1,19,-1
 604 0 l 1,20,-1
 727.540039062 780 l 2,21,22
 745.120117188 891 745.120117188 891 738.243164062 926.5 c 128,-1,23
 731.366210938 962 731.366210938 962 705.366210938 962 c 0,24,25
 667.366210938 962 667.366210938 962 628.466796875 899.5 c 128,-1,26
 589.567382812 837 589.567382812 837 572.9375 732 c 2,27,-1
 457 0 l 1,28,-1
 277 0 l 1,29,-1
 399.114257812 771 l 2,30,31
 417.803710938 889 417.803710938 889 410.822265625 927 c 128,-1,32
 403.840820312 965 403.840820312 965 369.840820312 965 c 128,-1,33
 335.840820312 965 335.840820312 965 300.55078125 909.5 c 128,-1,34
 265.260742188 854 265.260742188 854 247.521484375 742 c 2,35,-1
 130 0 l 1,36,-1
 -62 0 l 1,0,-1
EndSplineSet
EndChar

StartChar: n
Encoding: 110 110 346
Width: 922
VWidth: 2424
GlyphClass: 2
Flags: HW
AnchorPoint: "Anchor-2" 380 0 basechar 0
AnchorPoint: "Anchor-0" 561.391 1120 basechar 0
LayerCount: 2
Fore
SplineSet
-62 0 m 1,0,-1
 116.499023438 1127 l 1,1,-1
 367.499023438 1127 l 1,2,-1
 342.6328125 970 l 1,3,4
 405.779296875 1053 405.779296875 1053 485.27734375 1103.5 c 128,-1,5
 564.775390625 1154 564.775390625 1154 657.775390625 1154 c 0,6,7
 743.775390625 1154 743.775390625 1154 809.6484375 1109 c 128,-1,8
 875.521484375 1064 875.521484375 1064 903.9453125 962.5 c 128,-1,9
 932.369140625 861 932.369140625 861 905.126953125 689 c 2,10,-1
 796 0 l 1,11,-1
 548 0 l 1,12,-1
 656.810546875 687 l 2,13,14
 678.825195312 826 678.825195312 826 650.987304688 887 c 128,-1,15
 623.1484375 948 623.1484375 948 554.1484375 948 c 0,16,17
 475.1484375 948 475.1484375 948 395.427734375 874 c 128,-1,18
 315.708007812 800 315.708007812 800 295.276367188 671 c 2,19,-1
 189 0 l 1,20,-1
 -62 0 l 1,0,-1
EndSplineSet
EndChar

StartChar: eng
Encoding: 331 331 352
Width: 837
VWidth: 2273
GlyphClass: 1
Flags: HW
LayerCount: 2
Fore
SplineSet
315.037109375 -246 m 0,0,1
 260.037109375 -246 260.037109375 -246 201.942382812 -224.5 c 128,-1,2
 143.84765625 -203 143.84765625 -203 103.975585938 -158 c 1,3,-1
 218.592773438 29 l 1,4,5
 232.959960938 25 232.959960938 25 235.529296875 6.5 c 128,-1,6
 238.099609375 -12 238.099609375 -12 257.065429688 -28 c 128,-1,7
 276.03125 -44 276.03125 -44 333.03125 -44 c 0,8,9
 487.03125 -44 487.03125 -44 531.270507812 229 c 2,10,-1
 611.571289062 736 l 2,11,12
 631.2109375 860 631.2109375 860 598.446289062 912 c 128,-1,13
 565.682617188 964 565.682617188 964 508.682617188 964 c 0,14,15
 424.682617188 964 424.682617188 964 359.095703125 894 c 128,-1,16
 293.508789062 824 293.508789062 824 275.611328125 711 c 2,17,-1
 184.381835938 135 l 1,18,-1
 -40.6181640625 135 l 1,19,-1
 116.974609375 1130 l 1,20,-1
 341.974609375 1130 l 1,21,-1
 319.958984375 991 l 1,22,23
 376.837890625 1066 376.837890625 1066 451.6484375 1109 c 128,-1,24
 526.458984375 1152 526.458984375 1152 604.458984375 1152 c 0,25,26
 685.458984375 1152 685.458984375 1152 744.623046875 1112 c 128,-1,27
 803.788085938 1072 803.788085938 1072 828.112304688 982.5 c 128,-1,28
 852.4375 893 852.4375 893 828.045898438 739 c 2,29,-1
 750.754882812 251 l 2,30,31
 722.5625 73 722.5625 73 657.797851562 -36 c 128,-1,32
 593.034179688 -145 593.034179688 -145 504.036132812 -195.5 c 128,-1,33
 415.037109375 -246 415.037109375 -246 315.037109375 -246 c 0,0,1
EndSplineSet
EndChar

StartChar: o
Encoding: 111 111 355
Width: 922
VWidth: 2424
GlyphClass: 2
Flags: HW
AnchorPoint: "Anchor-4" 456.695 560 basechar 0
AnchorPoint: "Anchor-3" 453.395 53 basechar 0
AnchorPoint: "Anchor-2" 368 0 basechar 0
AnchorPoint: "Anchor-1" 751.312 1069 basechar 0
AnchorPoint: "Anchor-0" 547.391 1120 basechar 0
LayerCount: 2
Fore
SplineSet
397.934570312 189 m 0,0,1
 487.934570312 189 487.934570312 189 560.194335938 288.5 c 128,-1,2
 632.453125 388 632.453125 388 660.487304688 565 c 0,3,4
 688.99609375 745 688.99609375 745 648.018554688 843 c 128,-1,5
 607.040039062 941 607.040039062 941 517.040039062 941 c 128,-1,6
 427.040039062 941 427.040039062 941 354.018554688 843 c 128,-1,7
 280.99609375 745 280.99609375 745 252.487304688 565 c 0,8,9
 224.294921875 387 224.294921875 387 265.114257812 288 c 128,-1,10
 305.934570312 189 305.934570312 189 397.934570312 189 c 0,0,1
364.19921875 -24 m 0,11,12
 241.19921875 -24 241.19921875 -24 154.626953125 45 c 128,-1,13
 68.0556640625 114 68.0556640625 114 32.962890625 246 c 128,-1,14
 -2.130859375 378 -2.130859375 378 27.01171875 562 c 0,15,16
 55.837890625 744 55.837890625 744 132.82421875 876.5 c 128,-1,17
 209.809570312 1009 209.809570312 1009 318.79296875 1081.5 c 128,-1,18
 427.775390625 1154 427.775390625 1154 550.775390625 1154 c 0,19,20
 670.775390625 1154 670.775390625 1154 756.79296875 1081.5 c 128,-1,21
 842.809570312 1009 842.809570312 1009 878.403320312 877 c 128,-1,22
 913.99609375 745 913.99609375 745 885.01171875 562 c 0,23,24
 855.7109375 377 855.7109375 377 778.541992188 246.5 c 128,-1,25
 701.373046875 116 701.373046875 116 592.786132812 46 c 128,-1,26
 484.19921875 -24 484.19921875 -24 364.19921875 -24 c 0,11,12
EndSplineSet
Substitution2: "Single Substitution lookup 29 subtable" ordmasculine
Substitution2: "'aalt' Access All Alternates in Latin lookup 0 subtable" ordmasculine
EndChar

StartChar: oslash
Encoding: 248 248 383
Width: 922
VWidth: 2424
GlyphClass: 2
Flags: HW
AnchorPoint: "Anchor-4" 456.695 560 basechar 0
AnchorPoint: "Anchor-3" 453.395 53 basechar 0
AnchorPoint: "Anchor-2" 368 0 basechar 0
AnchorPoint: "Anchor-1" 751.312 1069 basechar 0
AnchorPoint: "Anchor-0" 547.391 1120 basechar 0
LayerCount: 2
Fore
SplineSet
397.934570312 189 m 0,0,1
 487.934570312 189 487.934570312 189 560.194335938 288.5 c 128,-1,2
 632.453125 388 632.453125 388 660.487304688 565 c 0,3,4
 677.434570312 672 677.434570312 672 669.421875 754 c 1,5,-1
 341.834960938 201 l 1,6,7
 367.934570312 189 367.934570312 189 397.934570312 189 c 0,0,1
252.487304688 565 m 0,8,9
 235.223632812 456 235.223632812 456 244.39453125 375 c 1,10,-1
 571.98046875 928 l 1,11,12
 545.881835938 940 545.881835938 940 517.040039062 941 c 0,13,14
 427.040039062 941 427.040039062 941 354.018554688 843 c 128,-1,15
 280.99609375 745 280.99609375 745 252.487304688 565 c 0,8,9
130.450195312 -155 m 1,16,-1
 -13.978515625 -63 l 1,17,-1
 91.0556640625 114 l 1,18,19
 38.9345703125 189 38.9345703125 189 21.2529296875 301.5 c 128,-1,20
 3.5712890625 414 3.5712890625 414 27.01171875 562 c 0,21,22
 55.837890625 744 55.837890625 744 132.82421875 876.5 c 128,-1,23
 209.809570312 1009 209.809570312 1009 318.79296875 1081.5 c 128,-1,24
 427.775390625 1154 427.775390625 1154 550.775390625 1154 c 0,25,26
 625.775390625 1154 625.775390625 1154 687.182617188 1125 c 1,27,-1
 769.356445312 1265 l 1,28,-1
 915.467773438 1171 l 1,29,-1
 820.809570312 1009 l 1,30,31
 870.930664062 934 870.930664062 934 889.375 820 c 128,-1,32
 907.819335938 706 907.819335938 706 885.01171875 562 c 0,33,34
 855.7109375 377 855.7109375 377 778.541992188 246.5 c 128,-1,35
 701.373046875 116 701.373046875 116 592.286132812 46 c 128,-1,36
 483.19921875 -24 483.19921875 -24 364.19921875 -24 c 0,37,38
 286.19921875 -24 286.19921875 -24 224.31640625 2 c 1,39,-1
 130.450195312 -155 l 1,16,-1
EndSplineSet
EndChar

StartChar: oe
Encoding: 339 339 389
Width: 858
VWidth: 2424
GlyphClass: 1
Flags: HW
LayerCount: 2
Fore
SplineSet
211.2421875 172 m 0,0,1
 239.2421875 172 239.2421875 172 261.989257812 192.5 c 128,-1,2
 284.736328125 213 284.736328125 213 290.12109375 247 c 0,3,4
 292.021484375 259 292.021484375 259 292.842773438 270.5 c 128,-1,5
 293.6640625 282 293.6640625 282 294.673828125 301 c 0,6,7
 297.28515625 368 297.28515625 368 301.947265625 429 c 128,-1,8
 306.608398438 490 306.608398438 490 321.1796875 582 c 0,9,10
 342.403320312 716 342.403320312 716 363.698242188 781 c 128,-1,11
 384.993164062 846 384.993164062 846 387.685546875 863 c 0,12,13
 392.4375 893 392.4375 893 378.79296875 920.5 c 128,-1,14
 365.1484375 948 365.1484375 948 330.1484375 948 c 0,15,16
 283.1484375 948 283.1484375 948 235.661132812 866 c 128,-1,17
 188.173828125 784 188.173828125 784 157.447265625 590 c 0,18,19
 124.819335938 384 124.819335938 384 133.53125 278 c 128,-1,20
 142.2421875 172 142.2421875 172 211.2421875 172 c 0,0,1
500.235351562 696 m 1,21,-1
 720.235351562 696 l 1,22,23
 738.984375 827 738.984375 827 726.303710938 889 c 128,-1,24
 713.624023438 951 713.624023438 951 655.624023438 951 c 0,25,26
 600.624023438 951 600.624023438 951 561.219726562 879 c 128,-1,27
 521.81640625 807 521.81640625 807 500.235351562 696 c 1,21,-1
520.248046875 -30 m 0,28,29
 467.248046875 -30 467.248046875 -30 422.57421875 -9 c 128,-1,30
 377.900390625 12 377.900390625 12 346.502929688 60 c 1,31,32
 299.7421875 11 299.7421875 11 255.233398438 -8 c 128,-1,33
 210.723632812 -27 210.723632812 -27 164.723632812 -27 c 0,34,35
 97.7236328125 -27 97.7236328125 -27 42.4052734375 21.5 c 128,-1,36
 -12.9130859375 70 -12.9130859375 70 -32.560546875 198.5 c 128,-1,37
 -52.2080078125 327 -52.2080078125 327 -15.3046875 560 c 0,38,39
 18.748046875 775 18.748046875 775 78.337890625 905 c 128,-1,40
 137.927734375 1035 137.927734375 1035 211.956054688 1092 c 128,-1,41
 285.983398438 1149 285.983398438 1149 361.983398438 1149 c 0,42,43
 459.983398438 1149 459.983398438 1149 505.620117188 1052 c 1,44,45
 578.983398438 1149 578.983398438 1149 679.983398438 1149 c 0,46,47
 800.983398438 1149 800.983398438 1149 850.032226562 1032.5 c 128,-1,48
 899.080078125 916 899.080078125 916 862.810546875 687 c 2,49,-1
 835.409179688 514 l 1,50,-1
 469.409179688 514 l 1,51,52
 448.760742188 371 448.760742188 371 455.14453125 294.5 c 128,-1,53
 461.52734375 218 461.52734375 218 490.592773438 190 c 128,-1,54
 519.658203125 162 519.658203125 162 562.658203125 162 c 0,55,56
 603.658203125 162 603.658203125 162 641.247070312 181.5 c 128,-1,57
 678.834960938 201 678.834960938 201 715.595703125 250 c 1,58,-1
 764.947265625 107 l 1,59,60
 706.860351562 37 706.860351562 37 649.0546875 3.5 c 128,-1,61
 591.248046875 -30 591.248046875 -30 520.248046875 -30 c 0,28,29
EndSplineSet
EndChar

StartChar: p
Encoding: 112 112 390
Width: 902
VWidth: 2293
GlyphClass: 2
Flags: HW
AnchorPoint: "Anchor-2" 392.689 118 basechar 0
AnchorPoint: "Anchor-0" 552.341 1126 basechar 0
LayerCount: 2
Fore
SplineSet
395.872070312 277 m 0,0,1
 451.872070312 277 451.872070312 277 501.361328125 308.5 c 128,-1,2
 550.850585938 340 550.850585938 340 589.387695312 416 c 128,-1,3
 627.924804688 492 627.924804688 492 649.624023438 629 c 0,4,5
 676.232421875 797 676.232421875 797 640.537109375 881 c 128,-1,6
 604.840820312 965 604.840820312 965 515.158203125 967 c 0,7,8
 513.142578125 967.044921875 513.142578125 967.044921875 511.139648438 967.044921875 c 0,9,10
 423.008789062 967.044921875 423.008789062 967.044921875 358.537109375 881 c 0,11,12
 292.598632812 793 292.598632812 793 262.189453125 601 c 0,13,14
 237.263671875 431 237.263671875 431 272.068359375 354 c 128,-1,15
 306.872070312 277 306.872070312 277 395.872070312 277 c 0,0,1
-100.962890625 -246 m 1,16,-1
 117.291015625 1132 l 1,17,-1
 341.291015625 1132 l 1,18,-1
 318.80078125 990 l 1,19,20
 375.946289062 1073 375.946289062 1073 446.861328125 1113.5 c 128,-1,21
 517.775390625 1154 517.775390625 1154 599.775390625 1154 c 0,22,23
 697.775390625 1154 697.775390625 1154 770.485351562 1098.5 c 128,-1,24
 843.1953125 1043 843.1953125 1043 873.584960938 925.5 c 128,-1,25
 903.974609375 808 903.974609375 808 874.673828125 623 c 128,-1,26
 845.372070312 438 845.372070312 438 776.762695312 320.5 c 128,-1,27
 708.15234375 203 708.15234375 203 616.782226562 147 c 128,-1,28
 525.413085938 91 525.413085938 91 426.413085938 91 c 0,29,30
 352.413085938 91 352.413085938 91 292.1640625 121 c 128,-1,31
 231.916015625 151 231.916015625 151 202.102539062 209 c 1,32,-1
 130.037109375 -246 l 1,33,-1
 -100.962890625 -246 l 1,16,-1
EndSplineSet
EndChar

StartChar: thorn
Encoding: 254 254 391
Width: 922
VWidth: 2360
GlyphClass: 1
Flags: HW
LayerCount: 2
Fore
SplineSet
408.08984375 291 m 0,0,1
 466.08984375 291 466.08984375 291 516.658203125 323 c 128,-1,2
 567.2265625 355 567.2265625 355 606.580078125 433 c 128,-1,3
 645.934570312 511 645.934570312 511 668.266601562 652 c 0,4,5
 695.508789062 824 695.508789062 824 658.708984375 910.5 c 128,-1,6
 621.909179688 997 621.909179688 997 530.225585938 999 c 0,7,8
 528.200195312 999.04296875 528.200195312 999.04296875 526.1875 999.04296875 c 0,0,0
 435.086914062 999.04296875 435.086914062 999.04296875 369.208984375 910.5 c 128,-1,9
 301.875 820 301.875 820 270.83203125 624 c 0,10,11
 245.114257812 449 245.114257812 449 281.102539062 370 c 128,-1,12
 317.08984375 291 317.08984375 291 408.08984375 291 c 0,0,1
195.216796875 1624 m 1,13,-1
 444.216796875 1624 l 1,14,-1
 441.20703125 1605 l 1,15,16
 426.1484375 1592 426.1484375 1592 420.455078125 1575 c 128,-1,17
 414.762695312 1558 414.762695312 1558 409.061523438 1522 c 2,18,-1
 330.02734375 1023 l 1,19,20
 388.490234375 1108 388.490234375 1108 460.5625 1149.5 c 128,-1,21
 532.635742188 1191 532.635742188 1191 617.635742188 1191 c 0,22,23
 717.635742188 1191 717.635742188 1191 792.028320312 1133.5 c 128,-1,24
 866.421875 1076 866.421875 1076 897.3359375 955.5 c 128,-1,25
 928.250976562 835 928.250976562 835 898.158203125 645 c 128,-1,26
 868.064453125 455 868.064453125 455 797.979492188 334.5 c 128,-1,27
 727.89453125 214 727.89453125 214 634.366210938 157 c 128,-1,28
 540.838867188 100 540.838867188 100 439.838867188 100 c 0,29,30
 363.838867188 100 363.838867188 100 302.168945312 130.5 c 128,-1,31
 240.5 161 240.5 161 209.002929688 221 c 1,32,-1
 135.037109375 -246 l 1,33,-1
 -100.962890625 -246 l 1,34,-1
 195.216796875 1624 l 1,13,-1
EndSplineSet
EndChar

StartChar: q
Encoding: 113 113 392
Width: 905
VWidth: 2293
GlyphClass: 1
Flags: HW
LayerCount: 2
Fore
SplineSet
414.189453125 279 m 0,0,1
 493.189453125 279 493.189453125 279 556.439453125 359.5 c 128,-1,2
 619.689453125 440 619.689453125 440 650.57421875 635 c 0,3,4
 680.508789062 824 680.508789062 824 640.650390625 897.5 c 128,-1,5
 600.791015625 971 600.791015625 971 523.791015625 971 c 0,6,7
 436.791015625 971 436.791015625 971 366.674804688 894.5 c 128,-1,8
 296.55859375 818 296.55859375 818 266.624023438 629 c 0,9,10
 237.639648438 446 237.639648438 446 278.9140625 362.5 c 128,-1,11
 320.189453125 279 320.189453125 279 414.189453125 279 c 0,0,1
511.037109375 -246 m 1,12,-1
 584.52734375 218 l 1,13,14
 541.549804688 155 541.549804688 155 477.639648438 124 c 128,-1,15
 413.729492188 93 413.729492188 93 342.729492188 93 c 0,16,17
 157.729492188 93 157.729492188 93 77.87890625 236 c 128,-1,18
 -1.97265625 379 -1.97265625 379 36.673828125 623 c 0,19,20
 78.169921875 885 78.169921875 885 205.47265625 1019.5 c 128,-1,21
 332.775390625 1154 332.775390625 1154 517.775390625 1154 c 0,22,23
 598.775390625 1154 598.775390625 1154 646.390625 1120 c 128,-1,24
 694.005859375 1086 694.005859375 1086 719.02734375 1023 c 1,25,-1
 735.974609375 1130 l 1,26,-1
 957.974609375 1130 l 1,27,-1
 740.037109375 -246 l 1,28,-1
 511.037109375 -246 l 1,12,-1
EndSplineSet
EndChar

StartChar: r
Encoding: 114 114 393
Width: 902
VWidth: 2424
GlyphClass: 2
Flags: HW
AnchorPoint: "Anchor-2" 374 0 basechar 0
AnchorPoint: "Anchor-0" 551.391 1120 basechar 0
LayerCount: 2
Fore
SplineSet
116.499023438 1127 m 1,0,-1
 378.499023438 1127 l 1,1,-1
 347.940429688 953 l 1,2,3
 403.987304688 1048 403.987304688 1048 494.880859375 1101 c 128,-1,4
 585.775390625 1154 585.775390625 1154 678.775390625 1154 c 0,5,6
 850.775390625 1154 850.775390625 1154 938.02734375 1023 c 1,7,-1
 800.291015625 810 l 1,8,-1
 786.806640625 788 l 1,9,-1
 770.390625 798 l 1,10,11
 766.400390625 817 766.400390625 817 761.646484375 837.5 c 128,-1,12
 756.893554688 858 756.893554688 858 735.645507812 888 c 1,13,14
 679.55078125 936.01953125 679.55078125 936.01953125 610.088867188 936.01953125 c 0,15,16
 608.670898438 936.01953125 608.670898438 936.01953125 607.248046875 936 c 0,17,18
 540.248046875 936 540.248046875 936 473.362304688 902 c 128,-1,19
 406.477539062 868 406.477539062 868 357.51953125 792.5 c 128,-1,20
 308.561523438 717 308.561523438 717 289.080078125 594 c 2,21,-1
 194.68359375 -2 l 1,22,-1
 -62.31640625 -2 l 1,23,-1
 116.499023438 1127 l 1,0,-1
EndSplineSet
EndChar

StartChar: uni027B
Encoding: 635 635 399
Width: 873
VWidth: 2271
GlyphClass: 1
Flags: HW
LayerCount: 2
Fore
SplineSet
574.037109375 -246 m 0,0,1
 439.037109375 -246 439.037109375 -246 389.975585938 -158 c 0,2,3
 340.913085938 -70 340.913085938 -70 368.58984375 130 c 1,4,-1
 390.921875 271 l 1,5,6
 347.04296875 196 347.04296875 196 276.391601562 154 c 0,7,8
 207.739257812 112 207.739257812 112 141.581054688 111 c 0,9,10
 83.5810546875 111 83.5810546875 111 33.3818359375 135 c 0,11,12
 -16.81640625 159 -16.81640625 159 -57.10546875 214 c 1,13,-1
 46.720703125 396 l 1,14,-1
 55.7294921875 415 l 1,15,-1
 70.62109375 408 l 1,16,17
 74.2451171875 393 74.2451171875 393 77.552734375 376 c 0,18,19
 80.8603515625 359 80.8603515625 359 99.5341796875 338 c 1,20,21
 119 322 119 322 139.732421875 314 c 0,22,23
 160.465820312 306 160.465820312 306 189.465820312 306 c 0,24,25
 237.465820312 306 237.465820312 306 290.850585938 340 c 0,26,27
 343.235351562 374 343.235351562 374 386.005859375 442 c 0,28,29
 428.776367188 510 428.776367188 510 443.981445312 606 c 2,30,-1
 527.291015625 1132 l 1,31,-1
 733.291015625 1132 l 1,32,-1
 572.2734375 128 l 2,33,34
 542.813476562 -58 542.813476562 -58 630.813476562 -58 c 0,35,36
 644.813476562 -58 644.813476562 -58 659.130859375 -56 c 0,37,38
 673.447265625 -54 673.447265625 -54 688.873046875 -45 c 0,39,40
 704.139648438 -37 704.139648438 -37 708.881835938 -26 c 0,41,42
 713.624023438 -15 713.624023438 -15 723.2578125 -11 c 1,43,-1
 737.065429688 -189 l 1,44,45
 663.037109375 -246 663.037109375 -246 574.037109375 -246 c 0,0,1
EndSplineSet
EndChar

StartChar: uni024D
Encoding: 589 589 402
Width: 922
VWidth: 2424
GlyphClass: 2
Flags: HW
AnchorPoint: "Anchor-2" 437 0 basechar 0
AnchorPoint: "Anchor-0" 614.391 1120 basechar 0
LayerCount: 2
Fore
SplineSet
-1.1806640625 384 m 1,0,-1
 32.080078125 594 l 1,1,-1
 143.080078125 594 l 1,2,-1
 227.499023438 1127 l 1,3,-1
 460.499023438 1127 l 1,4,-1
 430.940429688 953 l 1,5,6
 482.987304688 1048 482.987304688 1048 564.880859375 1101 c 128,-1,7
 646.775390625 1154 646.775390625 1154 728.775390625 1154 c 0,8,9
 881.775390625 1154 881.775390625 1154 958.02734375 1023 c 1,10,-1
 831.291015625 810 l 1,11,-1
 819.806640625 788 l 1,12,-1
 804.390625 798 l 1,13,14
 801.400390625 817 801.400390625 817 797.646484375 837.5 c 128,-1,15
 793.893554688 858 793.893554688 858 775.645507812 888 c 1,16,17
 726.411132812 936.01953125 726.411132812 936.01953125 663.80859375 936.01953125 c 0,18,19
 662.53125 936.01953125 662.53125 936.01953125 661.248046875 936 c 0,20,21
 601.248046875 936 601.248046875 936 541.362304688 902 c 128,-1,22
 481.477539062 868 481.477539062 868 436.51953125 792.5 c 128,-1,23
 391.561523438 717 391.561523438 717 372.080078125 594 c 1,24,-1
 607.080078125 594 l 1,25,-1
 573.819335938 384 l 1,26,-1
 338.819335938 384 l 1,27,-1
 277.68359375 -2 l 1,28,-1
 48.68359375 -2 l 1,29,-1
 109.819335938 384 l 1,30,-1
 -1.1806640625 384 l 1,0,-1
EndSplineSet
EndChar

StartChar: s
Encoding: 115 115 403
Width: 922
VWidth: 2424
GlyphClass: 1
Flags: HW
LayerCount: 2
Fore
SplineSet
381.723632812 -27 m 0,0,1
 244.723632812 -27 244.723632812 -27 137.900390625 12 c 128,-1,2
 31.0771484375 51 31.0771484375 51 -40.7763671875 134 c 1,3,-1
 96.484375 344 l 1,4,-1
 110.96875 366 l 1,5,-1
 126.384765625 356 l 1,6,7
 130.375976562 337 130.375976562 337 135.287109375 317.5 c 128,-1,8
 140.198242188 298 140.198242188 298 162.921875 271 c 0,9,10
 207.953125 227 207.953125 227 267.231445312 203.5 c 128,-1,11
 326.508789062 180 326.508789062 180 414.508789062 180 c 128,-1,12
 502.508789062 180 502.508789062 180 557.948242188 217.5 c 128,-1,13
 613.387695312 255 613.387695312 255 622.57421875 313 c 0,14,15
 631.444335938 369 631.444335938 369 585.224609375 405.5 c 128,-1,16
 539.005859375 442 539.005859375 442 424.5 483 c 0,17,18
 272.577148438 534 272.577148438 534 188.40625 615 c 128,-1,19
 104.235351562 696 104.235351562 696 126.250976562 835 c 0,20,21
 147.791015625 971 147.791015625 971 268.283203125 1062.5 c 128,-1,22
 388.775390625 1154 388.775390625 1154 568.775390625 1154 c 0,23,24
 818.775390625 1154 818.775390625 1154 940.80078125 990 c 1,25,-1
 795.608398438 812 l 1,26,-1
 777.598632812 793 l 1,27,-1
 763.499023438 805 l 1,28,29
 764.508789062 824 764.508789062 824 758.938476562 842.5 c 128,-1,30
 753.369140625 861 753.369140625 861 731.645507812 888 c 1,31,32
 693.713867188 920 693.713867188 920 645.668945312 935.5 c 128,-1,33
 597.624023438 951 597.624023438 951 543.624023438 951 c 0,34,35
 470.624023438 951 470.624023438 951 415.530273438 922 c 128,-1,36
 360.4375 893 360.4375 893 351.884765625 839 c 0,37,38
 343.806640625 788 343.806640625 788 393.526367188 751.5 c 128,-1,39
 443.245117188 715 443.245117188 715 568.750976562 674 c 0,40,41
 736.881835938 618 736.881835938 618 802.948242188 539.5 c 128,-1,42
 869.015625 461 869.015625 461 847.791992188 327 c 0,43,44
 824.034179688 177 824.034179688 177 701.87890625 75 c 128,-1,45
 579.723632812 -27 579.723632812 -27 381.723632812 -27 c 0,0,1
EndSplineSet
EndChar

StartChar: germandbls
Encoding: 223 223 414
Width: 922
VWidth: 2424
GlyphClass: 1
Flags: HW
LayerCount: 2
Fore
SplineSet
432.248046875 -30 m 0,0,1
 367.248046875 -30 367.248046875 -30 324.520507812 -12.5 c 128,-1,2
 281.791992188 5 281.791992188 5 235.176757812 39 c 1,3,-1
 350.012695312 240 l 1,4,5
 388.934570312 189 388.934570312 189 449.934570312 189 c 0,6,7
 518.934570312 189 518.934570312 189 572.397460938 274 c 128,-1,8
 625.860351562 359 625.860351562 359 643.440429688 470 c 0,9,10
 662.129882812 588 662.129882812 588 621.221679688 667.5 c 128,-1,11
 580.313476562 747 580.313476562 747 454.313476562 747 c 2,12,-1
 377.313476562 747 l 1,13,-1
 410.256835938 955 l 1,14,-1
 499.256835938 955 l 2,15,16
 564.256835938 955 564.256835938 955 618.83984375 1015.5 c 128,-1,17
 673.421875 1076 673.421875 1076 690.685546875 1185 c 0,18,19
 706.840820312 1287 706.840820312 1287 672.21484375 1352.5 c 128,-1,20
 637.588867188 1418 637.588867188 1418 560.588867188 1418 c 0,21,22
 479.588867188 1418 479.588867188 1418 417.725585938 1321 c 128,-1,23
 355.862304688 1224 355.862304688 1224 329.887695312 1060 c 2,24,-1
 162 0 l 1,25,-1
 -62 0 l 1,26,-1
 103.1953125 1043 l 2,27,28
 151.977539062 1351 151.977539062 1351 281.493164062 1490 c 128,-1,29
 411.0078125 1629 411.0078125 1629 583.0078125 1629 c 0,30,31
 699.0078125 1629 699.0078125 1629 778.98046875 1572 c 128,-1,32
 858.952148438 1515 858.952148438 1515 892.588867188 1418 c 128,-1,33
 926.225585938 1321 926.225585938 1321 907.536132812 1203 c 0,34,35
 891.064453125 1099 891.064453125 1099 842.022460938 1013.5 c 128,-1,36
 792.98046875 928 792.98046875 928 705.5859375 875 c 1,37,38
 804.409179688 836 804.409179688 836 848.987304688 726 c 128,-1,39
 893.564453125 616 893.564453125 616 866.639648438 446 c 0,40,41
 832.111328125 228 832.111328125 228 711.6796875 99 c 128,-1,42
 591.248046875 -30 591.248046875 -30 432.248046875 -30 c 0,0,1
EndSplineSet
EndChar

StartChar: t
Encoding: 116 116 415
Width: 922
VWidth: 2424
GlyphClass: 2
Flags: HW
AnchorPoint: "Anchor-4" 385.412 735 basechar 0
AnchorPoint: "Anchor-2" 408 0 basechar 0
AnchorPoint: "Anchor-1" 647.707 1122 basechar 0
AnchorPoint: "Anchor-0" 551.064 1421 basechar 0
LayerCount: 2
Fore
SplineSet
459.19921875 -24 m 0,0,1
 340.19921875 -24 340.19921875 -24 271.331054688 30.5 c 128,-1,2
 202.462890625 85 202.462890625 85 190.765625 219.5 c 0,3,4
 181.115234375 330.462890625 181.115234375 330.462890625 209.30859375 508.466796875 c 0,5,6
 215.288085938 546.224609375 215.288085938 546.224609375 222.971679688 587 c 2,7,-1
 286.971679688 909 l 1,8,-1
 81.9716796875 909 l 1,9,-1
 117.390625 1120 l 1,10,-1
 327.390625 1120 l 1,11,-1
 379.946289062 1395 l 1,12,-1
 643.172851562 1428 l 1,13,-1
 664.490234375 1430 l 1,14,-1
 665.1640625 1409 l 1,15,16
 653.470703125 1392 653.470703125 1392 640.541015625 1373.5 c 128,-1,17
 627.611328125 1355 627.611328125 1355 618.43359375 1316 c 2,18,-1
 576.390625 1120 l 1,19,-1
 894.390625 1120 l 1,20,-1
 857.971679688 909 l 1,21,-1
 539.971679688 909 l 1,22,-1
 474.447265625 590 l 2,23,24
 464.603515625 541.3046875 464.603515625 541.3046875 457.955078125 499.32421875 c 0,25,26
 442.756835938 403.369140625 442.756835938 403.369140625 444.247070312 342.5 c 0,27,28
 446.387695312 255 446.387695312 255 475.502929688 221 c 128,-1,29
 504.618164062 187 504.618164062 187 551.618164062 187 c 0,30,31
 620.618164062 187 620.618164062 187 679.7109375 216 c 128,-1,32
 738.803710938 245 738.803710938 245 792.981445312 284 c 1,33,-1
 810.571289062 92 l 1,34,35
 646.19921875 -24 646.19921875 -24 459.19921875 -24 c 0,0,1
EndSplineSet
EndChar

StartChar: tbar
Encoding: 359 359 416
Width: 922
VWidth: 2424
GlyphClass: 2
Flags: HW
AnchorPoint: "Anchor-4" 390.412 735 basechar 0
AnchorPoint: "Anchor-2" 412 0 basechar 0
AnchorPoint: "Anchor-1" 650.707 1122 basechar 0
AnchorPoint: "Anchor-0" 556.064 1421 basechar 0
LayerCount: 2
Fore
SplineSet
17.5087890625 502 m 1,0,-1
 51.2451171875 715 l 1,1,-1
 255.245117188 715 l 1,2,-1
 293.971679688 909 l 1,3,-1
 90.9716796875 909 l 1,4,-1
 127.390625 1120 l 1,5,-1
 334.390625 1120 l 1,6,-1
 386.946289062 1395 l 1,7,-1
 647.172851562 1428 l 1,8,-1
 668.490234375 1430 l 1,9,-1
 669.1640625 1409 l 1,10,11
 657.470703125 1392 657.470703125 1392 644.541015625 1373.5 c 128,-1,12
 631.611328125 1355 631.611328125 1355 622.43359375 1316 c 2,13,-1
 580.390625 1120 l 1,14,-1
 894.390625 1120 l 1,15,-1
 858.971679688 909 l 1,16,-1
 544.971679688 909 l 1,17,-1
 503.245117188 715 l 1,18,-1
 816.245117188 715 l 1,19,-1
 782.508789062 502 l 1,20,-1
 462.508789062 502 l 1,21,22
 434.890625 315 434.890625 315 463.254882812 251 c 128,-1,23
 491.618164062 187 491.618164062 187 554.618164062 187 c 0,24,25
 622.618164062 187 622.618164062 187 681.2109375 216 c 128,-1,26
 739.803710938 245 739.803710938 245 793.981445312 284 c 1,27,-1
 810.571289062 92 l 1,28,29
 647.19921875 -24 647.19921875 -24 462.19921875 -24 c 0,30,31
 353.19921875 -24 353.19921875 -24 287.642578125 23 c 128,-1,32
 222.086914062 70 222.086914062 70 203.379882812 185.5 c 128,-1,33
 184.673828125 301 184.673828125 301 214.508789062 502 c 1,34,-1
 17.5087890625 502 l 1,0,-1
EndSplineSet
EndChar

StartChar: u
Encoding: 117 117 423
Width: 922
VWidth: 2424
GlyphClass: 2
Flags: HW
AnchorPoint: "Anchor-3" 598 0 basechar 0
AnchorPoint: "Anchor-2" 309 0 basechar 0
AnchorPoint: "Anchor-1" 937.391 1120 basechar 0
AnchorPoint: "Anchor-0" 538.391 1120 basechar 0
LayerCount: 2
Fore
SplineSet
276.723632812 -27 m 0,0,1
 123.723632812 -27 123.723632812 -27 45.462890625 85 c 0,2,3
 -31.201171875 194.713867188 -31.201171875 194.713867188 10.6455078125 458.923828125 c 0,4,5
 11.517578125 464.428710938 11.517578125 464.428710938 12.4404296875 470 c 2,6,-1
 116.499023438 1127 l 1,7,-1
 362.499023438 1127 l 1,8,-1
 257.33203125 463 l 2,9,10
 231.990234375 303 231.990234375 303 265.145507812 244 c 128,-1,11
 298.30078125 185 298.30078125 185 361.30078125 185 c 0,12,13
 449.30078125 185 449.30078125 185 515.1796875 260 c 128,-1,14
 581.05859375 335 581.05859375 335 604.81640625 485 c 2,15,-1
 706.499023438 1127 l 1,16,-1
 952.499023438 1127 l 1,17,-1
 802.192382812 178 l 2,18,19
 794.431640625 129 794.431640625 129 790.962890625 85 c 128,-1,20
 787.494140625 41 787.494140625 41 796 0 c 1,21,-1
 569 0 l 1,22,23
 560.384765625 34 560.384765625 34 562.270507812 68 c 128,-1,24
 564.155273438 102 564.155273438 102 570.33203125 141 c 1,25,26
 514.186523438 58 514.186523438 58 436.955078125 15.5 c 128,-1,27
 359.723632812 -27 359.723632812 -27 276.723632812 -27 c 0,0,1
EndSplineSet
EndChar

StartChar: v
Encoding: 118 118 446
Width: 922
VWidth: 2424
GlyphClass: 2
Flags: HW
AnchorPoint: "Anchor-2" 373 0 basechar 0
AnchorPoint: "Anchor-0" 548.707 1122 basechar 0
LayerCount: 2
Fore
SplineSet
279 0 m 1,0,-1
 116.499023438 1127 l 1,1,-1
 353.499023438 1127 l 1,2,-1
 446.384765625 356 l 1,3,-1
 602.384765625 678 l 2,4,5
 658.548828125 799 658.548828125 799 700.184570312 913.5 c 128,-1,6
 741.819335938 1028 741.819335938 1028 761.499023438 1127 c 1,7,-1
 974.499023438 1127 l 1,8,9
 946.551757812 1020 946.551757812 1020 895.387695312 899 c 128,-1,10
 844.22265625 778 844.22265625 778 785.266601562 652 c 2,11,-1
 465 0 l 1,12,-1
 279 0 l 1,0,-1
EndSplineSet
EndChar

StartChar: w
Encoding: 119 119 447
Width: 888
VWidth: 2424
GlyphClass: 2
Flags: HW
AnchorPoint: "Anchor-2" 346 0 basechar 0
AnchorPoint: "Anchor-0" 523.391 1120 basechar 0
LayerCount: 2
Fore
SplineSet
65.68359375 -2 m 1,0,-1
 92.4990234375 1127 l 1,1,-1
 271.499023438 1127 l 1,2,-1
 240.860351562 359 l 1,3,-1
 456.850585938 984 l 1,4,-1
 567.850585938 984 l 1,5,-1
 605.493164062 363 l 1,6,7
 658.12109375 569 658.12109375 569 689.185546875 702 c 128,-1,8
 720.250976562 835 720.250976562 835 737.79296875 920.5 c 128,-1,9
 755.334960938 1006 755.334960938 1006 765.3125 1069 c 2,10,-1
 774.499023438 1127 l 1,11,-1
 950.499023438 1127 l 1,12,13
 891.577148438 856 891.577148438 856 809.853515625 561 c 128,-1,14
 728.129882812 266 728.129882812 266 647.68359375 -2 c 1,15,-1
 465.68359375 -2 l 1,16,-1
 447.447265625 590 l 1,17,-1
 247.68359375 -2 l 1,18,-1
 65.68359375 -2 l 1,0,-1
EndSplineSet
EndChar

StartChar: x
Encoding: 120 120 452
Width: 922
VWidth: 2424
GlyphClass: 2
Flags: HW
AnchorPoint: "Anchor-2" 364 0 basechar 0
AnchorPoint: "Anchor-0" 541.707 1122 basechar 0
LayerCount: 2
Fore
SplineSet
-62 0 m 1,0,-1
 333.487304688 565 l 1,1,-1
 120.499023438 1127 l 1,2,-1
 352.499023438 1127 l 1,3,-1
 485.540039062 780 l 1,4,-1
 716.499023438 1127 l 1,5,-1
 938.499023438 1127 l 1,6,-1
 568.387695312 577 l 1,7,-1
 796 0 l 1,8,-1
 561 0 l 1,9,-1
 418.860351562 359 l 1,10,-1
 174 0 l 1,11,-1
 -62 0 l 1,0,-1
EndSplineSet
EndChar

StartChar: y
Encoding: 121 121 453
Width: 914
VWidth: 2274
GlyphClass: 2
Flags: HW
AnchorPoint: "Anchor-2" 673.432 129 basechar 0
AnchorPoint: "Anchor-0" 580.866 1123 basechar 0
LayerCount: 2
Fore
SplineSet
111.037109375 -246 m 0,0,1
 47.037109375 -246 47.037109375 -246 -0.0576171875 -224.5 c 128,-1,2
 -47.15234375 -203 -47.15234375 -203 -87.341796875 -160 c 1,3,-1
 12.6337890625 4 l 1,4,-1
 25.80078125 24 l 1,5,-1
 41.3759765625 15 l 1,6,7
 45 0 45 0 51.4658203125 -16 c 128,-1,8
 57.931640625 -32 57.931640625 -32 81.9228515625 -51 c 1,9,10
 107.86328125 -64 107.86328125 -64 142.86328125 -64 c 0,11,12
 200.86328125 -64 200.86328125 -64 243.336914062 -10.5 c 128,-1,13
 285.810546875 43 285.810546875 43 340.024414062 158 c 1,14,-1
 340.658203125 162 l 1,15,-1
 145.499023438 1127 l 1,16,-1
 369.499023438 1127 l 1,17,-1
 488.916015625 473 l 1,18,-1
 626.688476562 762 l 2,19,20
 671.260742188 854 671.260742188 854 706.09375 944.5 c 128,-1,21
 740.927734375 1035 740.927734375 1035 760.499023438 1127 c 1,22,-1
 966.499023438 1127 l 1,23,24
 945.293945312 1031 945.293945312 1031 894.767578125 923.5 c 128,-1,25
 844.2421875 816 844.2421875 816 795.561523438 717 c 2,26,-1
 466.860351562 37 l 2,27,28
 391.46875 -117 391.46875 -117 301.752929688 -181.5 c 128,-1,29
 212.037109375 -246 212.037109375 -246 111.037109375 -246 c 0,0,1
EndSplineSet
EndChar

StartChar: z
Encoding: 122 122 463
Width: 922
VWidth: 2424
GlyphClass: 2
Flags: HW
AnchorPoint: "Anchor-2" 378 0 basechar 0
AnchorPoint: "Anchor-0" 560.707 1122 basechar 0
LayerCount: 2
Fore
SplineSet
-36.658203125 160 m 1,0,-1
 603.971679688 909 l 1,1,-1
 122.971679688 909 l 1,2,-1
 157.499023438 1127 l 1,3,-1
 929.499023438 1127 l 1,4,-1
 903.048828125 960 l 1,5,-1
 271.52734375 218 l 1,6,-1
 726.52734375 218 l 2,7,8
 765.52734375 218 765.52734375 218 781.58203125 221.5 c 128,-1,9
 797.63671875 225 797.63671875 225 813.012695312 240 c 1,10,-1
 834.012695312 240 l 1,11,-1
 796 0 l 1,12,-1
 -62 0 l 1,13,-1
 -36.658203125 160 l 1,0,-1
EndSplineSet
EndChar

StartChar: u.i
Encoding: 65539 -1 468
Width: 876
VWidth: 2424
GlyphClass: 2
Flags: HW
AnchorPoint: "Anchor-3" 595 0 basechar 0
AnchorPoint: "Anchor-2" 290 0 basechar 0
AnchorPoint: "Anchor-1" 886.707 1122 basechar 0
AnchorPoint: "Anchor-0" 501.707 1122 basechar 0
LayerCount: 2
Fore
SplineSet
259.723632812 -27 m 0,0,1
 113.723632812 -27 113.723632812 -27 40.462890625 85 c 0,2,3
 -31.22265625 194.591796875 -31.22265625 194.591796875 10.5498046875 458.333007812 c 0,4,5
 11.4677734375 464.12890625 11.4677734375 464.12890625 12.4404296875 470 c 2,6,-1
 116.499023438 1127 l 1,7,-1
 349.499023438 1127 l 1,8,-1
 244.33203125 463 l 2,9,10
 218.990234375 303 218.990234375 303 249.645507812 244 c 128,-1,11
 280.30078125 185 280.30078125 185 340.30078125 185 c 0,12,13
 423.30078125 185 423.30078125 185 487.1796875 260 c 128,-1,14
 551.05859375 335 551.05859375 335 574.81640625 485 c 2,15,-1
 676.499023438 1127 l 1,16,-1
 909.499023438 1127 l 1,17,-1
 759.192382812 178 l 2,18,19
 751.431640625 129 751.431640625 129 746.962890625 85 c 128,-1,20
 742.494140625 41 742.494140625 41 750 0 c 1,21,-1
 537 0 l 1,22,23
 528.384765625 34 528.384765625 34 530.270507812 68 c 128,-1,24
 532.155273438 102 532.155273438 102 538.33203125 141 c 1,25,26
 486.186523438 58 486.186523438 58 411.955078125 15.5 c 128,-1,27
 337.723632812 -27 337.723632812 -27 259.723632812 -27 c 0,0,1
EndSplineSet
EndChar

StartChar: r.serif
Encoding: 65540 -1 469
Width: 922
VWidth: 2424
GlyphClass: 1
Flags: HW
LayerCount: 2
Fore
SplineSet
-62 0 m 1,0,-1
 -29.373046875 206 l 1,1,-1
 85.626953125 206 l 1,2,-1
 198.555664062 919 l 1,3,-1
 87.5556640625 919 l 1,4,-1
 120.499023438 1127 l 1,5,-1
 463.499023438 1127 l 1,6,-1
 435.940429688 953 l 1,7,8
 495.303710938 1050 495.303710938 1050 576.040039062 1102 c 128,-1,9
 656.775390625 1154 656.775390625 1154 737.775390625 1154 c 0,10,11
 802.775390625 1154 802.775390625 1154 861.024414062 1124 c 128,-1,12
 919.272460938 1094 919.272460938 1094 959.453125 1032 c 1,13,-1
 841.708007812 800 l 1,14,15
 823.024414062 802 823.024414062 802 817.192382812 822 c 128,-1,16
 811.359375 842 811.359375 842 800.3984375 867.5 c 128,-1,17
 789.4375 893 789.4375 893 760.208984375 910.5 c 128,-1,18
 730.98046875 928 730.98046875 928 670.98046875 928 c 0,19,20
 612.98046875 928 612.98046875 928 550.329101562 886 c 128,-1,21
 487.676757812 844 487.676757812 844 438.297851562 769 c 128,-1,22
 388.918945312 694 388.918945312 694 372.763671875 592 c 2,23,-1
 311.626953125 206 l 1,24,-1
 475.626953125 206 l 1,25,-1
 443 0 l 1,26,-1
 -62 0 l 1,0,-1
EndSplineSet
EndChar

StartChar: ordfeminine
Encoding: 170 170 470
Width: 862
VWidth: 2424
GlyphClass: 1
Flags: HW
LayerCount: 2
Fore
SplineSet
22.5771484375 534 m 1,0,-1
 820.577148438 534 l 1,1,-1
 788.266601562 330 l 1,2,-1
 -9.7333984375 330 l 1,3,-1
 22.5771484375 534 l 1,0,-1
338.654296875 907 m 0,4,5
 330.260742188 854 330.260742188 854 353.825195312 826 c 128,-1,6
 377.390625 798 377.390625 798 418.390625 798 c 0,7,8
 493.390625 798 493.390625 798 542.180664062 853.5 c 128,-1,9
 590.971679688 909 590.971679688 909 616.877929688 1041 c 1,10,11
 604.877929688 1041 604.877929688 1041 592.377929688 1041 c 128,-1,12
 579.877929688 1041 579.877929688 1041 570.877929688 1041 c 0,13,14
 449.877929688 1041 449.877929688 1041 398.859375 1003 c 128,-1,15
 347.840820312 965 347.840820312 965 338.654296875 907 c 0,4,5
344.990234375 625 m 0,16,17
 221.990234375 625 221.990234375 625 165.15625 695.5 c 128,-1,18
 108.322265625 766 108.322265625 766 125.5859375 875 c 0,19,20
 149.02734375 1023 149.02734375 1023 269.543945312 1111.5 c 128,-1,21
 390.061523438 1200 390.061523438 1200 598.061523438 1200 c 0,22,23
 615.061523438 1200 615.061523438 1200 638.744140625 1198 c 1,24,25
 646.69140625 1305 646.69140625 1305 616.338867188 1337.5 c 128,-1,26
 585.986328125 1370 585.986328125 1370 525.986328125 1370 c 0,27,28
 474.986328125 1370 474.986328125 1370 431.21484375 1352.5 c 128,-1,29
 387.443359375 1335 387.443359375 1335 335.840820312 1287 c 1,30,-1
 242.272460938 1416 l 1,31,32
 315.250976562 1479 315.250976562 1479 397.501953125 1509 c 128,-1,33
 479.75390625 1539 479.75390625 1539 567.75390625 1539 c 0,34,35
 664.75390625 1539 664.75390625 1539 736.106445312 1506.5 c 128,-1,36
 807.458984375 1474 807.458984375 1474 836.837890625 1388 c 128,-1,37
 866.216796875 1302 866.216796875 1302 841.350585938 1145 c 2,38,-1
 762.6328125 648 l 1,39,-1
 551.6328125 648 l 1,40,-1
 564.145507812 727 l 1,41,42
 516.276367188 671 516.276367188 671 464.1328125 648 c 128,-1,43
 411.990234375 625 411.990234375 625 344.990234375 625 c 0,16,17
EndSplineSet
EndChar

StartChar: ordmasculine
Encoding: 186 186 471
Width: 862
VWidth: 2424
GlyphClass: 1
Flags: HW
LayerCount: 2
Fore
SplineSet
22.5771484375 534 m 1,0,-1
 820.577148438 534 l 1,1,-1
 788.266601562 330 l 1,2,-1
 -9.7333984375 330 l 1,3,-1
 22.5771484375 534 l 1,0,-1
463.499023438 805 m 128,-1,5
 533.499023438 805 533.499023438 805 586.061523438 878 c 128,-1,6
 638.624023438 951 638.624023438 951 659.213867188 1081 c 0,7,8
 681.545898438 1222 681.545898438 1222 650.211914062 1292.5 c 128,-1,9
 618.877929688 1363 618.877929688 1363 551.877929688 1363 c 128,-1,10
 484.877929688 1363 484.877929688 1363 430.711914062 1292.5 c 128,-1,11
 376.545898438 1222 376.545898438 1222 354.213867188 1081 c 0,12,13
 333.46484375 950 333.46484375 950 363.482421875 877.5 c 128,-1,4
 393.499023438 805 393.499023438 805 463.499023438 805 c 128,-1,5
435.306640625 627 m 0,14,15
 280.306640625 627 280.306640625 627 195.837890625 744 c 128,-1,16
 111.369140625 861 111.369140625 861 146.213867188 1081 c 0,17,18
 180.741210938 1299 180.741210938 1299 303.747070312 1419 c 128,-1,19
 426.75390625 1539 426.75390625 1539 579.75390625 1539 c 128,-1,20
 732.75390625 1539 732.75390625 1539 817.827148438 1419.5 c 128,-1,21
 902.899414062 1300 902.899414062 1300 868.213867188 1081 c 0,22,23
 833.369140625 861 833.369140625 861 710.837890625 744 c 128,-1,24
 588.306640625 627 588.306640625 627 435.306640625 627 c 0,14,15
EndSplineSet
EndChar

StartChar: uni2124
Encoding: 8484 8484 473
Width: 922
VWidth: 2424
GlyphClass: 1
Flags: HW
LayerCount: 2
Fore
SplineSet
853.443359375 1335 m 1,0,-1
 743.443359375 1335 l 1,1,-1
 117.2421875 172 l 1,2,-1
 230.2421875 172 l 1,3,-1
 853.443359375 1335 l 1,0,-1
1035.31933594 1511 m 1,4,-1
 1009.50195312 1348 l 1,5,-1
 373.2421875 172 l 1,6,-1
 715.2421875 172 l 2,7,8
 752.2421875 172 752.2421875 172 770.034179688 177 c 128,-1,9
 787.826171875 182 787.826171875 182 805.202148438 197 c 1,10,-1
 825.202148438 197 l 1,11,-1
 794 0 l 1,12,-1
 -62 0 l 1,13,-1
 -36.341796875 162 l 1,14,-1
 595.443359375 1335 l 1,15,-1
 153.443359375 1335 l 1,16,-1
 181.319335938 1511 l 1,17,-1
 1035.31933594 1511 l 1,4,-1
EndSplineSet
EndChar

StartChar: zero
Encoding: 48 48 474
Width: 922
VWidth: 2424
GlyphClass: 1
Flags: HW
LayerCount: 2
Fore
SplineSet
396.192382812 178 m 0,0,1
 604.192382812 178 604.192382812 178 694.313476562 747 c 0,2,3
 708.567382812 837 708.567382812 837 716.446289062 912 c 1,4,-1
 252.869140625 378 l 1,5,6
 272.192382812 178 272.192382812 178 396.192382812 178 c 0,0,1
275.313476562 747 m 0,7,8
 260.266601562 652 260.266601562 652 253.595703125 572 c 1,9,-1
 716.282226562 1113 l 1,10,11
 697.68359375 1316.00488281 697.68359375 1316.00488281 577.61328125 1316.00488281 c 0,0,0
 577.025390625 1316.00488281 577.025390625 1316.00488281 576.43359375 1316 c 0,12,13
 473.43359375 1316 473.43359375 1316 395.834960938 1167 c 128,-1,14
 318.235351562 1018 318.235351562 1018 275.313476562 747 c 0,7,8
363.723632812 -27 m 128,-1,16
 166.723632812 -27 166.723632812 -27 80.9501953125 167 c 128,-1,17
 -4.8232421875 361 -4.8232421875 361 56.3134765625 747 c 0,18,19
 116.182617188 1125 116.182617188 1125 264.67578125 1327 c 128,-1,20
 413.169921875 1529 413.169921875 1529 610.169921875 1529 c 128,-1,21
 807.169921875 1529 807.169921875 1529 890.67578125 1327 c 128,-1,22
 974.182617188 1125 974.182617188 1125 914.313476562 747 c 0,23,24
 853.176757812 361 853.176757812 361 706.950195312 167 c 128,-1,15
 560.723632812 -27 560.723632812 -27 363.723632812 -27 c 128,-1,16
EndSplineSet
Substitution2: "'ss02' Style Set 2 in Latin lookup 36 subtable" zero.ss02
Substitution2: "'zero' Slashed Zero in Latin lookup 33 subtable" zero.zero
Substitution2: "'frac' Diagonal Fractions in Latin lookup 24 subtable" zero.numr
Substitution2: "'dnom' Denominators in Latin lookup 22 subtable" zero.dnom
Substitution2: "'numr' Numerators in Latin lookup 21 subtable" zero.numr
Substitution2: "'sups' Superscript in Latin lookup 20 subtable" uni2070
Substitution2: "'subs' Subscript in Latin lookup 19 subtable" uni2080
AlternateSubs2: "'aalt' Access All Alternates in Latin lookup 1 subtable" zero.zero zero.ss02 uni2080 zero.dnom zero.numr uni2070
EndChar

StartChar: one
Encoding: 49 49 475
Width: 614
VWidth: 2424
GlyphClass: 1
Flags: HW
LayerCount: 2
Fore
SplineSet
236 0 m 1,0,-1
 428.4375 1215 l 1,1,-1
 168.390625 1120 l 1,2,-1
 143.899414062 1300 l 1,3,-1
 543.635742188 1513 l 1,4,-1
 727.635742188 1513 l 1,5,-1
 488 0 l 1,6,-1
 236 0 l 1,0,-1
EndSplineSet
Substitution2: "'frac' Diagonal Fractions in Latin lookup 24 subtable" one.numr
Substitution2: "'dnom' Denominators in Latin lookup 22 subtable" one.dnom
Substitution2: "'numr' Numerators in Latin lookup 21 subtable" one.numr
Substitution2: "'sups' Superscript in Latin lookup 20 subtable" uni00B9
Substitution2: "'subs' Subscript in Latin lookup 19 subtable" uni2081
AlternateSubs2: "'aalt' Access All Alternates in Latin lookup 1 subtable" uni2081 one.dnom one.numr uni00B9
EndChar

StartChar: two
Encoding: 50 50 476
Width: 922
VWidth: 2424
GlyphClass: 1
Flags: HW
LayerCount: 2
Fore
SplineSet
0.41015625 192 m 1,0,1
 177.65234375 364 177.65234375 364 307.108398438 490 c 128,-1,2
 436.564453125 616 436.564453125 616 524.745117188 715 c 128,-1,3
 612.924804688 814 612.924804688 814 662.416992188 905.5 c 128,-1,4
 711.909179688 997 711.909179688 997 730.588867188 1096 c 0,5,6
 764.325195312 1309 764.325195312 1309 586.325195312 1309 c 0,7,8
 521.325195312 1309 521.325195312 1309 465.024414062 1285 c 128,-1,9
 408.72265625 1261 408.72265625 1261 358.853515625 1205 c 0,10,11
 332.467773438 1171 332.467773438 1171 324.854492188 1154.5 c 128,-1,12
 317.241210938 1138 317.241210938 1138 317.07421875 1118 c 1,13,-1
 302.380859375 1101 l 1,14,-1
 285.282226562 1113 l 1,15,-1
 133.762695312 1236 l 1,16,17
 226.095703125 1377 226.095703125 1377 353.1328125 1453 c 128,-1,18
 480.169921875 1529 480.169921875 1529 623.169921875 1529 c 0,19,20
 740.169921875 1529 740.169921875 1529 824.93359375 1477 c 128,-1,21
 909.698242188 1425 909.698242188 1425 947.67578125 1327 c 128,-1,22
 985.654296875 1229 985.654296875 1229 964.272460938 1094 c 0,23,24
 939.72265625 939 939.72265625 939 855.737304688 806.5 c 128,-1,25
 771.750976562 674 771.750976562 674 637.15625 534.5 c 128,-1,26
 502.561523438 395 502.561523438 395 324.52734375 218 c 1,27,-1
 722.52734375 218 l 2,28,29
 760.52734375 218 760.52734375 218 779.08203125 221.5 c 128,-1,30
 797.63671875 225 797.63671875 225 813.012695312 240 c 1,31,-1
 834.012695312 240 l 1,32,-1
 796 0 l 1,33,-1
 -30 0 l 1,34,-1
 0.41015625 192 l 1,0,1
EndSplineSet
Substitution2: "'frac' Diagonal Fractions in Latin lookup 24 subtable" two.numr
Substitution2: "'dnom' Denominators in Latin lookup 22 subtable" two.dnom
Substitution2: "'numr' Numerators in Latin lookup 21 subtable" two.numr
Substitution2: "'sups' Superscript in Latin lookup 20 subtable" uni00B2
Substitution2: "'subs' Subscript in Latin lookup 19 subtable" uni2082
AlternateSubs2: "'aalt' Access All Alternates in Latin lookup 1 subtable" uni2082 two.dnom two.numr uni00B2
EndChar

StartChar: three
Encoding: 51 51 477
Width: 922
VWidth: 2424
GlyphClass: 1
Flags: HW
LayerCount: 2
Fore
SplineSet
346.723632812 -27 m 0,0,1
 225.723632812 -27 225.723632812 -27 121.509765625 19 c 128,-1,2
 17.294921875 65 17.294921875 65 -37.1337890625 157 c 1,3,-1
 125.05859375 335 l 1,4,-1
 141.750976562 352 l 1,5,-1
 156.850585938 340 l 1,6,7
 155.841796875 321 155.841796875 321 158.911132812 302.5 c 128,-1,8
 161.981445312 284 161.981445312 284 183.387695312 255 c 1,9,10
 217.002929688 221 217.002929688 221 261.9140625 201.5 c 128,-1,11
 306.826171875 182 306.826171875 182 368.826171875 182 c 0,12,13
 466.826171875 182 466.826171875 182 531.700195312 247.5 c 128,-1,14
 596.57421875 313 596.57421875 313 614.471679688 426 c 0,15,16
 639.021484375 581 639.021484375 581 561.524414062 641 c 128,-1,17
 505.502929688 684.373046875 505.502929688 684.373046875 396.625 684.373046875 c 0,0,0
 354.887695312 684.373046875 354.887695312 684.373046875 305.384765625 678 c 1,18,-1
 338.169921875 885 l 1,19,20
 345.733398438 884.880859375 345.733398438 884.880859375 353.108398438 884.880859375 c 0,0,0
 469.270507812 884.880859375 469.270507812 884.880859375 538.842773438 914.5 c 128,-1,21
 612.83203125 946 612.83203125 946 648.122070312 1001.5 c 128,-1,22
 683.412109375 1057 683.412109375 1057 693.70703125 1122 c 0,23,24
 707.961914062 1212 707.961914062 1212 670.198242188 1264 c 128,-1,25
 632.43359375 1316 632.43359375 1316 552.43359375 1316 c 0,26,27
 490.43359375 1316 490.43359375 1316 427.078125 1288.5 c 128,-1,28
 363.72265625 1261 363.72265625 1261 310.536132812 1203 c 1,29,-1
 180.869140625 1344 l 1,30,31
 273.548828125 1443 273.548828125 1443 383.359375 1486 c 128,-1,32
 493.169921875 1529 493.169921875 1529 596.169921875 1529 c 0,33,34
 773.169921875 1529 773.169921875 1529 869.5390625 1424 c 128,-1,35
 965.909179688 1319 965.909179688 1319 938.350585938 1145 c 0,36,37
 918.551757812 1020 918.551757812 1020 843.956054688 931 c 128,-1,38
 769.359375 842 769.359375 842 677.182617188 803 c 1,39,40
 769.005859375 764 769.005859375 764 828.196289062 670.5 c 128,-1,41
 887.387695312 577 887.387695312 577 862.36328125 419 c 0,42,43
 841.614257812 288 841.614257812 288 772.276367188 188 c 128,-1,44
 702.9375 88 702.9375 88 593.331054688 30.5 c 128,-1,45
 483.723632812 -27 483.723632812 -27 346.723632812 -27 c 0,0,1
EndSplineSet
Substitution2: "'frac' Diagonal Fractions in Latin lookup 24 subtable" three.numr
Substitution2: "'dnom' Denominators in Latin lookup 22 subtable" three.dnom
Substitution2: "'numr' Numerators in Latin lookup 21 subtable" three.numr
Substitution2: "'sups' Superscript in Latin lookup 20 subtable" uni00B3
Substitution2: "'subs' Subscript in Latin lookup 19 subtable" uni2083
AlternateSubs2: "'aalt' Access All Alternates in Latin lookup 1 subtable" uni2083 three.dnom three.numr uni00B3
EndChar

StartChar: four
Encoding: 52 52 478
Width: 922
VWidth: 2424
GlyphClass: 1
Flags: HW
LayerCount: 2
Fore
SplineSet
254.803710938 567 m 1,0,-1
 513.803710938 567 l 1,1,-1
 591.887695312 1060 l 1,2,-1
 254.803710938 567 l 1,0,-1
420 0 m 1,3,-1
 476.384765625 356 l 1,4,-1
 -5.615234375 356 l 1,5,-1
 22.89453125 536 l 1,6,-1
 712.635742188 1513 l 1,7,-1
 879.635742188 1513 l 1,8,-1
 730.12109375 569 l 1,9,-1
 886.12109375 569 l 1,10,-1
 852.068359375 354 l 1,11,-1
 696.068359375 354 l 1,12,-1
 640 0 l 1,13,-1
 420 0 l 1,3,-1
EndSplineSet
Substitution2: "'frac' Diagonal Fractions in Latin lookup 24 subtable" four.numr
Substitution2: "'dnom' Denominators in Latin lookup 22 subtable" four.dnom
Substitution2: "'numr' Numerators in Latin lookup 21 subtable" four.numr
Substitution2: "'sups' Superscript in Latin lookup 20 subtable" uni2074
Substitution2: "'subs' Subscript in Latin lookup 19 subtable" uni2084
AlternateSubs2: "'aalt' Access All Alternates in Latin lookup 1 subtable" uni2084 four.dnom four.numr uni2074
EndChar

StartChar: five
Encoding: 53 53 479
Width: 922
VWidth: 2424
GlyphClass: 1
Flags: HW
LayerCount: 2
Fore
SplineSet
354.723632812 -27 m 0,0,1
 216.723632812 -27 216.723632812 -27 115.331054688 30.5 c 128,-1,2
 13.9375 88 13.9375 88 -29.0556640625 208 c 1,3,-1
 166.276367188 349 l 1,4,-1
 184.493164062 363 l 1,5,-1
 195.958984375 347 l 1,6,7
 190.950195312 328 190.950195312 328 194.416015625 312 c 128,-1,8
 197.881835938 296 197.881835938 296 215.813476562 264 c 1,9,10
 272.729492188 186.987304688 272.729492188 186.987304688 380.837890625 186.987304688 c 0,0,0
 382.223632812 186.987304688 382.223632812 186.987304688 383.618164062 187 c 0,11,12
 477.618164062 187 477.618164062 187 547.684570312 269.5 c 128,-1,13
 617.750976562 352 617.750976562 352 638.182617188 481 c 0,14,15
 660.514648438 622 660.514648438 622 617.661132812 705 c 128,-1,16
 574.806640625 788 574.806640625 788 476.806640625 788 c 0,17,18
 345.806640625 788 345.806640625 788 247.750976562 674 c 1,19,-1
 104.927734375 713 l 1,20,-1
 277.319335938 1511 l 1,21,-1
 977.319335938 1511 l 1,22,-1
 943.424804688 1297 l 1,23,-1
 452.424804688 1297 l 1,24,-1
 377.514648438 944 l 1,25,26
 419.791015625 971 419.791015625 971 472.008789062 985 c 128,-1,27
 524.225585938 999 524.225585938 999 571.225585938 999 c 0,28,29
 744.225585938 999 744.225585938 999 828.874023438 870.5 c 128,-1,30
 913.521484375 742 913.521484375 742 874.400390625 495 c 128,-1,31
 835.279296875 248 835.279296875 248 691.001953125 110.5 c 128,-1,32
 546.723632812 -27 546.723632812 -27 354.723632812 -27 c 0,0,1
EndSplineSet
Substitution2: "'frac' Diagonal Fractions in Latin lookup 24 subtable" five.numr
Substitution2: "'dnom' Denominators in Latin lookup 22 subtable" five.dnom
Substitution2: "'numr' Numerators in Latin lookup 21 subtable" five.numr
Substitution2: "'sups' Superscript in Latin lookup 20 subtable" uni2075
Substitution2: "'subs' Subscript in Latin lookup 19 subtable" uni2085
AlternateSubs2: "'aalt' Access All Alternates in Latin lookup 1 subtable" uni2085 five.dnom five.numr uni2075
EndChar

StartChar: six
Encoding: 54 54 480
Width: 922
VWidth: 2424
GlyphClass: 1
Flags: HW
LayerCount: 2
Fore
SplineSet
416.618164062 187 m 0,0,1
 495.934570312 189 495.934570312 189 558.10546875 269 c 128,-1,2
 620.276367188 349 620.276367188 349 643.400390625 495 c 128,-1,3
 666.524414062 641 666.524414062 641 622.032226562 710.5 c 128,-1,4
 577.540039062 780 577.540039062 780 507.540039062 780 c 0,5,6
 443.540039062 780 443.540039062 780 388.229492188 737 c 128,-1,7
 332.918945312 694 332.918945312 694 285.673828125 623 c 1,8,9
 280.216796875 596.415039062 280.216796875 596.415039062 276.21875 571.172851562 c 0,0,0
 251.341796875 414.107421875 251.341796875 414.107421875 282.940429688 309 c 128,-1,10
 319.618164062 187 319.618164062 187 416.618164062 187 c 0,0,1
377.723632812 -27 m 0,11,12
 161.723632812 -27 161.723632812 -27 78.0546875 164.5 c 128,-1,13
 -5.615234375 356 -5.615234375 356 47.443359375 691 c 0,14,15
 112.380859375 1101 112.380859375 1101 285.512695312 1316.5 c 128,-1,16
 458.64453125 1532 458.64453125 1532 681.64453125 1532 c 0,17,18
 771.64453125 1532 771.64453125 1532 855.6015625 1497 c 128,-1,19
 939.557617188 1462 939.557617188 1462 994.887695312 1382 c 1,20,-1
 834.545898438 1222 l 1,21,-1
 817.536132812 1203 l 1,22,-1
 805.75390625 1217 l 1,23,24
 806.762695312 1236 806.762695312 1236 797.401367188 1249.5 c 128,-1,25
 788.0390625 1263 788.0390625 1263 764.840820312 1287 c 1,26,27
 724.1171875 1314 724.1171875 1314 667.1171875 1314 c 0,28,29
 626.1171875 1314 626.1171875 1314 578.424804688 1297 c 128,-1,30
 530.732421875 1280 530.732421875 1280 482.208984375 1232.5 c 128,-1,31
 433.685546875 1185 433.685546875 1185 390.248046875 1097 c 128,-1,32
 346.809570312 1009 346.809570312 1009 317.002929688 865 c 1,33,34
 369.505859375 925 369.505859375 925 441.653320312 957.5 c 128,-1,35
 513.80078125 990 513.80078125 990 581.80078125 990 c 0,36,37
 740.80078125 990 740.80078125 990 827.161132812 866 c 128,-1,38
 913.521484375 742 913.521484375 742 874.716796875 497 c 0,39,40
 850.484375 344 850.484375 344 778.874023438 226.5 c 128,-1,41
 707.263671875 109 707.263671875 109 603.994140625 41 c 128,-1,42
 500.723632812 -27 500.723632812 -27 377.723632812 -27 c 0,11,12
EndSplineSet
Substitution2: "'frac' Diagonal Fractions in Latin lookup 24 subtable" six.numr
Substitution2: "'dnom' Denominators in Latin lookup 22 subtable" six.dnom
Substitution2: "'numr' Numerators in Latin lookup 21 subtable" six.numr
Substitution2: "'sups' Superscript in Latin lookup 20 subtable" uni2076
Substitution2: "'subs' Subscript in Latin lookup 19 subtable" uni2086
AlternateSubs2: "'aalt' Access All Alternates in Latin lookup 1 subtable" uni2086 six.dnom six.numr uni2076
EndChar

StartChar: seven
Encoding: 55 55 481
Width: 888
VWidth: 2424
GlyphClass: 1
Flags: HW
LayerCount: 2
Fore
SplineSet
63 0 m 1,0,1
 211.05859375 335 211.05859375 335 361.211914062 648.5 c 128,-1,2
 511.366210938 962 511.366210938 962 676.365234375 1284 c 1,3,-1
 141.365234375 1284 l 1,4,-1
 177.319335938 1511 l 1,5,-1
 1001.31933594 1511 l 1,6,-1
 978.194335938 1365 l 1,7,8
 799.819335938 1028 799.819335938 1028 638.498046875 694.5 c 128,-1,9
 477.176757812 361 477.176757812 361 326 0 c 1,10,-1
 63 0 l 1,0,1
EndSplineSet
Substitution2: "'frac' Diagonal Fractions in Latin lookup 24 subtable" seven.numr
Substitution2: "'dnom' Denominators in Latin lookup 22 subtable" seven.dnom
Substitution2: "'numr' Numerators in Latin lookup 21 subtable" seven.numr
Substitution2: "'sups' Superscript in Latin lookup 20 subtable" uni2077
Substitution2: "'subs' Subscript in Latin lookup 19 subtable" uni2087
AlternateSubs2: "'aalt' Access All Alternates in Latin lookup 1 subtable" uni2087 seven.dnom seven.numr uni2077
EndChar

StartChar: eight
Encoding: 56 56 482
Width: 922
VWidth: 2424
GlyphClass: 1
Flags: HW
LayerCount: 2
Fore
SplineSet
400.41015625 192 m 0,0,1
 492.41015625 192 492.41015625 192 550.095703125 250 c 128,-1,2
 607.782226562 308 607.782226562 308 623.462890625 407 c 0,3,4
 639.618164062 509 639.618164062 509 590.337890625 583 c 128,-1,5
 541.05859375 657 541.05859375 657 444.02734375 701 c 1,6,7
 365.7421875 655 365.7421875 655 311.076171875 584.5 c 128,-1,8
 256.409179688 514 256.409179688 514 240.571289062 414 c 0,9,10
 224.416015625 312 224.416015625 312 267.413085938 252 c 128,-1,11
 310.41015625 192 310.41015625 192 400.41015625 192 c 0,0,1
547.645507812 888 m 1,12,13
 611.930664062 934 611.930664062 934 652.780273438 1002.5 c 128,-1,14
 693.629882812 1071 693.629882812 1071 705.666992188 1147 c 0,15,16
 717.0703125 1219 717.0703125 1219 684.490234375 1269 c 128,-1,17
 651.909179688 1319 651.909179688 1319 581.909179688 1319 c 0,18,19
 507.909179688 1319 507.909179688 1319 463.227539062 1270.5 c 128,-1,20
 418.545898438 1222 418.545898438 1222 407.458984375 1152 c 0,21,22
 392.887695312 1060 392.887695312 1060 434.409179688 997 c 128,-1,23
 475.930664062 934 475.930664062 934 547.645507812 888 c 1,12,13
361.723632812 -27 m 0,24,25
 230.723632812 -27 230.723632812 -27 143.697265625 26.5 c 128,-1,26
 56.6708984375 80 56.6708984375 80 18.400390625 173 c 128,-1,27
 -19.8701171875 266 -19.8701171875 266 -0.86328125 386 c 0,28,29
 22.5771484375 534 22.5771484375 534 106.048828125 638 c 128,-1,30
 189.521484375 742 189.521484375 742 309.81640625 807 c 1,31,32
 236.002929688 865 236.002929688 865 200.756835938 955 c 128,-1,33
 165.51171875 1045 165.51171875 1045 181.983398438 1149 c 0,34,35
 208.1171875 1314 208.1171875 1314 326.5390625 1424 c 128,-1,36
 444.961914062 1534 444.961914062 1534 619.961914062 1534 c 0,37,38
 801.961914062 1534 801.961914062 1534 881.59375 1427.5 c 128,-1,39
 961.225585938 1321 961.225585938 1321 936.359375 1164 c 0,40,41
 917.669921875 1046 917.669921875 1046 856.782226562 952 c 128,-1,42
 795.893554688 858 795.893554688 858 703.390625 798 c 1,43,44
 901.642578125 667 901.642578125 667 858.561523438 395 c 0,45,46
 828.944335938 208 828.944335938 208 692.833984375 90.5 c 128,-1,47
 556.723632812 -27 556.723632812 -27 361.723632812 -27 c 0,24,25
EndSplineSet
Substitution2: "'frac' Diagonal Fractions in Latin lookup 24 subtable" eight.numr
Substitution2: "'dnom' Denominators in Latin lookup 22 subtable" eight.dnom
Substitution2: "'numr' Numerators in Latin lookup 21 subtable" eight.numr
Substitution2: "'sups' Superscript in Latin lookup 20 subtable" uni2078
Substitution2: "'subs' Subscript in Latin lookup 19 subtable" uni2088
AlternateSubs2: "'aalt' Access All Alternates in Latin lookup 1 subtable" uni2088 eight.dnom eight.numr uni2078
EndChar

StartChar: nine
Encoding: 57 57 483
Width: 922
VWidth: 2424
GlyphClass: 1
Flags: HW
LayerCount: 2
Fore
SplineSet
331.443359375 1013 m 0,0,1
 311.01171875 884 311.01171875 884 356.55859375 818 c 128,-1,2
 402.10546875 752 402.10546875 752 485.10546875 752 c 0,3,4
 547.10546875 752 547.10546875 752 599.956054688 770 c 128,-1,5
 652.806640625 788 652.806640625 788 698.250976562 835 c 1,6,7
 738.856445312 1104 738.856445312 1104 705.8828125 1211.5 c 128,-1,8
 672.909179688 1319 672.909179688 1319 572.909179688 1319 c 0,9,10
 484.909179688 1319 484.909179688 1319 419.896484375 1240 c 128,-1,11
 354.884765625 1161 354.884765625 1161 331.443359375 1013 c 0,0,1
311.723632812 -27 m 0,12,13
 207.723632812 -27 207.723632812 -27 118.791992188 5 c 128,-1,14
 29.8603515625 37 29.8603515625 37 -32.4189453125 111 c 1,15,-1
 123.673828125 301 l 1,16,-1
 138.682617188 320 l 1,17,-1
 154.782226562 308 l 1,18,19
 153.7734375 289 153.7734375 289 160.081054688 272 c 128,-1,20
 166.387695312 255 166.387695312 255 192.586914062 231 c 1,21,22
 250.092773438 190 250.092773438 190 333.934570312 189 c 0,23,24
 440.934570312 189 440.934570312 189 523.307617188 305 c 128,-1,25
 605.6796875 421 605.6796875 421 654.981445312 606 c 1,26,27
 553.685546875 541 553.685546875 541 432.685546875 541 c 0,28,29
 318.685546875 541 318.685546875 541 234.872070312 599 c 128,-1,30
 151.05859375 657 151.05859375 657 113.584960938 764.5 c 128,-1,31
 76.111328125 872 76.111328125 872 99.5517578125 1020 c 0,32,33
 123.309570312 1170 123.309570312 1170 198.682617188 1286 c 128,-1,34
 274.0546875 1402 274.0546875 1402 382.612304688 1465.5 c 128,-1,35
 491.169921875 1529 491.169921875 1529 613.169921875 1529 c 0,36,37
 824.169921875 1529 824.169921875 1529 903.373046875 1353.5 c 128,-1,38
 982.577148438 1178 982.577148438 1178 929.359375 842 c 0,39,40
 860.62109375 408 860.62109375 408 702.831054688 191.5 c 128,-1,41
 545.040039062 -25 545.040039062 -25 311.723632812 -27 c 0,12,13
EndSplineSet
Substitution2: "'frac' Diagonal Fractions in Latin lookup 24 subtable" nine.numr
Substitution2: "'dnom' Denominators in Latin lookup 22 subtable" nine.dnom
Substitution2: "'numr' Numerators in Latin lookup 21 subtable" nine.numr
Substitution2: "'sups' Superscript in Latin lookup 20 subtable" uni2079
Substitution2: "'subs' Subscript in Latin lookup 19 subtable" uni2089
AlternateSubs2: "'aalt' Access All Alternates in Latin lookup 1 subtable" uni2089 nine.dnom nine.numr uni2079
EndChar

StartChar: zero.zero
Encoding: 65541 -1 484
Width: 922
VWidth: 2424
GlyphClass: 1
Flags: HW
LayerCount: 2
Fore
SplineSet
465.881835938 618 m 128,-1,1
 409.881835938 618 409.881835938 618 377.11328125 660.5 c 128,-1,2
 344.344726562 703 344.344726562 703 354.322265625 766 c 0,3,4
 363.508789062 824 363.508789062 824 410.740234375 866.5 c 128,-1,5
 457.971679688 909 457.971679688 909 511.971679688 909 c 0,6,7
 567.971679688 909 567.971679688 909 601.740234375 866.5 c 128,-1,8
 635.508789062 824 635.508789062 824 626.322265625 766 c 0,9,10
 616.819335938 706 616.819335938 706 569.350585938 662 c 128,-1,0
 521.881835938 618 521.881835938 618 465.881835938 618 c 128,-1,1
396.192382812 178 m 0,11,12
 604.192382812 178 604.192382812 178 694.313476562 747 c 0,13,14
 737.235351562 1018 737.235351562 1018 709.334960938 1167 c 128,-1,15
 681.43359375 1316 681.43359375 1316 576.43359375 1316 c 0,16,17
 473.43359375 1316 473.43359375 1316 395.834960938 1167 c 128,-1,18
 318.235351562 1018 318.235351562 1018 275.313476562 747 c 0,19,20
 185.192382812 178 185.192382812 178 396.192382812 178 c 0,11,12
363.723632812 -27 m 128,-1,22
 166.723632812 -27 166.723632812 -27 80.9501953125 167 c 128,-1,23
 -4.8232421875 361 -4.8232421875 361 56.3134765625 747 c 0,24,25
 116.182617188 1125 116.182617188 1125 264.67578125 1327 c 128,-1,26
 413.169921875 1529 413.169921875 1529 610.169921875 1529 c 128,-1,27
 807.169921875 1529 807.169921875 1529 890.67578125 1327 c 128,-1,28
 974.182617188 1125 974.182617188 1125 914.313476562 747 c 0,29,30
 853.176757812 361 853.176757812 361 706.950195312 167 c 128,-1,21
 560.723632812 -27 560.723632812 -27 363.723632812 -27 c 128,-1,22
EndSplineSet
EndChar

StartChar: zero.ss02
Encoding: 65542 -1 485
Width: 922
VWidth: 2424
GlyphClass: 1
Flags: HW
LayerCount: 2
Fore
SplineSet
396.192382812 178 m 0,0,1
 604.192382812 178 604.192382812 178 694.313476562 747 c 0,2,3
 737.235351562 1018 737.235351562 1018 709.334960938 1167 c 128,-1,4
 681.43359375 1316 681.43359375 1316 576.43359375 1316 c 0,5,6
 473.43359375 1316 473.43359375 1316 395.834960938 1167 c 128,-1,7
 318.235351562 1018 318.235351562 1018 275.313476562 747 c 0,8,9
 185.192382812 178 185.192382812 178 396.192382812 178 c 0,0,1
363.723632812 -27 m 128,-1,11
 166.723632812 -27 166.723632812 -27 80.9501953125 167 c 128,-1,12
 -4.8232421875 361 -4.8232421875 361 56.3134765625 747 c 0,13,14
 116.182617188 1125 116.182617188 1125 264.67578125 1327 c 128,-1,15
 413.169921875 1529 413.169921875 1529 610.169921875 1529 c 128,-1,16
 807.169921875 1529 807.169921875 1529 890.67578125 1327 c 128,-1,17
 974.182617188 1125 974.182617188 1125 914.313476562 747 c 0,18,19
 853.176757812 361 853.176757812 361 706.950195312 167 c 128,-1,10
 560.723632812 -27 560.723632812 -27 363.723632812 -27 c 128,-1,11
EndSplineSet
EndChar

StartChar: uni2070
Encoding: 8304 8304 516
Width: 704
VWidth: 2424
GlyphClass: 1
Flags: HW
LayerCount: 2
Fore
SplineSet
373.353515625 722 m 0,0,1
 526.353515625 722 526.353515625 722 579.887695312 1060 c 0,2,3
 587.96484375 1111 587.96484375 1111 591.458984375 1152 c 1,4,-1
 264.567382812 837 l 1,5,6
 285.353515625 722 285.353515625 722 373.353515625 722 c 0,0,1
273.887695312 1060 m 0,7,8
 265.809570312 1009 265.809570312 1009 261.158203125 967 c 1,9,-1
 585.840820312 1287 l 1,10,11
 566.104492188 1396 566.104492188 1396 480.262695312 1397 c 0,12,13
 405.262695312 1397 405.262695312 1397 352.404296875 1309.5 c 128,-1,14
 299.545898438 1222 299.545898438 1222 273.887695312 1060 c 0,7,8
350.705078125 579 m 128,-1,16
 204.705078125 579 204.705078125 579 136.448242188 700.5 c 128,-1,17
 68.1923828125 822 68.1923828125 822 105.887695312 1060 c 0,18,19
 143.266601562 1296 143.266601562 1296 250.643554688 1421.5 c 128,-1,20
 358.020507812 1547 358.020507812 1547 504.020507812 1547 c 128,-1,21
 650.020507812 1547 650.020507812 1547 716.564453125 1421 c 128,-1,22
 783.107421875 1295 783.107421875 1295 745.887695312 1060 c 0,23,24
 708.192382812 822 708.192382812 822 602.448242188 700.5 c 128,-1,15
 496.705078125 579 496.705078125 579 350.705078125 579 c 128,-1,16
EndSplineSet
Substitution2: "'ss02' Style Set 2 in Latin lookup 36 subtable" uni2070.ss02
Substitution2: "'zero' Slashed Zero in Latin lookup 33 subtable" uni2070.zero
AlternateSubs2: "'aalt' Access All Alternates in Latin lookup 1 subtable" uni2070.ss02 uni2070.zero
EndChar

StartChar: uni00B9
Encoding: 185 185 517
Width: 445
VWidth: 2424
GlyphClass: 1
Flags: HW
LayerCount: 2
Fore
SplineSet
231.555664062 597 m 1,0,-1
 347.809570312 1331 l 1,1,-1
 178.1484375 1270 l 1,2,-1
 159.580078125 1399 l 1,3,-1
 425.961914062 1534 l 1,4,-1
 561.961914062 1534 l 1,5,-1
 413.555664062 597 l 1,6,-1
 231.555664062 597 l 1,0,-1
EndSplineSet
EndChar

StartChar: uni00B2
Encoding: 178 178 518
Width: 675
VWidth: 2424
GlyphClass: 1
Flags: HW
LayerCount: 2
Fore
SplineSet
74.1455078125 727 m 1,0,1
 239.794921875 870 239.794921875 870 345.20703125 961 c 128,-1,2
 450.620117188 1052 450.620117188 1052 505.286132812 1122.5 c 128,-1,3
 559.953125 1193 559.953125 1193 575.623046875 1273 c 0,4,5
 594.3125 1391 594.3125 1391 471.470703125 1392 c 0,6,7
 401.470703125 1392 401.470703125 1392 348.403320312 1360 c 1,8,9
 316.651367188 1330 316.651367188 1330 307.538085938 1313.5 c 128,-1,10
 298.424804688 1297 298.424804688 1297 295.256835938 1277 c 1,11,-1
 278.0390625 1263 l 1,12,-1
 263.256835938 1277 l 1,13,-1
 154.194335938 1365 l 1,14,15
 287.020507812 1547 287.020507812 1547 498.020507812 1547 c 0,16,17
 621.020507812 1547 621.020507812 1547 694.538085938 1474.5 c 128,-1,18
 768.0546875 1402 768.0546875 1402 747.940429688 1275 c 0,19,20
 732.893554688 1180 732.893554688 1180 680.4609375 1101.5 c 128,-1,21
 628.02734375 1023 628.02734375 1023 540.9609375 940.5 c 128,-1,22
 453.893554688 858 453.893554688 858 332.629882812 749 c 1,23,-1
 554.629882812 749 l 2,24,25
 595.629882812 749 595.629882812 749 613.921875 754 c 128,-1,26
 632.213867188 759 632.213867188 759 648.114257812 771 c 1,27,-1
 671.114257812 771 l 1,28,-1
 643.555664062 597 l 1,29,-1
 53.5556640625 597 l 1,30,-1
 74.1455078125 727 l 1,0,1
EndSplineSet
EndChar

StartChar: uni00B3
Encoding: 179 179 519
Width: 668
VWidth: 2424
GlyphClass: 1
Flags: HW
LayerCount: 2
Fore
SplineSet
319.705078125 579 m 0,0,1
 231.705078125 579 231.705078125 579 158.376953125 608.5 c 128,-1,2
 85.048828125 638 85.048828125 638 48.2353515625 696 c 1,3,-1
 157.924804688 814 l 1,4,-1
 179.250976562 835 l 1,5,-1
 192.716796875 819 l 1,6,7
 189.708007812 800 189.708007812 800 198.911132812 785.5 c 128,-1,8
 208.114257812 771 208.114257812 771 232.313476562 747 c 1,9,10
 277.987304688 726 277.987304688 726 333.669921875 724 c 0,11,12
 400.669921875 724 400.669921875 724 444.530273438 761 c 128,-1,13
 488.390625 798 488.390625 798 498.685546875 863 c 0,14,15
 513.256835938 955 513.256835938 955 457.904296875 987.5 c 0,16,17
 416.548828125 1011.78125 416.548828125 1011.78125 338.135742188 1011.78125 c 0,18,19
 311.595703125 1011.78125 311.595703125 1011.78125 280.809570312 1009 c 1,20,-1
 303.775390625 1154 l 1,21,22
 318.51171875 1153.42480469 318.51171875 1153.42480469 332.216796875 1153.42480469 c 0,23,24
 437.7421875 1153.42480469 437.7421875 1153.42480469 482.081054688 1187.5 c 0,25,26
 532.1796875 1226 532.1796875 1226 541.365234375 1284 c 0,27,28
 549.443359375 1335 549.443359375 1335 523.853515625 1366 c 128,-1,29
 498.262695312 1397 498.262695312 1397 444.262695312 1397 c 0,30,31
 347.262695312 1397 347.262695312 1397 276.017578125 1326 c 1,32,-1
 183.172851562 1428 l 1,33,34
 246.151367188 1491 246.151367188 1491 323.5859375 1519 c 128,-1,35
 401.020507812 1547 401.020507812 1547 473.020507812 1547 c 0,36,37
 596.020507812 1547 596.020507812 1547 667.646484375 1481.5 c 128,-1,38
 739.272460938 1416 739.272460938 1416 722.008789062 1307 c 0,39,40
 709.337890625 1227 709.337890625 1227 659.206054688 1172.5 c 128,-1,41
 609.07421875 1118 609.07421875 1118 549.588867188 1096 c 1,42,43
 608.788085938 1072 608.788085938 1072 651.259765625 1015 c 128,-1,44
 693.732421875 958 693.732421875 958 677.893554688 858 c 0,45,46
 658.412109375 735 658.412109375 735 562.05859375 657 c 128,-1,47
 465.705078125 579 465.705078125 579 319.705078125 579 c 0,0,1
EndSplineSet
EndChar

StartChar: uni2074
Encoding: 8308 8308 520
Width: 719
VWidth: 2424
GlyphClass: 1
Flags: HW
LayerCount: 2
Fore
SplineSet
276.048828125 960 m 1,0,-1
 456.048828125 960 l 1,1,-1
 498.971679688 1231 l 1,2,-1
 276.048828125 960 l 1,0,-1
395.555664062 597 m 1,3,-1
 429.608398438 812 l 1,4,-1
 66.6083984375 812 l 1,5,-1
 85.7724609375 933 l 1,6,-1
 585.961914062 1534 l 1,7,-1
 715.961914062 1534 l 1,8,-1
 625.366210938 962 l 1,9,-1
 745.366210938 962 l 1,10,-1
 721.291015625 810 l 1,11,-1
 601.291015625 810 l 1,12,-1
 567.555664062 597 l 1,13,-1
 395.555664062 597 l 1,3,-1
EndSplineSet
EndChar

StartChar: uni2075
Encoding: 8309 8309 521
Width: 677
VWidth: 2424
GlyphClass: 1
Flags: HW
LayerCount: 2
Fore
SplineSet
327.705078125 579 m 0,0,1
 228.705078125 579 228.705078125 579 155.327148438 614.5 c 128,-1,2
 81.9501953125 650 81.9501953125 650 53.1455078125 727 c 1,3,-1
 191.825195312 826 l 1,4,-1
 212.359375 842 l 1,5,-1
 221.508789062 824 l 1,6,7
 218.499023438 805 218.499023438 805 226.861328125 791.5 c 128,-1,8
 235.22265625 778 235.22265625 778 258.10546875 752 c 1,9,10
 295.779296875 731 295.779296875 731 349.461914062 729 c 0,11,12
 412.461914062 729 412.461914062 729 461.327148438 775.5 c 128,-1,13
 510.192382812 822 510.192382812 822 521.75390625 895 c 0,14,15
 534.424804688 975 534.424804688 975 502.52734375 1023 c 128,-1,16
 470.629882812 1071 470.629882812 1071 401.629882812 1071 c 0,17,18
 309.629882812 1071 309.629882812 1071 245.017578125 1004 c 1,19,-1
 138.453125 1032 l 1,20,-1
 250.64453125 1532 l 1,21,-1
 749.64453125 1532 l 1,22,-1
 726.204101562 1384 l 1,23,-1
 380.204101562 1384 l 1,24,-1
 336.685546875 1185 l 1,25,26
 365.903320312 1199 365.903320312 1199 403.486328125 1209 c 128,-1,27
 441.0703125 1219 441.0703125 1219 473.0703125 1219 c 0,28,29
 594.0703125 1219 594.0703125 1219 656.795898438 1141.5 c 128,-1,30
 719.521484375 1064 719.521484375 1064 694.654296875 907 c 0,31,32
 670.10546875 752 670.10546875 752 569.405273438 665.5 c 128,-1,33
 468.705078125 579 468.705078125 579 327.705078125 579 c 0,0,1
EndSplineSet
EndChar

StartChar: uni2076
Encoding: 8310 8310 522
Width: 668
VWidth: 2424
GlyphClass: 1
Flags: HW
LayerCount: 2
Fore
SplineSet
368.461914062 729 m 0,0,1
 421.461914062 729 421.461914062 729 463.485351562 776.5 c 128,-1,2
 505.508789062 824 505.508789062 824 518.654296875 907 c 128,-1,3
 531.80078125 990 531.80078125 990 499.8984375 1028.5 c 128,-1,4
 467.99609375 1067 467.99609375 1067 421.99609375 1067 c 0,5,6
 377.99609375 1067 377.99609375 1067 341.774414062 1043.5 c 128,-1,7
 305.551757812 1020 305.551757812 1020 272.05859375 979 c 1,8,9
 271.010742188 973.025390625 271.010742188 973.025390625 270.0859375 967.18359375 c 0,10,11
 252.73828125 857.658203125 252.73828125 857.658203125 278.416015625 795 c 0,12,13
 305.461914062 729 305.461914062 729 368.461914062 729 c 0,0,1
342.705078125 579 m 0,14,15
 189.705078125 579 189.705078125 579 128.7109375 699 c 128,-1,16
 67.716796875 819 67.716796875 819 100.34375 1025 c 0,17,18
 140.256835938 1277 140.256835938 1277 260.138671875 1412 c 128,-1,19
 380.020507812 1547 380.020507812 1547 535.020507812 1547 c 0,20,21
 598.020507812 1547 598.020507812 1547 658.536132812 1525 c 128,-1,22
 719.051757812 1503 719.051757812 1503 760.1328125 1453 c 1,23,-1
 647.869140625 1344 l 1,24,-1
 629.701171875 1324 l 1,25,-1
 617.91796875 1338 l 1,26,27
 618.927734375 1357 618.927734375 1357 605.615234375 1364.5 c 128,-1,28
 592.303710938 1372 592.303710938 1372 560.154296875 1390 c 1,29,30
 546.470703125 1392 546.470703125 1392 524.470703125 1392 c 0,31,32
 487.470703125 1392 487.470703125 1392 443.778320312 1375 c 128,-1,33
 400.0859375 1358 400.0859375 1358 361.612304688 1304.5 c 128,-1,34
 323.138671875 1251 323.138671875 1251 295.350585938 1145 c 1,35,36
 330.735351562 1179 330.735351562 1179 379.5859375 1197 c 128,-1,37
 428.4375 1215 428.4375 1215 474.4375 1215 c 0,38,39
 585.4375 1215 585.4375 1215 647.979492188 1139.5 c 128,-1,40
 710.521484375 1064 710.521484375 1064 685.971679688 909 c 0,41,42
 662.84765625 763 662.84765625 763 568.276367188 671 c 128,-1,43
 473.705078125 579 473.705078125 579 342.705078125 579 c 0,14,15
EndSplineSet
EndChar

StartChar: uni2077
Encoding: 8311 8311 523
Width: 635
VWidth: 2424
GlyphClass: 1
Flags: HW
LayerCount: 2
Fore
SplineSet
117.555664062 597 m 1,0,1
 214.866210938 801 214.866210938 801 314.221679688 989.5 c 128,-1,2
 413.577148438 1178 413.577148438 1178 522.620117188 1374 c 1,3,-1
 155.620117188 1374 l 1,4,-1
 180.64453125 1532 l 1,5,-1
 751.64453125 1532 l 1,6,-1
 735.172851562 1428 l 1,7,8
 617.545898438 1222 617.545898438 1222 511.130859375 1020.5 c 128,-1,9
 404.716796875 819 404.716796875 819 304.555664062 597 c 1,10,-1
 117.555664062 597 l 1,0,1
EndSplineSet
EndChar

StartChar: uni2078
Encoding: 8312 8312 524
Width: 687
VWidth: 2424
GlyphClass: 1
Flags: HW
LayerCount: 2
Fore
SplineSet
366.9375 732 m 0,0,1
 498.966796875 732 498.966796875 732 517.725585938 850.438476562 c 0,2,3
 527.788085938 913.971679688 527.788085938 913.971679688 489.995117188 956.5 c 128,-1,4
 452.225585938 999 452.225585938 999 383.02734375 1023 c 1,5,6
 327.275390625 993 327.275390625 993 292.177734375 954.5 c 128,-1,7
 257.080078125 916 257.080078125 916 247.893554688 858 c 0,8,9
 238.390625 798 238.390625 798 271.1640625 765 c 128,-1,10
 303.9375 732 303.9375 732 366.9375 732 c 0,0,1
458.983398438 1149 m 1,11,12
 504.259765625 1176 504.259765625 1176 531.25390625 1217 c 128,-1,13
 558.248046875 1258 558.248046875 1258 564.899414062 1300 c 0,14,15
 571.393554688 1341 571.393554688 1341 546.828125 1369 c 128,-1,16
 522.262695312 1397 522.262695312 1397 474.262695312 1397 c 0,17,18
 425.262695312 1397 425.262695312 1397 393.565429688 1370.5 c 128,-1,19
 361.869140625 1344 361.869140625 1344 355.69140625 1305 c 0,20,21
 347.296875 1252 347.296875 1252 378.778320312 1214 c 128,-1,22
 410.259765625 1176 410.259765625 1176 458.983398438 1149 c 1,11,12
339.705078125 579 m 128,-1,24
 198.705078125 579 198.705078125 579 125.6875 651.5 c 128,-1,25
 52.669921875 724 52.669921875 724 70.5673828125 837 c 0,26,27
 85.6142578125 932 85.6142578125 932 140.013671875 994.5 c 128,-1,28
 194.412109375 1057 194.412109375 1057 277.064453125 1099 c 1,29,30
 226.924804688 1136 226.924804688 1136 202.819335938 1189 c 128,-1,31
 178.713867188 1242 178.713867188 1242 188.69140625 1305 c 0,32,33
 205.638671875 1412 205.638671875 1412 291.067382812 1481 c 128,-1,34
 376.49609375 1550 376.49609375 1550 503.49609375 1550 c 0,35,36
 632.49609375 1550 632.49609375 1550 692.883789062 1483 c 128,-1,37
 753.272460938 1416 753.272460938 1416 737.1171875 1314 c 0,38,39
 713.67578125 1166 713.67578125 1166 587.797851562 1091 c 1,40,41
 720.651367188 1008 720.651367188 1008 694.676757812 844 c 0,42,43
 675.987304688 726 675.987304688 726 578.345703125 652.5 c 128,-1,23
 480.705078125 579 480.705078125 579 339.705078125 579 c 128,-1,24
EndSplineSet
EndChar

StartChar: uni2079
Encoding: 8313 8313 525
Width: 668
VWidth: 2424
GlyphClass: 1
Flags: HW
LayerCount: 2
Fore
SplineSet
298.0703125 1219 m 0,0,1
 288.666992188 1147 288.666992188 1147 320.6484375 1109 c 128,-1,2
 352.629882812 1071 352.629882812 1071 410.629882812 1071 c 0,3,4
 449.629882812 1071 449.629882812 1071 485.213867188 1081 c 128,-1,5
 520.797851562 1091 520.797851562 1091 551.07421875 1118 c 1,6,7
 574.415039062 1278 574.415039062 1278 549.998046875 1338.5 c 128,-1,8
 525.580078125 1399 525.580078125 1399 460.580078125 1399 c 0,9,10
 400.580078125 1399 400.580078125 1399 356.293945312 1353 c 128,-1,11
 312.008789062 1307 312.008789062 1307 298.0703125 1219 c 0,0,1
295.705078125 579 m 0,12,13
 223.705078125 579 223.705078125 579 158.79296875 598.5 c 128,-1,14
 93.8818359375 618 93.8818359375 618 48.484375 666 c 1,15,-1
 161.390625 798 l 1,16,-1
 178.400390625 817 l 1,17,-1
 193.499023438 805 l 1,18,19
 195.490234375 786 195.490234375 786 205.510742188 773.5 c 128,-1,20
 215.530273438 761 215.530273438 761 243.204101562 740 c 1,21,22
 273.779296875 731 273.779296875 731 312.461914062 729 c 0,23,24
 379.461914062 729 379.461914062 729 433.361328125 791.5 c 128,-1,25
 487.260742188 854 487.260742188 854 519.048828125 960 c 1,26,27
 453.188476562 923 453.188476562 923 369.188476562 923 c 0,28,29
 248.188476562 923 248.188476562 923 178.859375 1003 c 128,-1,30
 109.530273438 1083 109.530273438 1083 132.1796875 1226 c 128,-1,31
 154.828125 1369 154.828125 1369 256.924804688 1458 c 128,-1,32
 359.020507812 1547 359.020507812 1547 488.020507812 1547 c 0,33,34
 786.020507812 1547 786.020507812 1547 718.282226562 1113 c 0,35,36
 676.151367188 847 676.151367188 847 568.427734375 713 c 128,-1,37
 460.705078125 579 460.705078125 579 295.705078125 579 c 0,12,13
EndSplineSet
EndChar

StartChar: fraction
Encoding: 8260 8260 526
Width: 889
VWidth: 2424
GlyphClass: 1
Flags: HW
LayerCount: 2
Fore
SplineSet
64.5283203125 -104 m 1,0,-1
 -65.009765625 -19 l 1,1,-1
 877.69140625 1627 l 1,2,-1
 1006.75390625 1539 l 1,3,-1
 64.5283203125 -104 l 1,0,-1
EndSplineSet
EndChar

StartChar: onehalf
Encoding: 189 189 527
Width: 876
VWidth: 2424
GlyphClass: 1
Flags: HW
LayerCount: 2
Fore
SplineSet
352.233398438 -169 m 1,0,-1
 369.813476562 -58 l 1,1,2
 478.869140625 56 478.869140625 56 549.03515625 126.5 c 128,-1,3
 619.202148438 197 619.202148438 197 655.095703125 250 c 128,-1,4
 690.990234375 303 690.990234375 303 700.96875 366 c 0,5,6
 706.829101562 403 706.829101562 403 692.471679688 426 c 128,-1,7
 678.114257812 449 678.114257812 449 638.114257812 449 c 128,-1,8
 598.114257812 449 598.114257812 449 568.684570312 430.5 c 128,-1,9
 539.25390625 412 539.25390625 412 508.493164062 363 c 1,10,-1
 433.005859375 442 l 1,11,12
 477.30078125 507 477.30078125 507 535.740234375 544.5 c 128,-1,13
 594.1796875 582 594.1796875 582 661.1796875 582 c 0,14,15
 742.1796875 582 742.1796875 582 790.151367188 525 c 128,-1,16
 838.124023438 468 838.124023438 468 822.28515625 368 c 0,17,18
 810.40625 293 810.40625 293 777.982421875 233.5 c 128,-1,19
 745.55859375 174 745.55859375 174 690.16015625 111.5 c 128,-1,20
 634.760742188 49 634.760742188 49 552.823242188 -39 c 1,21,-1
 759.823242188 -39 l 1,22,-1
 739.233398438 -169 l 1,23,-1
 352.233398438 -169 l 1,0,-1
94.5283203125 -104 m 1,24,-1
 -10.009765625 -19 l 1,25,-1
 809.69140625 1627 l 1,26,-1
 912.75390625 1539 l 1,27,-1
 94.5283203125 -104 l 1,24,-1
181.872070312 921 m 1,28,-1
 271.67578125 1488 l 1,29,-1
 164.232421875 1441 l 1,30,-1
 154.604492188 1557 l 1,31,-1
 332.393554688 1663 l 1,32,-1
 428.393554688 1663 l 1,33,-1
 310.872070312 921 l 1,34,-1
 181.872070312 921 l 1,28,-1
EndSplineSet
EndChar

StartChar: onequarter
Encoding: 188 188 528
Width: 868
VWidth: 2424
GlyphClass: 1
Flags: HW
LayerCount: 2
Fore
SplineSet
487.797851562 125 m 1,0,-1
 588.797851562 125 l 1,1,-1
 618.890625 315 l 1,2,-1
 487.797851562 125 l 1,0,-1
537.233398438 -169 m 1,3,-1
 563.68359375 -2 l 1,4,-1
 338.68359375 -2 l 1,5,-1
 355.155273438 102 l 1,6,-1
 684.595703125 572 l 1,7,-1
 777.595703125 572 l 1,8,-1
 707.431640625 129 l 1,9,-1
 782.431640625 129 l 1,10,-1
 761.68359375 -2 l 1,11,-1
 686.68359375 -2 l 1,12,-1
 660.233398438 -169 l 1,13,-1
 537.233398438 -169 l 1,3,-1
89.5283203125 -104 m 1,14,-1
 -14.009765625 -19 l 1,15,-1
 802.69140625 1627 l 1,16,-1
 905.75390625 1539 l 1,17,-1
 89.5283203125 -104 l 1,14,-1
176.872070312 921 m 1,18,-1
 266.67578125 1488 l 1,19,-1
 160.232421875 1441 l 1,20,-1
 150.604492188 1557 l 1,21,-1
 327.393554688 1663 l 1,22,-1
 423.393554688 1663 l 1,23,-1
 305.872070312 921 l 1,24,-1
 176.872070312 921 l 1,18,-1
EndSplineSet
EndChar

StartChar: threequarters
Encoding: 190 190 529
Width: 839
VWidth: 2424
GlyphClass: 1
Flags: HW
LayerCount: 2
Fore
SplineSet
565.797851562 125 m 1,0,-1
 595.890625 315 l 1,1,-1
 467.797851562 125 l 1,2,-1
 565.797851562 125 l 1,0,-1
541.68359375 -2 m 1,3,-1
 323.68359375 -2 l 1,4,-1
 340.155273438 102 l 1,5,-1
 661.595703125 572 l 1,6,-1
 750.595703125 572 l 1,7,-1
 680.431640625 129 l 1,8,-1
 753.431640625 129 l 1,9,-1
 732.68359375 -2 l 1,10,-1
 659.68359375 -2 l 1,11,-1
 633.233398438 -169 l 1,12,-1
 515.233398438 -169 l 1,13,-1
 541.68359375 -2 l 1,3,-1
81.5283203125 -104 m 1,14,-1
 -18.009765625 -19 l 1,15,-1
 780.69140625 1627 l 1,16,-1
 879.75390625 1539 l 1,17,-1
 81.5283203125 -104 l 1,14,-1
203.654296875 907 m 0,18,19
 148.654296875 907 148.654296875 907 101.297851562 930 c 128,-1,20
 53.9404296875 953 53.9404296875 953 33.2255859375 999 c 1,21,-1
 110.698242188 1103 l 1,22,-1
 125.70703125 1122 l 1,23,-1
 136.806640625 1110 l 1,24,25
 134.114257812 1093 134.114257812 1093 140.555664062 1080 c 128,-1,26
 146.99609375 1067 146.99609375 1067 166.51171875 1045 c 1,27,28
 185.611328125 1033 185.611328125 1033 217.453125 1032 c 0,29,30
 299.453125 1032 299.453125 1032 315.291015625 1132 c 0,31,32
 326.377929688 1202 326.377929688 1202 295.49609375 1228 c 128,-1,33
 274.366210938 1245.7890625 274.366210938 1245.7890625 232.161132812 1245.7890625 c 0,0,0
 212.681640625 1245.7890625 212.681640625 1245.7890625 188.713867188 1242 c 1,34,-1
 208.194335938 1365 l 1,35,36
 213.4609375 1364.86425781 213.4609375 1364.86425781 218.517578125 1364.86425781 c 0,0,0
 288.038085938 1364.86425781 288.038085938 1364.86425781 317.733398438 1390.5 c 128,-1,37
 349.588867188 1418 349.588867188 1418 356.241210938 1460 c 0,38,39
 369.704101562 1545 369.704101562 1545 298.704101562 1545 c 0,40,41
 239.704101562 1545 239.704101562 1545 194.67578125 1488 c 1,42,-1
 135.930664062 1578 l 1,43,44
 176.69140625 1627 176.69140625 1627 227.833984375 1650 c 128,-1,45
 278.977539062 1673 278.977539062 1673 324.977539062 1673 c 0,46,47
 402.977539062 1673 402.977539062 1673 447.741210938 1621 c 128,-1,48
 492.504882812 1569 492.504882812 1569 478.567382812 1481 c 0,49,50
 468.588867188 1418 468.588867188 1418 435.357421875 1375.5 c 128,-1,51
 402.125976562 1333 402.125976562 1333 368.43359375 1316 c 1,52,53
 401.424804688 1297 401.424804688 1297 426.796875 1252 c 128,-1,54
 452.169921875 1207 452.169921875 1207 439.499023438 1127 c 0,55,56
 424.135742188 1030 424.135742188 1030 359.395507812 968.5 c 128,-1,57
 294.654296875 907 294.654296875 907 203.654296875 907 c 0,18,19
EndSplineSet
EndChar

StartChar: uni2070.ss02
Encoding: 65566 -1 533
Width: 704
VWidth: 2424
GlyphClass: 1
Flags: HW
LayerCount: 2
Fore
SplineSet
373.353515625 722 m 128,-1,1
 526.353515625 722 526.353515625 722 579.887695312 1060 c 0,2,3
 605.545898438 1222 605.545898438 1222 581.404296875 1309.5 c 128,-1,4
 557.262695312 1397 557.262695312 1397 480.262695312 1397 c 0,5,6
 405.262695312 1397 405.262695312 1397 352.404296875 1309.5 c 128,-1,7
 299.545898438 1222 299.545898438 1222 273.887695312 1060 c 0,8,0
 220.353515625 722 220.353515625 722 373.353515625 722 c 128,-1,1
350.705078125 579 m 128,-1,10
 204.705078125 579 204.705078125 579 136.448242188 700.5 c 128,-1,11
 68.1923828125 822 68.1923828125 822 105.887695312 1060 c 0,12,13
 143.266601562 1296 143.266601562 1296 250.643554688 1421.5 c 128,-1,14
 358.020507812 1547 358.020507812 1547 504.020507812 1547 c 128,-1,15
 650.020507812 1547 650.020507812 1547 716.564453125 1421 c 128,-1,16
 783.107421875 1295 783.107421875 1295 745.887695312 1060 c 0,17,18
 708.192382812 822 708.192382812 822 602.448242188 700.5 c 128,-1,9
 496.705078125 579 496.705078125 579 350.705078125 579 c 128,-1,10
EndSplineSet
EndChar

StartChar: uni2070.zero
Encoding: 65570 -1 537
Width: 704
VWidth: 2424
GlyphClass: 1
Flags: HW
LayerCount: 2
Fore
SplineSet
423.334960938 1006 m 128,-1,1
 389.334960938 1006 389.334960938 1006 368.71484375 1030.5 c 128,-1,2
 348.095703125 1055 348.095703125 1055 353.48046875 1089 c 128,-1,3
 358.866210938 1123 358.866210938 1123 386.666992188 1147 c 128,-1,4
 414.467773438 1171 414.467773438 1171 449.467773438 1171 c 0,5,6
 483.467773438 1171 483.467773438 1171 505.087890625 1146.5 c 128,-1,7
 526.70703125 1122 526.70703125 1122 521.48046875 1089 c 0,8,9
 516.095703125 1055 516.095703125 1055 486.71484375 1030.5 c 128,-1,0
 457.334960938 1006 457.334960938 1006 423.334960938 1006 c 128,-1,1
373.353515625 722 m 128,-1,11
 526.353515625 722 526.353515625 722 579.887695312 1060 c 0,12,13
 605.545898438 1222 605.545898438 1222 581.404296875 1309.5 c 128,-1,14
 557.262695312 1397 557.262695312 1397 480.262695312 1397 c 0,15,16
 405.262695312 1397 405.262695312 1397 352.404296875 1309.5 c 128,-1,17
 299.545898438 1222 299.545898438 1222 273.887695312 1060 c 0,18,10
 220.353515625 722 220.353515625 722 373.353515625 722 c 128,-1,11
350.705078125 579 m 128,-1,20
 204.705078125 579 204.705078125 579 136.448242188 700.5 c 128,-1,21
 68.1923828125 822 68.1923828125 822 105.887695312 1060 c 0,22,23
 143.266601562 1296 143.266601562 1296 250.643554688 1421.5 c 128,-1,24
 358.020507812 1547 358.020507812 1547 504.020507812 1547 c 128,-1,25
 650.020507812 1547 650.020507812 1547 716.564453125 1421 c 128,-1,26
 783.107421875 1295 783.107421875 1295 745.887695312 1060 c 0,27,28
 708.192382812 822 708.192382812 822 602.448242188 700.5 c 128,-1,19
 496.705078125 579 496.705078125 579 350.705078125 579 c 128,-1,20
EndSplineSet
EndChar

StartChar: period
Encoding: 46 46 538
Width: 406
VWidth: 2590
GlyphClass: 1
Flags: HW
LayerCount: 2
Fore
SplineSet
131.540039062 136 m 0,0,1
 59.5400390625 136 59.5400390625 136 17.4599609375 186 c 128,-1,2
 -24.62109375 236 -24.62109375 236 -13.0595703125 309 c 0,3,4
 -1.97265625 379 -1.97265625 379 55.447265625 429 c 128,-1,5
 112.866210938 479 112.866210938 479 185.866210938 479 c 0,6,7
 255.866210938 479 255.866210938 479 297.947265625 429 c 128,-1,8
 340.02734375 379 340.02734375 379 328.940429688 309 c 0,9,10
 317.537109375 237 317.537109375 237 259.5390625 186.5 c 128,-1,11
 201.540039062 136 201.540039062 136 131.540039062 136 c 0,0,1
EndSplineSet
EndChar

StartChar: comma
Encoding: 44 44 539
Width: 456
VWidth: 2590
GlyphClass: 1
Flags: HW
LayerCount: 2
Fore
SplineSet
39.037109375 -246 m 1,0,-1
 -82.9072265625 -132 l 1,1,2
 -9.9287109375 -69 -9.9287109375 -69 35.0498046875 -6 c 128,-1,3
 80.0283203125 57 80.0283203125 57 86.9970703125 101 c 0,4,5
 92.3818359375 135 92.3818359375 135 71.712890625 165.5 c 128,-1,6
 51.04296875 196 51.04296875 196 31.0078125 230.5 c 128,-1,7
 10.9716796875 265 10.9716796875 265 19.841796875 321 c 0,8,9
 31.720703125 396 31.720703125 396 89.451171875 438.5 c 128,-1,10
 147.182617188 481 147.182617188 481 218.182617188 481 c 0,11,12
 301.182617188 481 301.182617188 481 343.942382812 419.5 c 128,-1,13
 386.701171875 358 386.701171875 358 370.229492188 254 c 0,14,15
 333.959960938 25 333.959960938 25 39.037109375 -246 c 1,0,-1
EndSplineSet
EndChar

StartChar: colon
Encoding: 58 58 540
Width: 406
VWidth: 2699
GlyphClass: 1
Flags: HW
LayerCount: 2
Fore
SplineSet
145.803710938 245 m 128,-1,1
 73.8037109375 245 73.8037109375 245 33.3818359375 296 c 128,-1,2
 -7.041015625 347 -7.041015625 347 3.8876953125 416 c 0,3,4
 14.974609375 486 14.974609375 486 72.869140625 539 c 128,-1,5
 130.763671875 592 130.763671875 592 200.763671875 592 c 0,6,7
 265.763671875 592 265.763671875 592 311.52734375 540 c 128,-1,8
 357.291992188 488 357.291992188 488 345.887695312 416 c 0,9,10
 335.592773438 351 335.592773438 351 276.698242188 298 c 128,-1,0
 217.803710938 245 217.803710938 245 145.803710938 245 c 128,-1,1
263.80078125 990 m 0,11,12
 193.80078125 990 193.80078125 990 152.536132812 1042 c 128,-1,13
 111.272460938 1094 111.272460938 1094 122.201171875 1163 c 0,14,15
 132.8125 1230 132.8125 1230 190.627929688 1282.5 c 128,-1,16
 248.443359375 1335 248.443359375 1335 318.443359375 1335 c 0,17,18
 383.443359375 1335 383.443359375 1335 429.524414062 1285 c 128,-1,19
 475.604492188 1235 475.604492188 1235 464.201171875 1163 c 0,20,21
 453.588867188 1096 453.588867188 1096 394.6953125 1043 c 128,-1,22
 335.80078125 990 335.80078125 990 263.80078125 990 c 0,11,12
EndSplineSet
EndChar

StartChar: semicolon
Encoding: 59 59 541
Width: 457
VWidth: 2699
GlyphClass: 1
Flags: HW
LayerCount: 2
Fore
SplineSet
57.3017578125 -137 m 1,0,-1
 -65.642578125 -23 l 1,1,2
 7.3349609375 40 7.3349609375 40 52.8134765625 103 c 128,-1,3
 98.2919921875 166 98.2919921875 166 105.260742188 210 c 0,4,5
 110.645507812 244 110.645507812 244 89.9765625 274.5 c 128,-1,6
 69.3076171875 305 69.3076171875 305 49.271484375 339.5 c 128,-1,7
 29.2353515625 374 29.2353515625 374 38.10546875 430 c 0,8,9
 49.984375 505 49.984375 505 107.715820312 547.5 c 128,-1,10
 165.447265625 590 165.447265625 590 235.447265625 590 c 0,11,12
 320.447265625 590 320.447265625 590 362.706054688 528.5 c 128,-1,13
 404.965820312 467 404.965820312 467 388.493164062 363 c 0,14,15
 352.223632812 134 352.223632812 134 57.3017578125 -137 c 1,0,-1
286.80078125 990 m 0,16,17
 216.80078125 990 216.80078125 990 175.036132812 1042 c 128,-1,18
 133.272460938 1094 133.272460938 1094 144.201171875 1163 c 0,19,20
 154.8125 1230 154.8125 1230 213.127929688 1282.5 c 128,-1,21
 271.443359375 1335 271.443359375 1335 341.443359375 1335 c 0,22,23
 406.443359375 1335 406.443359375 1335 452.524414062 1285 c 128,-1,24
 498.604492188 1235 498.604492188 1235 487.201171875 1163 c 0,25,26
 476.588867188 1096 476.588867188 1096 417.6953125 1043 c 128,-1,27
 358.80078125 990 358.80078125 990 286.80078125 990 c 0,16,17
EndSplineSet
EndChar

StartChar: ellipsis
Encoding: 8230 8230 542
Width: 884
VWidth: 2424
GlyphClass: 1
Flags: HW
LayerCount: 2
Fore
SplineSet
24.7236328125 -27 m 0,0,1
 -26.2763671875 -27 -26.2763671875 -27 -55.1494140625 18 c 128,-1,2
 -84.021484375 63 -84.021484375 63 -74.2021484375 125 c 0,3,4
 -64.2236328125 188 -64.2236328125 188 -21.017578125 233.5 c 128,-1,5
 22.189453125 279 22.189453125 279 73.189453125 279 c 0,6,7
 122.189453125 279 122.189453125 279 152.061523438 234 c 128,-1,8
 181.934570312 189 181.934570312 189 171.797851562 125 c 0,9,10
 161.8203125 62 161.8203125 62 117.771484375 17.5 c 128,-1,11
 73.7236328125 -27 73.7236328125 -27 24.7236328125 -27 c 0,0,1
330.723632812 -27 m 0,12,13
 279.723632812 -27 279.723632812 -27 250.850585938 18 c 128,-1,14
 221.978515625 63 221.978515625 63 231.797851562 125 c 0,15,16
 241.776367188 188 241.776367188 188 283.982421875 233.5 c 128,-1,17
 326.189453125 279 326.189453125 279 379.189453125 279 c 0,18,19
 428.189453125 279 428.189453125 279 457.061523438 234 c 128,-1,20
 485.934570312 189 485.934570312 189 475.797851562 125 c 0,21,22
 465.8203125 62 465.8203125 62 422.771484375 17.5 c 128,-1,23
 379.723632812 -27 379.723632812 -27 330.723632812 -27 c 0,12,13
638.723632812 -27 m 0,24,25
 587.723632812 -27 587.723632812 -27 558.850585938 18 c 128,-1,26
 529.978515625 63 529.978515625 63 539.797851562 125 c 0,27,28
 549.776367188 188 549.776367188 188 592.982421875 233.5 c 128,-1,29
 636.189453125 279 636.189453125 279 687.189453125 279 c 0,30,31
 736.189453125 279 736.189453125 279 765.061523438 234 c 128,-1,32
 793.934570312 189 793.934570312 189 783.797851562 125 c 0,33,34
 773.8203125 62 773.8203125 62 730.771484375 17.5 c 128,-1,35
 687.723632812 -27 687.723632812 -27 638.723632812 -27 c 0,24,25
EndSplineSet
EndChar

StartChar: exclam
Encoding: 33 33 543
Width: 423
VWidth: 2424
GlyphClass: 1
Flags: HW
LayerCount: 2
Fore
SplineSet
112.723632812 -27 m 0,0,1
 40.7236328125 -27 40.7236328125 -27 -4.9365234375 22.5 c 128,-1,2
 -50.5966796875 72 -50.5966796875 72 -38.8759765625 146 c 0,3,4
 -28.263671875 213 -28.263671875 213 33.4716796875 265 c 128,-1,5
 95.2080078125 317 95.2080078125 317 167.208007812 317 c 0,6,7
 242.208007812 317 242.208007812 317 286.313476562 264 c 128,-1,8
 330.418945312 211 330.418945312 211 320.124023438 146 c 0,9,10
 309.037109375 76 309.037109375 76 245.880859375 24.5 c 128,-1,11
 182.723632812 -27 182.723632812 -27 112.723632812 -27 c 0,0,1
107.192382812 500 m 1,12,-1
 189.064453125 1421 l 2,13,14
 190.177734375 1431.09667969 190.177734375 1431.09667969 191.694335938 1440.67089844 c 0,15,16
 205.796875 1529.70898438 205.796875 1529.70898438 254.717773438 1573.5 c 0,17,18
 308.899414062 1622 308.899414062 1622 373.899414062 1622 c 128,-1,19
 438.899414062 1622 438.899414062 1622 479.217773438 1573.5 c 0,20,21
 515.056640625 1530.38867188 515.056640625 1530.38867188 499.78125 1433.94433594 c 0,22,23
 497.872070312 1421.88867188 497.872070312 1421.88867188 495.1640625 1409 c 2,24,-1
 283.192382812 500 l 1,25,-1
 107.192382812 500 l 1,12,-1
EndSplineSet
EndChar

StartChar: question
Encoding: 63 63 545
Width: 909
VWidth: 2424
GlyphClass: 1
Flags: HW
LayerCount: 2
Fore
SplineSet
378.248046875 -30 m 128,-1,1
 308.248046875 -30 308.248046875 -30 266.66796875 20 c 128,-1,2
 225.086914062 70 225.086914062 70 236.649414062 143 c 0,3,4
 247.736328125 213 247.736328125 213 305.155273438 263 c 128,-1,5
 362.57421875 313 362.57421875 313 432.57421875 313 c 128,-1,6
 502.57421875 313 502.57421875 313 545.155273438 263 c 128,-1,7
 587.736328125 213 587.736328125 213 576.649414062 143 c 0,8,9
 565.245117188 71 565.245117188 71 506.747070312 20.5 c 128,-1,0
 448.248046875 -30 448.248046875 -30 378.248046875 -30 c 128,-1,1
363.080078125 594 m 2,10,11
 379.235351562 696 379.235351562 696 417.926757812 763.5 c 128,-1,12
 456.6171875 831 456.6171875 831 506.95703125 880.5 c 128,-1,13
 557.297851562 930 557.297851562 930 606.162109375 976.5 c 128,-1,14
 655.02734375 1023 655.02734375 1023 692.817382812 1078.5 c 128,-1,15
 730.608398438 1134 730.608398438 1134 743.75390625 1217 c 0,16,17
 759.1171875 1314 759.1171875 1314 710.640625 1361.5 c 128,-1,18
 662.1640625 1409 662.1640625 1409 580.1640625 1409 c 0,19,20
 469.1640625 1409 469.1640625 1409 371.017578125 1326 c 1,21,22
 341.94921875 1294 341.94921875 1294 332.8359375 1277.5 c 128,-1,23
 323.72265625 1261 323.72265625 1261 322.713867188 1242 c 1,24,-1
 307.862304688 1224 l 1,25,-1
 291.23828125 1239 l 1,26,-1
 153.0859375 1358 l 1,27,28
 247.567382812 1481 247.567382812 1481 363.49609375 1550 c 128,-1,29
 479.424804688 1619 479.424804688 1619 632.424804688 1619 c 0,30,31
 819.424804688 1619 819.424804688 1619 911.84375 1508 c 128,-1,32
 1004.26269531 1397 1004.26269531 1397 976.545898438 1222 c 0,33,34
 959.282226562 1113 959.282226562 1113 918.95703125 1041.5 c 128,-1,35
 878.6328125 970 878.6328125 970 827.213867188 920 c 128,-1,36
 775.794921875 870 775.794921875 870 724.166992188 825 c 128,-1,37
 672.540039062 780 672.540039062 780 634.645507812 727 c 128,-1,38
 596.750976562 674 596.750976562 674 584.080078125 594 c 2,39,-1
 565.549804688 477 l 1,40,-1
 344.549804688 477 l 1,41,-1
 363.080078125 594 l 2,10,11
EndSplineSet
EndChar

StartChar: periodcentered
Encoding: 183 183 547
Width: 406
VWidth: 2424
GlyphClass: 1
Flags: HW
LayerCount: 2
Fore
SplineSet
211.048828125 638 m 0,0,1
 139.048828125 638 139.048828125 638 96.96875 688 c 128,-1,2
 54.8876953125 738 54.8876953125 738 66.291015625 810 c 0,3,4
 77.3779296875 880 77.3779296875 880 136.21875 929.5 c 128,-1,5
 195.05859375 979 195.05859375 979 265.05859375 979 c 0,6,7
 332.05859375 979 332.05859375 979 375.71875 929.5 c 128,-1,8
 419.377929688 880 419.377929688 880 408.291015625 810 c 0,9,10
 396.887695312 738 396.887695312 738 338.96875 688 c 128,-1,11
 281.048828125 638 281.048828125 638 211.048828125 638 c 0,0,1
EndSplineSet
Substitution2: "Single Substitution lookup 11 subtable" periodcentered.loclCAT
Substitution2: "Single Substitution lookup 10 subtable" periodcentered.loclCAT
Substitution2: "'aalt' Access All Alternates in Latin lookup 0 subtable" periodcentered.loclCAT
EndChar

StartChar: bullet
Encoding: 8226 8226 548
Width: 559
VWidth: 2424
GlyphClass: 1
Flags: HW
LayerCount: 2
Fore
SplineSet
259.7578125 472 m 0,0,1
 155.7578125 472 155.7578125 472 95.8193359375 545 c 128,-1,2
 35.8818359375 618 35.8818359375 618 51.5615234375 717 c 0,3,4
 62.173828125 784 62.173828125 784 104.859375 842 c 128,-1,5
 147.545898438 900 147.545898438 900 210.193359375 932.5 c 128,-1,6
 272.840820312 965 272.840820312 965 337.840820312 965 c 0,7,8
 436.840820312 965 436.840820312 965 499.779296875 892 c 128,-1,9
 562.716796875 819 562.716796875 819 546.561523438 717 c 0,10,11
 530.881835938 618 530.881835938 618 446.319335938 545 c 128,-1,12
 361.7578125 472 361.7578125 472 259.7578125 472 c 0,0,1
EndSplineSet
EndChar

StartChar: asterisk
Encoding: 42 42 549
Width: 922
VWidth: 2424
GlyphClass: 1
Flags: HW
LayerCount: 2
Fore
SplineSet
223.813476562 264 m 1,0,-1
 68.421875 432 l 1,1,-1
 359.10546875 752 l 1,2,-1
 73.5771484375 856 l 1,3,-1
 193.380859375 1101 l 1,4,-1
 432.98046875 928 l 1,5,-1
 453.1171875 1314 l 1,6,-1
 716.1171875 1314 l 1,7,-1
 599.98046875 928 l 1,8,-1
 887.530273438 1083 l 1,9,-1
 930.78515625 851 l 1,10,-1
 612.421875 754 l 1,11,-1
 795.421875 432 l 1,12,-1
 584.813476562 264 l 1,13,-1
 464.990234375 625 l 1,14,-1
 223.813476562 264 l 1,0,-1
EndSplineSet
Substitution2: "'ss01' Style Set 1 in Latin lookup 35 subtable" asterisk.ss01
Substitution2: "'salt' Stylistic Alternatives in Latin lookup 34 subtable" asterisk.ss01
Substitution2: "'aalt' Access All Alternates in Latin lookup 0 subtable" asterisk.ss01
EndChar

StartChar: uni2E12
Encoding: 11794 11794 550
Width: 345
VWidth: 2175
GlyphClass: 1
Flags: HW
LayerCount: 2
Fore
SplineSet
-100.962890625 -246 m 1,0,-1
 -77.046875 -95 l 1,1,2
 -18.046875 -95 -18.046875 -95 24.10546875 -53 c 128,-1,3
 66.2578125 -11 66.2578125 -11 76.236328125 52 c 0,4,5
 86.0556640625 114 86.0556640625 114 59.0244140625 158 c 128,-1,6
 31.994140625 202 31.994140625 202 -30.005859375 202 c 1,7,-1
 -6.7236328125 349 l 1,8,9
 121.276367188 349 121.276367188 349 184.7890625 267 c 128,-1,10
 248.30078125 185 248.30078125 185 226.918945312 50 c 0,11,12
 206.329101562 -80 206.329101562 -80 117.68359375 -163 c 128,-1,13
 29.037109375 -246 29.037109375 -246 -100.962890625 -246 c 1,0,-1
EndSplineSet
EndChar

StartChar: numbersign
Encoding: 35 35 551
Width: 907
VWidth: 2424
GlyphClass: 1
Flags: HW
LayerCount: 2
Fore
SplineSet
365.189453125 601 m 1,0,-1
 515.189453125 601 l 1,1,-1
 601.040039062 941 l 1,2,-1
 451.040039062 941 l 1,3,-1
 365.189453125 601 l 1,0,-1
372.326171875 21 m 1,4,-1
 474.36328125 419 l 1,5,-1
 321.36328125 419 l 1,6,-1
 224.068359375 32 l 1,7,-1
 54.751953125 30 l 1,8,-1
 152.045898438 417 l 1,9,-1
 -3.9541015625 417 l 1,10,-1
 32.5556640625 597 l 1,11,-1
 197.555664062 597 l 1,12,-1
 282.72265625 939 l 1,13,-1
 104.72265625 939 l 1,14,-1
 139.390625 1120 l 1,15,-1
 324.390625 1120 l 1,16,-1
 421.952148438 1515 l 1,17,-1
 593.427734375 1518 l 1,18,-1
 494.182617188 1125 l 1,19,-1
 644.182617188 1125 l 1,20,-1
 740.319335938 1511 l 1,21,-1
 919.635742188 1513 l 1,22,-1
 822.81640625 1129 l 1,23,-1
 966.81640625 1129 l 1,24,-1
 923.83203125 946 l 1,25,-1
 778.83203125 946 l 1,26,-1
 692.297851562 608 l 1,27,-1
 849.297851562 608 l 1,28,-1
 810.471679688 426 l 1,29,-1
 651.471679688 426 l 1,30,-1
 551.384765625 34 l 1,31,-1
 372.326171875 21 l 1,4,-1
EndSplineSet
EndChar

StartChar: slash
Encoding: 47 47 552
Width: 922
VWidth: 2424
GlyphClass: 1
Flags: HW
LayerCount: 2
Fore
SplineSet
147.528320312 -104 m 1,0,-1
 -63.1083984375 -7 l 1,1,-1
 830.791015625 1615 l 1,2,-1
 1034.52734375 1506 l 1,3,-1
 147.528320312 -104 l 1,0,-1
EndSplineSet
Substitution2: "'frac' Diagonal Fractions in Latin lookup 23 subtable" fraction
Substitution2: "'aalt' Access All Alternates in Latin lookup 0 subtable" fraction
EndChar

StartChar: backslash
Encoding: 92 92 553
Width: 922
VWidth: 2424
GlyphClass: 1
Flags: HW
LayerCount: 2
Fore
SplineSet
558.052734375 -107 m 1,0,-1
 177.319335938 1511 l 1,1,-1
 416.791015625 1615 l 1,2,-1
 795.208007812 -5 l 1,3,-1
 558.052734375 -107 l 1,0,-1
EndSplineSet
EndChar

StartChar: asterisk.ss01
Encoding: 65572 -1 555
Width: 922
VWidth: 2424
GlyphClass: 1
Flags: HW
LayerCount: 2
Fore
SplineSet
246.9375 410 m 1,0,-1
 91.3876953125 577 l 1,1,-1
 382.071289062 897 l 1,2,-1
 96.701171875 1002 l 1,3,-1
 216.505859375 1247 l 1,4,-1
 456.104492188 1074 l 1,5,-1
 476.241210938 1460 l 1,6,-1
 739.241210938 1460 l 1,7,-1
 623.104492188 1074 l 1,8,-1
 910.654296875 1229 l 1,9,-1
 953.909179688 997 l 1,10,-1
 635.545898438 900 l 1,11,-1
 818.387695312 577 l 1,12,-1
 607.9375 410 l 1,13,-1
 488.114257812 771 l 1,14,-1
 246.9375 410 l 1,0,-1
EndSplineSet
EndChar

StartChar: parenleft
Encoding: 40 40 556
Width: 777
VWidth: 2429
GlyphClass: 1
Flags: HW
LayerCount: 2
Fore
SplineSet
535.037109375 -246 m 1,0,1
 345.717773438 -147 345.717773438 -147 229.479492188 12.5 c 128,-1,2
 113.2421875 172 113.2421875 172 70.681640625 370.5 c 128,-1,3
 28.12109375 569 28.12109375 569 62.490234375 786 c 0,4,5
 96.54296875 1001 96.54296875 1001 199.927734375 1196 c 128,-1,6
 303.3125 1391 303.3125 1391 467.362304688 1546 c 128,-1,7
 631.412109375 1701 631.412109375 1701 847.6171875 1797 c 1,8,-1
 887.880859375 1584 l 1,9,10
 655.083007812 1459 655.083007812 1459 503.430664062 1256 c 128,-1,11
 351.779296875 1053 351.779296875 1053 308.381835938 779 c 0,12,13
 266.250976562 513 266.250976562 513 355.4609375 296.5 c 128,-1,14
 444.670898438 80 444.670898438 80 644.189453125 -43 c 1,15,-1
 535.037109375 -246 l 1,0,1
EndSplineSet
EndChar

StartChar: parenright
Encoding: 41 41 557
Width: 777
VWidth: 2429
GlyphClass: 1
Flags: HW
LayerCount: 2
Fore
SplineSet
-22.962890625 -246 m 1,0,1
 197.717773438 -147 197.717773438 -147 365.05859375 13 c 0,2,3
 532.2421875 172 532.2421875 172 636.602539062 370 c 0,4,5
 740.961914062 568 740.961914062 568 775.490234375 786 c 0,6,7
 809.54296875 1001 809.54296875 1001 768.427734375 1196 c 0,8,9
 727.3125 1391 727.3125 1391 612.704101562 1545 c 0,10,11
 498.25390625 1700 498.25390625 1700 312.6171875 1797 c 1,12,-1
 203.880859375 1584 l 1,13,14
 397.083007812 1459 397.083007812 1459 483.930664062 1256 c 0,15,16
 570.779296875 1053 570.779296875 1053 529.381835938 779 c 0,17,18
 487.250976562 513 487.250976562 513 329.040039062 297 c 0,19,20
 171.829101562 81 171.829101562 81 -68.810546875 -43 c 1,21,-1
 -22.962890625 -246 l 1,0,1
EndSplineSet
EndChar

StartChar: braceleft
Encoding: 123 123 558
Width: 890
VWidth: 2469
GlyphClass: 1
Flags: HW
LayerCount: 2
Fore
SplineSet
633.708007812 -166 m 2,0,1
 478.708007812 -166 478.708007812 -166 371.647460938 -128.5 c 128,-1,2
 264.586914062 -91 264.586914062 -91 218.0546875 3.5 c 128,-1,3
 172.987304688 95.0234375 172.987304688 95.0234375 198.997070312 259.2421875 c 0,0,0
 199.842773438 264.583007812 199.842773438 264.583007812 200.763671875 270 c 1,4,-1
 246.2421875 494 l 1,5,6
 268.57421875 635 268.57421875 635 231.98828125 675.5 c 128,-1,7
 195.403320312 716 195.403320312 716 121.403320312 716 c 2,8,-1
 51.4033203125 716 l 1,9,-1
 84.505859375 925 l 1,10,-1
 151.505859375 925 l 2,11,12
 234.505859375 925 234.505859375 925 282.6328125 970 c 128,-1,13
 330.759765625 1015 330.759765625 1015 349.924804688 1136 c 2,14,-1
 379.443359375 1335 l 2,15,16
 413.178710938 1548 413.178710938 1548 547.784179688 1656 c 128,-1,17
 682.390625 1764 682.390625 1764 886.390625 1764 c 2,18,-1
 1043.390625 1764 l 1,19,-1
 1010.76269531 1558 l 1,20,-1
 819.762695312 1558 l 2,21,22
 654.762695312 1558 654.762695312 1558 623.561523438 1361 c 1,23,-1
 597.517578125 1165 l 2,24,25
 578.353515625 1044 578.353515625 1044 517.995117188 956.5 c 128,-1,26
 457.635742188 869 457.635742188 869 368.875 820 c 1,27,28
 442.381835938 779 442.381835938 779 472.310546875 687 c 128,-1,29
 502.23828125 595 502.23828125 595 480.698242188 459 c 2,30,-1
 445.763671875 270 l 2,31,32
 425.965820312 145 425.965820312 145 470.9921875 91.5 c 128,-1,33
 516.018554688 38 516.018554688 38 637.018554688 38 c 2,34,-1
 768.018554688 38 l 1,35,-1
 735.708007812 -166 l 1,36,-1
 633.708007812 -166 l 2,0,1
EndSplineSet
EndChar

StartChar: braceright
Encoding: 125 125 559
Width: 891
VWidth: 2469
GlyphClass: 1
Flags: HW
LayerCount: 2
Fore
SplineSet
15.7080078125 -166 m 2,0,1
 170.708007812 -166 170.708007812 -166 290.7265625 -128 c 0,2,3
 408.745117188 -90 408.745117188 -90 485.633789062 4 c 0,4,5
 559.124023438 94.615234375 559.124023438 94.615234375 584.427734375 254.376953125 c 0,0,0
 585.65234375 262.107421875 585.65234375 262.107421875 586.763671875 270 c 2,1,-1
 613.2421875 494 l 1,2,3
 635.57421875 635 635.57421875 635 683.909179688 675 c 0,4,5
 733.403320312 716 733.403320312 716 807.403320312 716 c 2,6,-1
 878.403320312 716 l 1,7,-1
 911.505859375 925 l 1,8,-1
 843.505859375 925 l 2,9,10
 760.505859375 925 760.505859375 925 727.6328125 970 c 0,11,12
 693.759765625 1015 693.759765625 1015 711.924804688 1136 c 2,13,-1
 746.443359375 1335 l 2,14,15
 780.178710938 1548 780.178710938 1548 679.284179688 1656 c 0,16,17
 579.390625 1764 579.390625 1764 374.390625 1764 c 2,18,-1
 217.390625 1764 l 1,19,-1
 184.762695312 1558 l 1,20,-1
 376.762695312 1558 l 2,21,22
 541.762695312 1558 541.762695312 1558 509.561523438 1361 c 2,23,-1
 474.517578125 1165 l 2,24,25
 455.353515625 1044 455.353515625 1044 487.57421875 957 c 0,26,27
 519.635742188 869 519.635742188 869 594.875 820 c 1,28,29
 508.381835938 779 508.381835938 779 447.96875 688 c 0,30,31
 388.397460938 596 388.397460938 596 366.698242188 459 c 2,32,-1
 341.763671875 270 l 2,33,34
 321.965820312 145 321.965820312 145 260.413085938 91 c 0,35,36
 199.018554688 38 199.018554688 38 78.0185546875 38 c 2,37,-1
 -53.9814453125 38 l 1,38,-1
 -86.2919921875 -166 l 1,39,-1
 15.7080078125 -166 l 2,0,1
EndSplineSet
EndChar

StartChar: bracketleft
Encoding: 91 91 560
Width: 751
VWidth: 2499
GlyphClass: 1
Flags: HW
LayerCount: 2
Fore
SplineSet
-84.173828125 -140 m 1,0,-1
 207.094726562 1699 l 1,1,-1
 890.094726562 1699 l 1,2,-1
 855.567382812 1481 l 1,3,-1
 415.567382812 1481 l 1,4,-1
 192.086914062 70 l 1,5,-1
 636.086914062 70 l 1,6,-1
 602.826171875 -140 l 1,7,-1
 -84.173828125 -140 l 1,0,-1
EndSplineSet
EndChar

StartChar: bracketright
Encoding: 93 93 561
Width: 751
VWidth: 2499
GlyphClass: 1
Flags: HW
LayerCount: 2
Fore
SplineSet
602.826171875 -140 m 1,0,-1
 894.094726562 1699 l 1,1,-1
 209.094726562 1699 l 1,2,-1
 174.567382812 1481 l 1,3,-1
 616.567382812 1481 l 1,4,-1
 393.086914062 70 l 1,5,-1
 -50.9130859375 70 l 1,6,-1
 -84.173828125 -140 l 1,7,-1
 602.826171875 -140 l 1,0,-1
EndSplineSet
EndChar

StartChar: hyphen
Encoding: 45 45 562
Width: 703
VWidth: 2424
GlyphClass: 1
Flags: HW
LayerCount: 2
Fore
SplineSet
42.8505859375 662 m 1,0,-1
 77.6953125 882 l 1,1,-1
 716.6953125 882 l 1,2,-1
 681.850585938 662 l 1,3,-1
 42.8505859375 662 l 1,0,-1
EndSplineSet
EndChar

StartChar: endash
Encoding: 8211 8211 564
Width: 881
VWidth: 2424
GlyphClass: 1
Flags: HW
LayerCount: 2
Fore
SplineSet
42.8505859375 662 m 1,0,-1
 77.6953125 882 l 1,1,-1
 894.6953125 882 l 1,2,-1
 859.850585938 662 l 1,3,-1
 42.8505859375 662 l 1,0,-1
EndSplineSet
EndChar

StartChar: emdash
Encoding: 8212 8212 565
Width: 876
VWidth: 2424
GlyphClass: 1
Flags: HW
LayerCount: 2
Fore
SplineSet
12.8505859375 662 m 1,0,-1
 47.6953125 882 l 1,1,-1
 905.6953125 882 l 1,2,-1
 870.850585938 662 l 1,3,-1
 12.8505859375 662 l 1,0,-1
EndSplineSet
EndChar

StartChar: underscore
Encoding: 95 95 569
Width: 922
VWidth: 2424
GlyphClass: 1
Flags: HW
LayerCount: 2
Fore
SplineSet
-100.487304688 -243 m 1,0,-1
 -67.068359375 -32 l 1,1,-1
 790.931640625 -32 l 1,2,-1
 757.512695312 -243 l 1,3,-1
 -100.487304688 -243 l 1,0,-1
EndSplineSet
EndChar

StartChar: quotedblleft
Encoding: 8220 8220 572
Width: 905
VWidth: 2424
GlyphClass: 1
Flags: HW
LayerCount: 2
Fore
SplineSet
448.030273438 1566 m 1,0,-1
 555.1328125 1453 l 1,1,2
 485.154296875 1390 485.154296875 1390 434.596679688 1326.5 c 128,-1,3
 384.0390625 1263 384.0390625 1263 374.853515625 1205 c 0,4,5
 368.359375 1164 368.359375 1164 389.8203125 1138.5 c 128,-1,6
 411.282226562 1113 411.282226562 1113 432.688476562 1084 c 128,-1,7
 454.095703125 1055 454.095703125 1055 445.701171875 1002 c 0,8,9
 435.08984375 935 435.08984375 935 381.487304688 887 c 128,-1,10
 327.884765625 839 327.884765625 839 251.884765625 839 c 0,11,12
 184.884765625 839 184.884765625 839 137.071289062 897 c 128,-1,13
 89.2568359375 955 89.2568359375 955 103.987304688 1048 c 0,14,15
 139.940429688 1275 139.940429688 1275 448.030273438 1566 c 1,0,-1
899.030273438 1566 m 1,16,-1
 1009.1328125 1453 l 1,17,18
 936.154296875 1390 936.154296875 1390 885.596679688 1326.5 c 128,-1,19
 835.0390625 1263 835.0390625 1263 825.853515625 1205 c 0,20,21
 819.359375 1164 819.359375 1164 840.8203125 1138.5 c 128,-1,22
 862.282226562 1113 862.282226562 1113 883.188476562 1084 c 128,-1,23
 904.095703125 1055 904.095703125 1055 895.701171875 1002 c 0,24,25
 885.08984375 935 885.08984375 935 831.987304688 887 c 128,-1,26
 778.884765625 839 778.884765625 839 705.884765625 839 c 0,27,28
 635.884765625 839 635.884765625 839 588.071289062 897 c 128,-1,29
 540.256835938 955 540.256835938 955 554.987304688 1048 c 0,30,31
 590.940429688 1275 590.940429688 1275 899.030273438 1566 c 1,16,-1
EndSplineSet
EndChar

StartChar: quoteleft
Encoding: 8216 8216 574
Width: 457
VWidth: 2424
GlyphClass: 1
Flags: HW
LayerCount: 2
Fore
SplineSet
450.030273438 1566 m 1,0,-1
 561.1328125 1453 l 1,1,2
 491.154296875 1390 491.154296875 1390 439.596679688 1326.5 c 128,-1,3
 388.0390625 1263 388.0390625 1263 378.853515625 1205 c 0,4,5
 372.359375 1164 372.359375 1164 393.8203125 1138.5 c 128,-1,6
 415.282226562 1113 415.282226562 1113 436.188476562 1084 c 128,-1,7
 457.095703125 1055 457.095703125 1055 448.701171875 1002 c 0,8,9
 438.08984375 935 438.08984375 935 383.987304688 887 c 128,-1,10
 329.884765625 839 329.884765625 839 255.884765625 839 c 0,11,12
 185.884765625 839 185.884765625 839 137.571289062 897 c 128,-1,13
 89.2568359375 955 89.2568359375 955 103.987304688 1048 c 0,14,15
 139.940429688 1275 139.940429688 1275 450.030273438 1566 c 1,0,-1
EndSplineSet
EndChar

StartChar: quoteright
Encoding: 8217 8217 575
Width: 457
VWidth: 2424
GlyphClass: 1
Flags: HW
LayerCount: 2
Fore
SplineSet
199.884765625 839 m 1,0,-1
 88.9404296875 953 l 1,1,2
 161.918945312 1016 161.918945312 1016 211.896484375 1079 c 128,-1,3
 261.875 1142 261.875 1142 271.061523438 1200 c 0,4,5
 277.5546875 1241 277.5546875 1241 256.172851562 1267 c 128,-1,6
 234.791015625 1293 234.791015625 1293 213.883789062 1322 c 128,-1,7
 192.977539062 1351 192.977539062 1351 201.372070312 1404 c 0,8,9
 211.983398438 1471 211.983398438 1471 266.006835938 1518.5 c 128,-1,10
 320.030273438 1566 320.030273438 1566 394.030273438 1566 c 0,11,12
 464.030273438 1566 464.030273438 1566 512.34375 1508 c 128,-1,13
 560.657226562 1450 560.657226562 1450 546.0859375 1358 c 0,14,15
 509.974609375 1130 509.974609375 1130 199.884765625 839 c 1,0,-1
EndSplineSet
EndChar

StartChar: guillemotleft
Encoding: 171 171 576
Width: 922
VWidth: 2424
GlyphClass: 1
Flags: HW
LayerCount: 2
Fore
SplineSet
684.055664062 114 m 1,0,-1
 393.111328125 550 l 1,1,-1
 405.782226562 630 l 1,2,-1
 819.443359375 1013 l 1,3,-1
 919.5859375 875 l 1,4,-1
 604.971679688 587 l 1,5,-1
 834.487304688 243 l 1,6,-1
 684.055664062 114 l 1,0,-1
319.055664062 114 m 1,7,-1
 25.111328125 550 l 1,8,-1
 37.7822265625 630 l 1,9,-1
 454.443359375 1013 l 1,10,-1
 546.6953125 882 l 1,11,-1
 240.971679688 587 l 1,12,-1
 461.012695312 240 l 1,13,-1
 319.055664062 114 l 1,7,-1
EndSplineSet
EndChar

StartChar: guilsinglleft
Encoding: 8249 8249 578
Width: 581
VWidth: 2424
GlyphClass: 1
Flags: HW
LayerCount: 2
Fore
SplineSet
317.471679688 104 m 1,0,-1
 23.685546875 541 l 1,1,-1
 36.673828125 623 l 1,2,-1
 456.809570312 1009 l 1,3,-1
 579.46875 849 l 1,4,-1
 286.705078125 579 l 1,5,-1
 497.129882812 266 l 1,6,-1
 317.471679688 104 l 1,0,-1
EndSplineSet
EndChar

StartChar: guilsinglright
Encoding: 8250 8250 579
Width: 581
VWidth: 2424
GlyphClass: 1
Flags: HW
LayerCount: 2
Fore
SplineSet
107.471679688 104 m 1,0,-1
 -19.8701171875 266 l 1,1,-1
 288.705078125 579 l 1,2,-1
 83.46875 849 l 1,3,-1
 254.809570312 1009 l 1,4,-1
 553.673828125 623 l 1,5,-1
 540.685546875 541 l 1,6,-1
 107.471679688 104 l 1,0,-1
EndSplineSet
EndChar

StartChar: quotedbl
Encoding: 34 34 580
Width: 646
VWidth: 2424
GlyphClass: 1
Flags: HW
LayerCount: 2
Fore
SplineSet
193.315429688 1612 m 1,0,-1
 426.315429688 1612 l 1,1,2
 403.19140625 1466 403.19140625 1466 386.412109375 1379 c 0,3,4
 368.474609375 1291 368.474609375 1291 352.129882812 1232 c 0,5,6
 336.78515625 1173 336.78515625 1173 321.232421875 1119 c 0,7,8
 305.6796875 1065 305.6796875 1065 283.325195312 987 c 1,9,-1
 138.325195312 987 l 1,10,11
 141.6796875 1065 141.6796875 1065 142.232421875 1119 c 0,12,13
 143.78515625 1173 143.78515625 1173 145.971679688 1231 c 0,14,15
 149.157226562 1289 149.157226562 1289 160.25390625 1378 c 0,16,17
 170.19140625 1466 170.19140625 1466 193.315429688 1612 c 1,0,-1
542.315429688 1612 m 1,18,-1
 775.315429688 1612 l 1,19,20
 752.19140625 1466 752.19140625 1466 734.412109375 1379 c 0,21,22
 716.474609375 1291 716.474609375 1291 701.129882812 1232 c 0,23,24
 685.78515625 1173 685.78515625 1173 670.232421875 1119 c 0,25,26
 654.6796875 1065 654.6796875 1065 633.325195312 987 c 1,27,-1
 487.325195312 987 l 1,28,29
 490.6796875 1065 490.6796875 1065 490.232421875 1119 c 0,30,31
 491.78515625 1173 491.78515625 1173 494.971679688 1231 c 0,32,33
 498.157226562 1289 498.157226562 1289 509.25390625 1378 c 0,34,35
 519.19140625 1466 519.19140625 1466 542.315429688 1612 c 1,18,-1
EndSplineSet
Substitution2: "'ss03' Style Set 3 in Latin lookup 37 subtable" quotedbl.ss03
Substitution2: "'aalt' Access All Alternates in Latin lookup 0 subtable" quotedbl.ss03
EndChar

StartChar: quotesingle
Encoding: 39 39 581
Width: 297
VWidth: 2424
GlyphClass: 1
Flags: HW
LayerCount: 2
Fore
SplineSet
193.315429688 1612 m 1,0,-1
 426.315429688 1612 l 1,1,2
 403.19140625 1466 403.19140625 1466 385.991210938 1379.5 c 128,-1,3
 368.791015625 1293 368.791015625 1293 353.288085938 1233 c 128,-1,4
 337.78515625 1173 337.78515625 1173 321.653320312 1118.5 c 128,-1,5
 305.521484375 1064 305.521484375 1064 283.325195312 987 c 1,6,-1
 138.325195312 987 l 1,7,8
 141.6796875 1065 141.6796875 1065 142.732421875 1119 c 128,-1,9
 143.78515625 1173 143.78515625 1173 147.05078125 1231.5 c 128,-1,10
 150.31640625 1290 150.31640625 1290 160.25390625 1378 c 128,-1,11
 170.19140625 1466 170.19140625 1466 193.315429688 1612 c 1,0,-1
EndSplineSet
Substitution2: "'ss03' Style Set 3 in Latin lookup 37 subtable" quotesingle.ss03
Substitution2: "'aalt' Access All Alternates in Latin lookup 0 subtable" quotesingle.ss03
EndChar

StartChar: quotesingle.ss03
Encoding: 65574 -1 583
Width: 391
VWidth: 2424
GlyphClass: 1
Flags: HW
LayerCount: 2
Fore
SplineSet
288.158203125 967 m 1,0,-1
 98.443359375 1013 l 1,1,2
 149.70703125 1122 149.70703125 1122 169.532226562 1193.5 c 0,3,4
 187.26953125 1257.47363281 187.26953125 1257.47363281 196.006835938 1312.64160156 c 0,5,6
 197.03515625 1319.13183594 197.03515625 1319.13183594 197.938476562 1325.5 c 0,7,8
 206.520507812 1386 206.520507812 1386 218.875 1464 c 0,9,10
 232.020507812 1547 232.020507812 1547 275.356445312 1587 c 128,-1,11
 318.69140625 1627 318.69140625 1627 382.69140625 1627 c 0,12,13
 442.69140625 1627 442.69140625 1627 476.59375 1588.5 c 128,-1,14
 510.49609375 1550 510.49609375 1550 497.349609375 1467 c 0,15,16
 483.887695312 1382 483.887695312 1382 432.885742188 1271.5 c 128,-1,17
 381.884765625 1161 381.884765625 1161 288.158203125 967 c 1,0,-1
EndSplineSet
EndChar

StartChar: hyphen_greater.dlig
Encoding: 65575 -1 584
Width: 922
VWidth: 2424
GlyphClass: 1
Flags: HW
LayerCount: 2
Fore
SplineSet
43.958984375 669 m 1,0,-1
 78.169921875 885 l 1,1,-1
 614.169921875 885 l 1,2,-1
 579.958984375 669 l 1,3,-1
 43.958984375 669 l 1,0,-1
313.403320312 72 m 1,4,-1
 353.791992188 327 l 1,5,-1
 789.22265625 778 l 1,6,-1
 491.953125 1193 l 1,7,-1
 531.548828125 1443 l 1,8,-1
 931.577148438 856 l 1,9,-1
 907.819335938 706 l 1,10,-1
 313.403320312 72 l 1,4,-1
EndSplineSet
Ligature2: "'dlig' Discretionary Ligatures in Latin lookup 32 subtable" hyphen greater
EndChar

